%TF.GenerationSoftware,KiCad,Pcbnew,(5.1.6)-1*%
%TF.CreationDate,2025-04-19T10:28:59-04:00*%
%TF.ProjectId,mt32-pi-bay,6d743332-2d70-4692-9d62-61792e6b6963,rev?*%
%TF.SameCoordinates,Original*%
%TF.FileFunction,Paste,Top*%
%TF.FilePolarity,Positive*%
%FSLAX46Y46*%
G04 Gerber Fmt 4.6, Leading zero omitted, Abs format (unit mm)*
G04 Created by KiCad (PCBNEW (5.1.6)-1) date 2025-04-19 10:28:59*
%MOMM*%
%LPD*%
G01*
G04 APERTURE LIST*
G04 APERTURE END LIST*
%TO.C,D1*%
G36*
G01*
X81918500Y-75686499D02*
X81918500Y-76586501D01*
G75*
G02*
X81668501Y-76836500I-249999J0D01*
G01*
X81018499Y-76836500D01*
G75*
G02*
X80768500Y-76586501I0J249999D01*
G01*
X80768500Y-75686499D01*
G75*
G02*
X81018499Y-75436500I249999J0D01*
G01*
X81668501Y-75436500D01*
G75*
G02*
X81918500Y-75686499I0J-249999D01*
G01*
G37*
G36*
G01*
X79868500Y-75686499D02*
X79868500Y-76586501D01*
G75*
G02*
X79618501Y-76836500I-249999J0D01*
G01*
X78968499Y-76836500D01*
G75*
G02*
X78718500Y-76586501I0J249999D01*
G01*
X78718500Y-75686499D01*
G75*
G02*
X78968499Y-75436500I249999J0D01*
G01*
X79618501Y-75436500D01*
G75*
G02*
X79868500Y-75686499I0J-249999D01*
G01*
G37*
%TD*%
%TO.C,R1*%
G36*
G01*
X78718500Y-74300501D02*
X78718500Y-73400499D01*
G75*
G02*
X78968499Y-73150500I249999J0D01*
G01*
X79618501Y-73150500D01*
G75*
G02*
X79868500Y-73400499I0J-249999D01*
G01*
X79868500Y-74300501D01*
G75*
G02*
X79618501Y-74550500I-249999J0D01*
G01*
X78968499Y-74550500D01*
G75*
G02*
X78718500Y-74300501I0J249999D01*
G01*
G37*
G36*
G01*
X80768500Y-74300501D02*
X80768500Y-73400499D01*
G75*
G02*
X81018499Y-73150500I249999J0D01*
G01*
X81668501Y-73150500D01*
G75*
G02*
X81918500Y-73400499I0J-249999D01*
G01*
X81918500Y-74300501D01*
G75*
G02*
X81668501Y-74550500I-249999J0D01*
G01*
X81018499Y-74550500D01*
G75*
G02*
X80768500Y-74300501I0J249999D01*
G01*
G37*
%TD*%
%TO.C,R2*%
G36*
G01*
X147187499Y-80895500D02*
X148087501Y-80895500D01*
G75*
G02*
X148337500Y-81145499I0J-249999D01*
G01*
X148337500Y-81795501D01*
G75*
G02*
X148087501Y-82045500I-249999J0D01*
G01*
X147187499Y-82045500D01*
G75*
G02*
X146937500Y-81795501I0J249999D01*
G01*
X146937500Y-81145499D01*
G75*
G02*
X147187499Y-80895500I249999J0D01*
G01*
G37*
G36*
G01*
X147187499Y-82945500D02*
X148087501Y-82945500D01*
G75*
G02*
X148337500Y-83195499I0J-249999D01*
G01*
X148337500Y-83845501D01*
G75*
G02*
X148087501Y-84095500I-249999J0D01*
G01*
X147187499Y-84095500D01*
G75*
G02*
X146937500Y-83845501I0J249999D01*
G01*
X146937500Y-83195499D01*
G75*
G02*
X147187499Y-82945500I249999J0D01*
G01*
G37*
%TD*%
%TO.C,R3*%
G36*
G01*
X147187499Y-103247500D02*
X148087501Y-103247500D01*
G75*
G02*
X148337500Y-103497499I0J-249999D01*
G01*
X148337500Y-104147501D01*
G75*
G02*
X148087501Y-104397500I-249999J0D01*
G01*
X147187499Y-104397500D01*
G75*
G02*
X146937500Y-104147501I0J249999D01*
G01*
X146937500Y-103497499D01*
G75*
G02*
X147187499Y-103247500I249999J0D01*
G01*
G37*
G36*
G01*
X147187499Y-101197500D02*
X148087501Y-101197500D01*
G75*
G02*
X148337500Y-101447499I0J-249999D01*
G01*
X148337500Y-102097501D01*
G75*
G02*
X148087501Y-102347500I-249999J0D01*
G01*
X147187499Y-102347500D01*
G75*
G02*
X146937500Y-102097501I0J249999D01*
G01*
X146937500Y-101447499D01*
G75*
G02*
X147187499Y-101197500I249999J0D01*
G01*
G37*
%TD*%
M02*
