M48
; DRILL file {KiCad (5.1.6)-1} date 05/28/25 07:42:37
; FORMAT={-:-/ absolute / metric / decimal}
; #@! TF.CreationDate,2025-05-28T07:42:37-04:00
; #@! TF.GenerationSoftware,Kicad,Pcbnew,(5.1.6)-1
; #@! TF.FileFunction,Plated,1,2,PTH
FMAT,2
METRIC
T1C0.400
T2C1.000
T3C3.002
%
G90
G05
T1
X83.058Y-73.85
X147.637Y-79.947
X147.637Y-100.139
X195.453Y-103.441
T2
X136.588Y-99.545
X136.588Y-106.045
X138.838Y-106.395
X141.088Y-99.545
X141.088Y-106.045
X142.439Y-102.795
X102.362Y-77.477
X104.902Y-77.477
X107.442Y-77.477
X109.982Y-77.477
X136.588Y-79.225
X136.588Y-85.725
X138.838Y-86.075
X141.088Y-79.225
X141.088Y-85.725
X142.439Y-82.475
X197.421Y-85.894
X197.421Y-100.393
X199.921Y-100.393
X202.421Y-85.894
X202.421Y-100.393
T3
X194.421Y-92.893
X205.421Y-92.893
T0
M30
