%TF.GenerationSoftware,KiCad,Pcbnew,(5.1.6)-1*%
%TF.CreationDate,2025-05-28T07:42:33-04:00*%
%TF.ProjectId,mt32-pi-bay,6d743332-2d70-4692-9d62-61792e6b6963,rev?*%
%TF.SameCoordinates,Original*%
%TF.FileFunction,Copper,L2,Bot*%
%TF.FilePolarity,Positive*%
%FSLAX46Y46*%
G04 Gerber Fmt 4.6, Leading zero omitted, Abs format (unit mm)*
G04 Created by KiCad (PCBNEW (5.1.6)-1) date 2025-05-28 07:42:33*
%MOMM*%
%LPD*%
G01*
G04 APERTURE LIST*
%TA.AperFunction,ComponentPad*%
%ADD10C,1.508000*%
%TD*%
%TA.AperFunction,ComponentPad*%
%ADD11R,1.508000X1.508000*%
%TD*%
%TA.AperFunction,ComponentPad*%
%ADD12C,1.500000*%
%TD*%
%TA.AperFunction,ComponentPad*%
%ADD13C,4.503000*%
%TD*%
%TA.AperFunction,SMDPad,CuDef*%
%ADD14R,1.000000X2.510000*%
%TD*%
%TA.AperFunction,ViaPad*%
%ADD15C,0.800000*%
%TD*%
%TA.AperFunction,Conductor*%
%ADD16C,0.250000*%
%TD*%
%TA.AperFunction,Conductor*%
%ADD17C,0.254000*%
%TD*%
G04 APERTURE END LIST*
D10*
%TO.P,DS1,4*%
%TO.N,SDA*%
X109982000Y-77477500D03*
%TO.P,DS1,3*%
%TO.N,SCL*%
X107442000Y-77477500D03*
%TO.P,DS1,2*%
%TO.N,+5V*%
X104902000Y-77477500D03*
D11*
%TO.P,DS1,1*%
%TO.N,GND*%
X102362000Y-77477500D03*
%TD*%
D12*
%TO.P,IC1,A1*%
%TO.N,ENC_DAT*%
X197421500Y-100393500D03*
%TO.P,IC1,B1*%
%TO.N,ENC_CLK*%
X202421500Y-100393500D03*
%TO.P,IC1,C1*%
%TO.N,GND*%
X199921500Y-100393500D03*
%TO.P,IC1,D1*%
X197421500Y-85893500D03*
%TO.P,IC1,E1*%
%TO.N,ENC_BTN*%
X202421500Y-85893500D03*
D13*
%TO.P,IC1,MH1*%
%TO.N,GND*%
X194421500Y-92893500D03*
%TO.P,IC1,MH2*%
X205421500Y-92893500D03*
%TD*%
D14*
%TO.P,J1,2*%
%TO.N,SDA*%
X118364000Y-94428500D03*
%TO.P,J1,4*%
%TO.N,BTN1*%
X113284000Y-94428500D03*
%TO.P,J1,6*%
%TO.N,ENC_BTN*%
X108204000Y-94428500D03*
%TO.P,J1,8*%
%TO.N,ENC_DAT*%
X103124000Y-94428500D03*
%TO.P,J1,1*%
%TO.N,+5V*%
X120904000Y-91118500D03*
%TO.P,J1,3*%
%TO.N,SCL*%
X115824000Y-91118500D03*
%TO.P,J1,5*%
%TO.N,BTN2*%
X110744000Y-91118500D03*
%TO.P,J1,7*%
%TO.N,ENC_CLK*%
X105664000Y-91118500D03*
%TO.P,J1,9*%
%TO.N,GND*%
X100584000Y-91118500D03*
%TD*%
D12*
%TO.P,S1,1*%
%TO.N,BTN1*%
X136588500Y-85725000D03*
%TO.P,S1,2*%
X136588500Y-79225000D03*
%TO.P,S1,3*%
%TO.N,GND*%
X141088500Y-85725000D03*
%TO.P,S1,4*%
X141088500Y-79225000D03*
%TO.P,S1,5*%
%TO.N,Net-(R2-Pad2)*%
X142438500Y-82475000D03*
%TO.P,S1,6*%
%TO.N,GND*%
X138838500Y-86075000D03*
%TD*%
%TO.P,S2,6*%
%TO.N,GND*%
X138838500Y-106395000D03*
%TO.P,S2,5*%
%TO.N,Net-(R3-Pad2)*%
X142438500Y-102795000D03*
%TO.P,S2,4*%
%TO.N,GND*%
X141088500Y-99545000D03*
%TO.P,S2,3*%
X141088500Y-106045000D03*
%TO.P,S2,2*%
%TO.N,BTN2*%
X136588500Y-99545000D03*
%TO.P,S2,1*%
X136588500Y-106045000D03*
%TD*%
D15*
%TO.N,+5V*%
X83058000Y-73850500D03*
X147637500Y-79946500D03*
X147637500Y-100139500D03*
%TO.N,ENC_DAT*%
X195453000Y-103441500D03*
%TD*%
D16*
%TO.N,SDA*%
X118364000Y-85859500D02*
X109982000Y-77477500D01*
X118364000Y-94428500D02*
X118364000Y-85859500D01*
%TO.N,SCL*%
X115824000Y-85852000D02*
X115824000Y-91118500D01*
X107442000Y-77477500D02*
X107449500Y-77477500D01*
X107449500Y-77477500D02*
X115824000Y-85852000D01*
%TO.N,+5V*%
X104902000Y-76009500D02*
X104902000Y-77477500D01*
X83058000Y-73850500D02*
X102743000Y-73850500D01*
X102743000Y-73850500D02*
X104902000Y-76009500D01*
X120904000Y-86868000D02*
X118681500Y-84645500D01*
X120904000Y-91118500D02*
X120904000Y-86868000D01*
X118681500Y-84645500D02*
X118681500Y-76962000D01*
X118681500Y-76962000D02*
X115506500Y-73787000D01*
X107124500Y-73787000D02*
X104902000Y-76009500D01*
X115506500Y-73787000D02*
X107124500Y-73787000D01*
X120904000Y-86868000D02*
X128333500Y-79438500D01*
X128333500Y-79438500D02*
X132588000Y-75184000D01*
X132588000Y-75184000D02*
X146240500Y-75184000D01*
X146240500Y-75184000D02*
X147637500Y-76581000D01*
X147637500Y-76581000D02*
X147637500Y-79946500D01*
X147637500Y-79946500D02*
X147637500Y-100139500D01*
%TO.N,ENC_CLK*%
X200326000Y-102489000D02*
X202421500Y-100393500D01*
X105664000Y-96076911D02*
X121035100Y-111448011D01*
X195326000Y-102489000D02*
X200326000Y-102489000D01*
X105664000Y-91118500D02*
X105664000Y-96076911D01*
X121035100Y-111448011D02*
X186366989Y-111448011D01*
X186366989Y-111448011D02*
X195326000Y-102489000D01*
%TO.N,ENC_DAT*%
X103124000Y-96075500D02*
X118946521Y-111898021D01*
X103124000Y-94428500D02*
X103124000Y-96075500D01*
X186996479Y-111898021D02*
X118946521Y-111898021D01*
X195453000Y-103441500D02*
X186996479Y-111898021D01*
%TO.N,ENC_BTN*%
X202421500Y-91012000D02*
X202421500Y-85893500D01*
X196151500Y-97282000D02*
X202421500Y-91012000D01*
X186180590Y-110998000D02*
X196151500Y-101027090D01*
X196151500Y-101027090D02*
X196151500Y-97282000D01*
X121221500Y-110998000D02*
X186180590Y-110998000D01*
X108204000Y-94428500D02*
X108204000Y-97980500D01*
X108204000Y-97980500D02*
X121221500Y-110998000D01*
%TO.N,BTN1*%
X115052489Y-96196989D02*
X126116511Y-96196989D01*
X126116511Y-96196989D02*
X136588500Y-85725000D01*
X113284000Y-94428500D02*
X115052489Y-96196989D01*
%TO.N,BTN2*%
X133690500Y-96647000D02*
X136588500Y-99545000D01*
X112839500Y-96647000D02*
X133690500Y-96647000D01*
X110744000Y-91118500D02*
X110744000Y-94551500D01*
X110744000Y-94551500D02*
X112839500Y-96647000D01*
%TD*%
D17*
%TO.N,GND*%
G36*
X220147000Y-113467000D02*
G01*
X72969000Y-113467000D01*
X72969000Y-107687707D01*
X88495000Y-107687707D01*
X88495000Y-108067293D01*
X88569053Y-108439585D01*
X88714315Y-108790277D01*
X88925201Y-109105891D01*
X89193609Y-109374299D01*
X89509223Y-109585185D01*
X89859915Y-109730447D01*
X90232207Y-109804500D01*
X90611793Y-109804500D01*
X90984085Y-109730447D01*
X91334777Y-109585185D01*
X91650391Y-109374299D01*
X91918799Y-109105891D01*
X92129685Y-108790277D01*
X92274947Y-108439585D01*
X92349000Y-108067293D01*
X92349000Y-107687707D01*
X92274947Y-107315415D01*
X92129685Y-106964723D01*
X91918799Y-106649109D01*
X91650391Y-106380701D01*
X91334777Y-106169815D01*
X90984085Y-106024553D01*
X90611793Y-105950500D01*
X90232207Y-105950500D01*
X89859915Y-106024553D01*
X89509223Y-106169815D01*
X89193609Y-106380701D01*
X88925201Y-106649109D01*
X88714315Y-106964723D01*
X88569053Y-107315415D01*
X88495000Y-107687707D01*
X72969000Y-107687707D01*
X72969000Y-93173500D01*
X102194934Y-93173500D01*
X102194934Y-95683500D01*
X102203178Y-95767207D01*
X102227595Y-95847696D01*
X102267245Y-95921876D01*
X102320605Y-95986895D01*
X102385624Y-96040255D01*
X102459804Y-96079905D01*
X102540293Y-96104322D01*
X102572481Y-96107492D01*
X102574265Y-96125599D01*
X102579989Y-96183711D01*
X102581198Y-96187697D01*
X102611552Y-96287762D01*
X102662809Y-96383657D01*
X102669492Y-96391800D01*
X102731790Y-96467711D01*
X102752852Y-96484996D01*
X118537030Y-112269176D01*
X118554310Y-112290232D01*
X118575366Y-112307512D01*
X118575367Y-112307513D01*
X118638363Y-112359212D01*
X118734258Y-112410469D01*
X118838310Y-112442033D01*
X118946521Y-112452691D01*
X118973629Y-112450021D01*
X186969373Y-112450021D01*
X186996479Y-112452691D01*
X187023585Y-112450021D01*
X187023588Y-112450021D01*
X187104690Y-112442033D01*
X187208742Y-112410469D01*
X187304637Y-112359212D01*
X187388690Y-112290232D01*
X187405980Y-112269164D01*
X195406646Y-104268500D01*
X195534452Y-104268500D01*
X195694227Y-104236718D01*
X195844731Y-104174377D01*
X195980181Y-104083872D01*
X196095372Y-103968681D01*
X196185877Y-103833231D01*
X196248218Y-103682727D01*
X196280000Y-103522952D01*
X196280000Y-103360048D01*
X196248218Y-103200273D01*
X196185877Y-103049769D01*
X196180018Y-103041000D01*
X200298894Y-103041000D01*
X200326000Y-103043670D01*
X200353106Y-103041000D01*
X200353109Y-103041000D01*
X200434211Y-103033012D01*
X200538263Y-103001448D01*
X200634158Y-102950191D01*
X200718211Y-102881211D01*
X200735500Y-102860144D01*
X202072663Y-101522983D01*
X202078182Y-101525269D01*
X202305576Y-101570500D01*
X202537424Y-101570500D01*
X202764818Y-101525269D01*
X202979019Y-101436544D01*
X203171794Y-101307736D01*
X203335736Y-101143794D01*
X203464544Y-100951019D01*
X203553269Y-100736818D01*
X203598500Y-100509424D01*
X203598500Y-100277576D01*
X203553269Y-100050182D01*
X203464544Y-99835981D01*
X203335736Y-99643206D01*
X203171794Y-99479264D01*
X202979019Y-99350456D01*
X202764818Y-99261731D01*
X202537424Y-99216500D01*
X202305576Y-99216500D01*
X202078182Y-99261731D01*
X201863981Y-99350456D01*
X201671206Y-99479264D01*
X201507264Y-99643206D01*
X201378456Y-99835981D01*
X201289731Y-100050182D01*
X201244500Y-100277576D01*
X201244500Y-100509424D01*
X201289731Y-100736818D01*
X201292017Y-100742337D01*
X200097356Y-101937000D01*
X196022236Y-101937000D01*
X196522654Y-101436582D01*
X196543711Y-101419301D01*
X196612691Y-101335248D01*
X196642657Y-101279187D01*
X196671206Y-101307736D01*
X196863981Y-101436544D01*
X197078182Y-101525269D01*
X197305576Y-101570500D01*
X197537424Y-101570500D01*
X197764818Y-101525269D01*
X197979019Y-101436544D01*
X198171794Y-101307736D01*
X198309132Y-101170398D01*
X199177129Y-101170398D01*
X199245068Y-101363658D01*
X199447334Y-101476983D01*
X199667822Y-101548669D01*
X199898059Y-101575963D01*
X200129196Y-101557816D01*
X200352352Y-101494924D01*
X200558950Y-101389705D01*
X200597932Y-101363658D01*
X200665871Y-101170398D01*
X199921500Y-100426027D01*
X199177129Y-101170398D01*
X198309132Y-101170398D01*
X198335736Y-101143794D01*
X198464544Y-100951019D01*
X198553269Y-100736818D01*
X198598500Y-100509424D01*
X198598500Y-100370059D01*
X198739037Y-100370059D01*
X198757184Y-100601196D01*
X198820076Y-100824352D01*
X198925295Y-101030950D01*
X198951342Y-101069932D01*
X199144602Y-101137871D01*
X199888973Y-100393500D01*
X199954027Y-100393500D01*
X200698398Y-101137871D01*
X200891658Y-101069932D01*
X201004983Y-100867666D01*
X201076669Y-100647178D01*
X201103963Y-100416941D01*
X201085816Y-100185804D01*
X201022924Y-99962648D01*
X200917705Y-99756050D01*
X200891658Y-99717068D01*
X200698398Y-99649129D01*
X199954027Y-100393500D01*
X199888973Y-100393500D01*
X199144602Y-99649129D01*
X198951342Y-99717068D01*
X198838017Y-99919334D01*
X198766331Y-100139822D01*
X198739037Y-100370059D01*
X198598500Y-100370059D01*
X198598500Y-100277576D01*
X198553269Y-100050182D01*
X198464544Y-99835981D01*
X198335736Y-99643206D01*
X198309132Y-99616602D01*
X199177129Y-99616602D01*
X199921500Y-100360973D01*
X200665871Y-99616602D01*
X200597932Y-99423342D01*
X200395666Y-99310017D01*
X200175178Y-99238331D01*
X199944941Y-99211037D01*
X199713804Y-99229184D01*
X199490648Y-99292076D01*
X199284050Y-99397295D01*
X199245068Y-99423342D01*
X199177129Y-99616602D01*
X198309132Y-99616602D01*
X198171794Y-99479264D01*
X197979019Y-99350456D01*
X197764818Y-99261731D01*
X197537424Y-99216500D01*
X197305576Y-99216500D01*
X197078182Y-99261731D01*
X196863981Y-99350456D01*
X196703500Y-99457686D01*
X196703500Y-97510644D01*
X199476787Y-94737357D01*
X203610170Y-94737357D01*
X203858165Y-95084377D01*
X204315622Y-95347272D01*
X204815579Y-95515869D01*
X205338820Y-95583690D01*
X205865239Y-95548129D01*
X206374605Y-95410551D01*
X206847343Y-95176245D01*
X206984835Y-95084377D01*
X207232830Y-94737357D01*
X205421500Y-92926027D01*
X203610170Y-94737357D01*
X199476787Y-94737357D01*
X201403325Y-92810820D01*
X202731310Y-92810820D01*
X202766871Y-93337239D01*
X202904449Y-93846605D01*
X203138755Y-94319343D01*
X203230623Y-94456835D01*
X203577643Y-94704830D01*
X205388973Y-92893500D01*
X205454027Y-92893500D01*
X207265357Y-94704830D01*
X207612377Y-94456835D01*
X207875272Y-93999378D01*
X208043869Y-93499421D01*
X208111690Y-92976180D01*
X208076129Y-92449761D01*
X207938551Y-91940395D01*
X207704245Y-91467657D01*
X207612377Y-91330165D01*
X207265357Y-91082170D01*
X205454027Y-92893500D01*
X205388973Y-92893500D01*
X203577643Y-91082170D01*
X203230623Y-91330165D01*
X202967728Y-91787622D01*
X202799131Y-92287579D01*
X202731310Y-92810820D01*
X201403325Y-92810820D01*
X202792654Y-91421492D01*
X202813711Y-91404211D01*
X202882691Y-91320158D01*
X202933948Y-91224263D01*
X202965512Y-91120211D01*
X202972462Y-91049643D01*
X203610170Y-91049643D01*
X205421500Y-92860973D01*
X207232830Y-91049643D01*
X206984835Y-90702623D01*
X206527378Y-90439728D01*
X206027421Y-90271131D01*
X205504180Y-90203310D01*
X204977761Y-90238871D01*
X204468395Y-90376449D01*
X203995657Y-90610755D01*
X203858165Y-90702623D01*
X203610170Y-91049643D01*
X202972462Y-91049643D01*
X202973500Y-91039109D01*
X202973500Y-91039107D01*
X202976170Y-91012001D01*
X202973500Y-90984895D01*
X202973500Y-86938830D01*
X202979019Y-86936544D01*
X203171794Y-86807736D01*
X203335736Y-86643794D01*
X203464544Y-86451019D01*
X203553269Y-86236818D01*
X203598500Y-86009424D01*
X203598500Y-85777576D01*
X203553269Y-85550182D01*
X203464544Y-85335981D01*
X203335736Y-85143206D01*
X203171794Y-84979264D01*
X202979019Y-84850456D01*
X202764818Y-84761731D01*
X202537424Y-84716500D01*
X202305576Y-84716500D01*
X202078182Y-84761731D01*
X201863981Y-84850456D01*
X201671206Y-84979264D01*
X201507264Y-85143206D01*
X201378456Y-85335981D01*
X201289731Y-85550182D01*
X201244500Y-85777576D01*
X201244500Y-86009424D01*
X201289731Y-86236818D01*
X201378456Y-86451019D01*
X201507264Y-86643794D01*
X201671206Y-86807736D01*
X201863981Y-86936544D01*
X201869501Y-86938830D01*
X201869500Y-90783354D01*
X195780352Y-96872504D01*
X195759290Y-96889789D01*
X195701274Y-96960482D01*
X195690309Y-96973843D01*
X195639052Y-97069738D01*
X195620277Y-97131633D01*
X195610858Y-97162685D01*
X195607489Y-97173790D01*
X195596830Y-97282000D01*
X195599501Y-97309116D01*
X195599500Y-100798444D01*
X185951946Y-110446000D01*
X121450146Y-110446000D01*
X118691853Y-107687707D01*
X119995000Y-107687707D01*
X119995000Y-108067293D01*
X120069053Y-108439585D01*
X120214315Y-108790277D01*
X120425201Y-109105891D01*
X120693609Y-109374299D01*
X121009223Y-109585185D01*
X121359915Y-109730447D01*
X121732207Y-109804500D01*
X122111793Y-109804500D01*
X122484085Y-109730447D01*
X122834777Y-109585185D01*
X123150391Y-109374299D01*
X123418799Y-109105891D01*
X123629685Y-108790277D01*
X123774947Y-108439585D01*
X123849000Y-108067293D01*
X123849000Y-107687707D01*
X123774947Y-107315415D01*
X123629685Y-106964723D01*
X123418799Y-106649109D01*
X123150391Y-106380701D01*
X122834777Y-106169815D01*
X122484085Y-106024553D01*
X122111793Y-105950500D01*
X121732207Y-105950500D01*
X121359915Y-106024553D01*
X121009223Y-106169815D01*
X120693609Y-106380701D01*
X120425201Y-106649109D01*
X120214315Y-106964723D01*
X120069053Y-107315415D01*
X119995000Y-107687707D01*
X118691853Y-107687707D01*
X116933222Y-105929076D01*
X135411500Y-105929076D01*
X135411500Y-106160924D01*
X135456731Y-106388318D01*
X135545456Y-106602519D01*
X135674264Y-106795294D01*
X135838206Y-106959236D01*
X136030981Y-107088044D01*
X136245182Y-107176769D01*
X136472576Y-107222000D01*
X136704424Y-107222000D01*
X136931818Y-107176769D01*
X136943577Y-107171898D01*
X138094129Y-107171898D01*
X138162068Y-107365158D01*
X138364334Y-107478483D01*
X138584822Y-107550169D01*
X138815059Y-107577463D01*
X139046196Y-107559316D01*
X139269352Y-107496424D01*
X139475950Y-107391205D01*
X139514932Y-107365158D01*
X139582871Y-107171898D01*
X138838500Y-106427527D01*
X138094129Y-107171898D01*
X136943577Y-107171898D01*
X137146019Y-107088044D01*
X137338794Y-106959236D01*
X137502736Y-106795294D01*
X137631544Y-106602519D01*
X137667378Y-106516008D01*
X137674184Y-106602696D01*
X137737076Y-106825852D01*
X137842295Y-107032450D01*
X137868342Y-107071432D01*
X138061602Y-107139371D01*
X138805973Y-106395000D01*
X138871027Y-106395000D01*
X139615398Y-107139371D01*
X139808658Y-107071432D01*
X139921983Y-106869166D01*
X139937350Y-106821898D01*
X140344129Y-106821898D01*
X140412068Y-107015158D01*
X140614334Y-107128483D01*
X140834822Y-107200169D01*
X141065059Y-107227463D01*
X141296196Y-107209316D01*
X141519352Y-107146424D01*
X141725950Y-107041205D01*
X141764932Y-107015158D01*
X141832871Y-106821898D01*
X141088500Y-106077527D01*
X140344129Y-106821898D01*
X139937350Y-106821898D01*
X139993669Y-106648678D01*
X140009044Y-106518986D01*
X140092295Y-106682450D01*
X140118342Y-106721432D01*
X140311602Y-106789371D01*
X141055973Y-106045000D01*
X141121027Y-106045000D01*
X141865398Y-106789371D01*
X142058658Y-106721432D01*
X142171983Y-106519166D01*
X142243669Y-106298678D01*
X142270963Y-106068441D01*
X142252816Y-105837304D01*
X142189924Y-105614148D01*
X142084705Y-105407550D01*
X142058658Y-105368568D01*
X141865398Y-105300629D01*
X141121027Y-106045000D01*
X141055973Y-106045000D01*
X140311602Y-105300629D01*
X140118342Y-105368568D01*
X140005017Y-105570834D01*
X139933331Y-105791322D01*
X139917956Y-105921014D01*
X139834705Y-105757550D01*
X139808658Y-105718568D01*
X139615398Y-105650629D01*
X138871027Y-106395000D01*
X138805973Y-106395000D01*
X138061602Y-105650629D01*
X137868342Y-105718568D01*
X137761544Y-105909185D01*
X137720269Y-105701682D01*
X137685650Y-105618102D01*
X138094129Y-105618102D01*
X138838500Y-106362473D01*
X139582871Y-105618102D01*
X139514932Y-105424842D01*
X139312666Y-105311517D01*
X139179133Y-105268102D01*
X140344129Y-105268102D01*
X141088500Y-106012473D01*
X141832871Y-105268102D01*
X141764932Y-105074842D01*
X141562666Y-104961517D01*
X141342178Y-104889831D01*
X141111941Y-104862537D01*
X140880804Y-104880684D01*
X140657648Y-104943576D01*
X140451050Y-105048795D01*
X140412068Y-105074842D01*
X140344129Y-105268102D01*
X139179133Y-105268102D01*
X139092178Y-105239831D01*
X138861941Y-105212537D01*
X138630804Y-105230684D01*
X138407648Y-105293576D01*
X138201050Y-105398795D01*
X138162068Y-105424842D01*
X138094129Y-105618102D01*
X137685650Y-105618102D01*
X137631544Y-105487481D01*
X137502736Y-105294706D01*
X137338794Y-105130764D01*
X137146019Y-105001956D01*
X136931818Y-104913231D01*
X136704424Y-104868000D01*
X136472576Y-104868000D01*
X136245182Y-104913231D01*
X136030981Y-105001956D01*
X135838206Y-105130764D01*
X135674264Y-105294706D01*
X135545456Y-105487481D01*
X135456731Y-105701682D01*
X135411500Y-105929076D01*
X116933222Y-105929076D01*
X113683222Y-102679076D01*
X141261500Y-102679076D01*
X141261500Y-102910924D01*
X141306731Y-103138318D01*
X141395456Y-103352519D01*
X141524264Y-103545294D01*
X141688206Y-103709236D01*
X141880981Y-103838044D01*
X142095182Y-103926769D01*
X142322576Y-103972000D01*
X142554424Y-103972000D01*
X142781818Y-103926769D01*
X142996019Y-103838044D01*
X143188794Y-103709236D01*
X143352736Y-103545294D01*
X143481544Y-103352519D01*
X143570269Y-103138318D01*
X143615500Y-102910924D01*
X143615500Y-102679076D01*
X143570269Y-102451682D01*
X143481544Y-102237481D01*
X143352736Y-102044706D01*
X143188794Y-101880764D01*
X142996019Y-101751956D01*
X142781818Y-101663231D01*
X142554424Y-101618000D01*
X142322576Y-101618000D01*
X142095182Y-101663231D01*
X141880981Y-101751956D01*
X141688206Y-101880764D01*
X141524264Y-102044706D01*
X141395456Y-102237481D01*
X141306731Y-102451682D01*
X141261500Y-102679076D01*
X113683222Y-102679076D01*
X108756000Y-97751856D01*
X108756000Y-96107445D01*
X108787707Y-96104322D01*
X108868196Y-96079905D01*
X108942376Y-96040255D01*
X109007395Y-95986895D01*
X109060755Y-95921876D01*
X109100405Y-95847696D01*
X109124822Y-95767207D01*
X109133066Y-95683500D01*
X109133066Y-93173500D01*
X109124822Y-93089793D01*
X109100405Y-93009304D01*
X109060755Y-92935124D01*
X109007395Y-92870105D01*
X108942376Y-92816745D01*
X108868196Y-92777095D01*
X108787707Y-92752678D01*
X108704000Y-92744434D01*
X107704000Y-92744434D01*
X107620293Y-92752678D01*
X107539804Y-92777095D01*
X107465624Y-92816745D01*
X107400605Y-92870105D01*
X107347245Y-92935124D01*
X107307595Y-93009304D01*
X107283178Y-93089793D01*
X107274934Y-93173500D01*
X107274934Y-95683500D01*
X107283178Y-95767207D01*
X107307595Y-95847696D01*
X107347245Y-95921876D01*
X107400605Y-95986895D01*
X107465624Y-96040255D01*
X107539804Y-96079905D01*
X107620293Y-96104322D01*
X107652000Y-96107445D01*
X107652001Y-97284268D01*
X106216000Y-95848267D01*
X106216000Y-92797445D01*
X106247707Y-92794322D01*
X106328196Y-92769905D01*
X106402376Y-92730255D01*
X106467395Y-92676895D01*
X106520755Y-92611876D01*
X106560405Y-92537696D01*
X106584822Y-92457207D01*
X106593066Y-92373500D01*
X106593066Y-89863500D01*
X106584822Y-89779793D01*
X106560405Y-89699304D01*
X106520755Y-89625124D01*
X106467395Y-89560105D01*
X106402376Y-89506745D01*
X106328196Y-89467095D01*
X106247707Y-89442678D01*
X106164000Y-89434434D01*
X105164000Y-89434434D01*
X105080293Y-89442678D01*
X104999804Y-89467095D01*
X104925624Y-89506745D01*
X104860605Y-89560105D01*
X104807245Y-89625124D01*
X104767595Y-89699304D01*
X104743178Y-89779793D01*
X104734934Y-89863500D01*
X104734934Y-92373500D01*
X104743178Y-92457207D01*
X104767595Y-92537696D01*
X104807245Y-92611876D01*
X104860605Y-92676895D01*
X104925624Y-92730255D01*
X104999804Y-92769905D01*
X105080293Y-92794322D01*
X105112000Y-92797445D01*
X105112001Y-96049795D01*
X105109330Y-96076911D01*
X105114126Y-96125599D01*
X105119989Y-96185122D01*
X105120770Y-96187697D01*
X105151552Y-96289173D01*
X105202809Y-96385068D01*
X105208334Y-96391800D01*
X105271790Y-96469122D01*
X105292852Y-96486407D01*
X120152464Y-111346021D01*
X119175167Y-111346021D01*
X103866233Y-96037089D01*
X103927395Y-95986895D01*
X103980755Y-95921876D01*
X104020405Y-95847696D01*
X104044822Y-95767207D01*
X104053066Y-95683500D01*
X104053066Y-93173500D01*
X104044822Y-93089793D01*
X104020405Y-93009304D01*
X103980755Y-92935124D01*
X103927395Y-92870105D01*
X103862376Y-92816745D01*
X103788196Y-92777095D01*
X103707707Y-92752678D01*
X103624000Y-92744434D01*
X102624000Y-92744434D01*
X102540293Y-92752678D01*
X102459804Y-92777095D01*
X102385624Y-92816745D01*
X102320605Y-92870105D01*
X102267245Y-92935124D01*
X102227595Y-93009304D01*
X102203178Y-93089793D01*
X102194934Y-93173500D01*
X72969000Y-93173500D01*
X72969000Y-92373500D01*
X99654934Y-92373500D01*
X99663178Y-92457207D01*
X99687595Y-92537696D01*
X99727245Y-92611876D01*
X99780605Y-92676895D01*
X99845624Y-92730255D01*
X99919804Y-92769905D01*
X100000293Y-92794322D01*
X100084000Y-92802566D01*
X100454250Y-92800500D01*
X100561000Y-92693750D01*
X100561000Y-91141500D01*
X100607000Y-91141500D01*
X100607000Y-92693750D01*
X100713750Y-92800500D01*
X101084000Y-92802566D01*
X101167707Y-92794322D01*
X101248196Y-92769905D01*
X101322376Y-92730255D01*
X101387395Y-92676895D01*
X101440755Y-92611876D01*
X101480405Y-92537696D01*
X101504822Y-92457207D01*
X101513066Y-92373500D01*
X101511000Y-91248250D01*
X101404250Y-91141500D01*
X100607000Y-91141500D01*
X100561000Y-91141500D01*
X99763750Y-91141500D01*
X99657000Y-91248250D01*
X99654934Y-92373500D01*
X72969000Y-92373500D01*
X72969000Y-89863500D01*
X99654934Y-89863500D01*
X99657000Y-90988750D01*
X99763750Y-91095500D01*
X100561000Y-91095500D01*
X100561000Y-89543250D01*
X100607000Y-89543250D01*
X100607000Y-91095500D01*
X101404250Y-91095500D01*
X101511000Y-90988750D01*
X101513066Y-89863500D01*
X101504822Y-89779793D01*
X101480405Y-89699304D01*
X101440755Y-89625124D01*
X101387395Y-89560105D01*
X101322376Y-89506745D01*
X101248196Y-89467095D01*
X101167707Y-89442678D01*
X101084000Y-89434434D01*
X100713750Y-89436500D01*
X100607000Y-89543250D01*
X100561000Y-89543250D01*
X100454250Y-89436500D01*
X100084000Y-89434434D01*
X100000293Y-89442678D01*
X99919804Y-89467095D01*
X99845624Y-89506745D01*
X99780605Y-89560105D01*
X99727245Y-89625124D01*
X99687595Y-89699304D01*
X99663178Y-89779793D01*
X99654934Y-89863500D01*
X72969000Y-89863500D01*
X72969000Y-77987707D01*
X88495000Y-77987707D01*
X88495000Y-78367293D01*
X88569053Y-78739585D01*
X88714315Y-79090277D01*
X88925201Y-79405891D01*
X89193609Y-79674299D01*
X89509223Y-79885185D01*
X89859915Y-80030447D01*
X90232207Y-80104500D01*
X90611793Y-80104500D01*
X90984085Y-80030447D01*
X91334777Y-79885185D01*
X91650391Y-79674299D01*
X91918799Y-79405891D01*
X92129685Y-79090277D01*
X92274947Y-78739585D01*
X92349000Y-78367293D01*
X92349000Y-78231500D01*
X101178934Y-78231500D01*
X101187178Y-78315207D01*
X101211595Y-78395696D01*
X101251245Y-78469876D01*
X101304605Y-78534895D01*
X101369624Y-78588255D01*
X101443804Y-78627905D01*
X101524293Y-78652322D01*
X101608000Y-78660566D01*
X102232250Y-78658500D01*
X102339000Y-78551750D01*
X102339000Y-77500500D01*
X102385000Y-77500500D01*
X102385000Y-78551750D01*
X102491750Y-78658500D01*
X103116000Y-78660566D01*
X103199707Y-78652322D01*
X103280196Y-78627905D01*
X103354376Y-78588255D01*
X103419395Y-78534895D01*
X103472755Y-78469876D01*
X103512405Y-78395696D01*
X103536822Y-78315207D01*
X103545066Y-78231500D01*
X103543000Y-77607250D01*
X103436250Y-77500500D01*
X102385000Y-77500500D01*
X102339000Y-77500500D01*
X101287750Y-77500500D01*
X101181000Y-77607250D01*
X101178934Y-78231500D01*
X92349000Y-78231500D01*
X92349000Y-77987707D01*
X92274947Y-77615415D01*
X92129685Y-77264723D01*
X91918799Y-76949109D01*
X91693190Y-76723500D01*
X101178934Y-76723500D01*
X101181000Y-77347750D01*
X101287750Y-77454500D01*
X102339000Y-77454500D01*
X102339000Y-76403250D01*
X102385000Y-76403250D01*
X102385000Y-77454500D01*
X103436250Y-77454500D01*
X103543000Y-77347750D01*
X103545066Y-76723500D01*
X103536822Y-76639793D01*
X103512405Y-76559304D01*
X103472755Y-76485124D01*
X103419395Y-76420105D01*
X103354376Y-76366745D01*
X103280196Y-76327095D01*
X103199707Y-76302678D01*
X103116000Y-76294434D01*
X102491750Y-76296500D01*
X102385000Y-76403250D01*
X102339000Y-76403250D01*
X102232250Y-76296500D01*
X101608000Y-76294434D01*
X101524293Y-76302678D01*
X101443804Y-76327095D01*
X101369624Y-76366745D01*
X101304605Y-76420105D01*
X101251245Y-76485124D01*
X101211595Y-76559304D01*
X101187178Y-76639793D01*
X101178934Y-76723500D01*
X91693190Y-76723500D01*
X91650391Y-76680701D01*
X91334777Y-76469815D01*
X90984085Y-76324553D01*
X90611793Y-76250500D01*
X90232207Y-76250500D01*
X89859915Y-76324553D01*
X89509223Y-76469815D01*
X89193609Y-76680701D01*
X88925201Y-76949109D01*
X88714315Y-77264723D01*
X88569053Y-77615415D01*
X88495000Y-77987707D01*
X72969000Y-77987707D01*
X72969000Y-73769048D01*
X82231000Y-73769048D01*
X82231000Y-73931952D01*
X82262782Y-74091727D01*
X82325123Y-74242231D01*
X82415628Y-74377681D01*
X82530819Y-74492872D01*
X82666269Y-74583377D01*
X82816773Y-74645718D01*
X82976548Y-74677500D01*
X83139452Y-74677500D01*
X83299227Y-74645718D01*
X83449731Y-74583377D01*
X83585181Y-74492872D01*
X83675553Y-74402500D01*
X102514356Y-74402500D01*
X104350000Y-76238146D01*
X104350000Y-76427841D01*
X104342587Y-76430912D01*
X104149157Y-76560158D01*
X103984658Y-76724657D01*
X103855412Y-76918087D01*
X103766386Y-77133015D01*
X103721000Y-77361182D01*
X103721000Y-77593818D01*
X103766386Y-77821985D01*
X103855412Y-78036913D01*
X103984658Y-78230343D01*
X104149157Y-78394842D01*
X104342587Y-78524088D01*
X104557515Y-78613114D01*
X104785682Y-78658500D01*
X105018318Y-78658500D01*
X105246485Y-78613114D01*
X105461413Y-78524088D01*
X105654843Y-78394842D01*
X105819342Y-78230343D01*
X105948588Y-78036913D01*
X106037614Y-77821985D01*
X106083000Y-77593818D01*
X106083000Y-77361182D01*
X106261000Y-77361182D01*
X106261000Y-77593818D01*
X106306386Y-77821985D01*
X106395412Y-78036913D01*
X106524658Y-78230343D01*
X106689157Y-78394842D01*
X106882587Y-78524088D01*
X107097515Y-78613114D01*
X107325682Y-78658500D01*
X107558318Y-78658500D01*
X107786485Y-78613114D01*
X107799202Y-78607846D01*
X115272000Y-86080646D01*
X115272001Y-89439555D01*
X115240293Y-89442678D01*
X115159804Y-89467095D01*
X115085624Y-89506745D01*
X115020605Y-89560105D01*
X114967245Y-89625124D01*
X114927595Y-89699304D01*
X114903178Y-89779793D01*
X114894934Y-89863500D01*
X114894934Y-92373500D01*
X114903178Y-92457207D01*
X114927595Y-92537696D01*
X114967245Y-92611876D01*
X115020605Y-92676895D01*
X115085624Y-92730255D01*
X115159804Y-92769905D01*
X115240293Y-92794322D01*
X115324000Y-92802566D01*
X116324000Y-92802566D01*
X116407707Y-92794322D01*
X116488196Y-92769905D01*
X116562376Y-92730255D01*
X116627395Y-92676895D01*
X116680755Y-92611876D01*
X116720405Y-92537696D01*
X116744822Y-92457207D01*
X116753066Y-92373500D01*
X116753066Y-89863500D01*
X116744822Y-89779793D01*
X116720405Y-89699304D01*
X116680755Y-89625124D01*
X116627395Y-89560105D01*
X116562376Y-89506745D01*
X116488196Y-89467095D01*
X116407707Y-89442678D01*
X116376000Y-89439555D01*
X116376000Y-85879097D01*
X116378669Y-85851999D01*
X116376000Y-85824901D01*
X116376000Y-85824891D01*
X116368012Y-85743789D01*
X116336448Y-85639737D01*
X116285191Y-85543842D01*
X116216211Y-85459789D01*
X116195154Y-85442508D01*
X108576740Y-77824096D01*
X108577614Y-77821985D01*
X108623000Y-77593818D01*
X108623000Y-77361182D01*
X108577614Y-77133015D01*
X108488588Y-76918087D01*
X108359342Y-76724657D01*
X108194843Y-76560158D01*
X108001413Y-76430912D01*
X107786485Y-76341886D01*
X107558318Y-76296500D01*
X107325682Y-76296500D01*
X107097515Y-76341886D01*
X106882587Y-76430912D01*
X106689157Y-76560158D01*
X106524658Y-76724657D01*
X106395412Y-76918087D01*
X106306386Y-77133015D01*
X106261000Y-77361182D01*
X106083000Y-77361182D01*
X106037614Y-77133015D01*
X105948588Y-76918087D01*
X105819342Y-76724657D01*
X105654843Y-76560158D01*
X105461413Y-76430912D01*
X105454000Y-76427841D01*
X105454000Y-76238144D01*
X107353146Y-74339000D01*
X115277856Y-74339000D01*
X118129501Y-77190647D01*
X118129500Y-84618394D01*
X118126830Y-84645500D01*
X118129500Y-84672606D01*
X118129500Y-84672608D01*
X118137488Y-84753710D01*
X118169052Y-84857762D01*
X118199072Y-84913926D01*
X111114543Y-77829399D01*
X111117614Y-77821985D01*
X111163000Y-77593818D01*
X111163000Y-77361182D01*
X111117614Y-77133015D01*
X111028588Y-76918087D01*
X110899342Y-76724657D01*
X110734843Y-76560158D01*
X110541413Y-76430912D01*
X110326485Y-76341886D01*
X110098318Y-76296500D01*
X109865682Y-76296500D01*
X109637515Y-76341886D01*
X109422587Y-76430912D01*
X109229157Y-76560158D01*
X109064658Y-76724657D01*
X108935412Y-76918087D01*
X108846386Y-77133015D01*
X108801000Y-77361182D01*
X108801000Y-77593818D01*
X108846386Y-77821985D01*
X108935412Y-78036913D01*
X109064658Y-78230343D01*
X109229157Y-78394842D01*
X109422587Y-78524088D01*
X109637515Y-78613114D01*
X109865682Y-78658500D01*
X110098318Y-78658500D01*
X110326485Y-78613114D01*
X110333899Y-78610043D01*
X117812001Y-86088147D01*
X117812000Y-92749555D01*
X117780293Y-92752678D01*
X117699804Y-92777095D01*
X117625624Y-92816745D01*
X117560605Y-92870105D01*
X117507245Y-92935124D01*
X117467595Y-93009304D01*
X117443178Y-93089793D01*
X117434934Y-93173500D01*
X117434934Y-95644989D01*
X115281135Y-95644989D01*
X114213066Y-94576921D01*
X114213066Y-93173500D01*
X114204822Y-93089793D01*
X114180405Y-93009304D01*
X114140755Y-92935124D01*
X114087395Y-92870105D01*
X114022376Y-92816745D01*
X113948196Y-92777095D01*
X113867707Y-92752678D01*
X113784000Y-92744434D01*
X112784000Y-92744434D01*
X112700293Y-92752678D01*
X112619804Y-92777095D01*
X112545624Y-92816745D01*
X112480605Y-92870105D01*
X112427245Y-92935124D01*
X112387595Y-93009304D01*
X112363178Y-93089793D01*
X112354934Y-93173500D01*
X112354934Y-95381789D01*
X111296000Y-94322856D01*
X111296000Y-92797445D01*
X111327707Y-92794322D01*
X111408196Y-92769905D01*
X111482376Y-92730255D01*
X111547395Y-92676895D01*
X111600755Y-92611876D01*
X111640405Y-92537696D01*
X111664822Y-92457207D01*
X111673066Y-92373500D01*
X111673066Y-89863500D01*
X111664822Y-89779793D01*
X111640405Y-89699304D01*
X111600755Y-89625124D01*
X111547395Y-89560105D01*
X111482376Y-89506745D01*
X111408196Y-89467095D01*
X111327707Y-89442678D01*
X111244000Y-89434434D01*
X110244000Y-89434434D01*
X110160293Y-89442678D01*
X110079804Y-89467095D01*
X110005624Y-89506745D01*
X109940605Y-89560105D01*
X109887245Y-89625124D01*
X109847595Y-89699304D01*
X109823178Y-89779793D01*
X109814934Y-89863500D01*
X109814934Y-92373500D01*
X109823178Y-92457207D01*
X109847595Y-92537696D01*
X109887245Y-92611876D01*
X109940605Y-92676895D01*
X110005624Y-92730255D01*
X110079804Y-92769905D01*
X110160293Y-92794322D01*
X110192000Y-92797445D01*
X110192001Y-94524384D01*
X110189330Y-94551500D01*
X110199989Y-94659710D01*
X110231552Y-94763762D01*
X110261992Y-94820711D01*
X110282810Y-94859658D01*
X110351790Y-94943711D01*
X110372852Y-94960996D01*
X112430007Y-97018153D01*
X112447289Y-97039211D01*
X112468345Y-97056491D01*
X112468346Y-97056492D01*
X112531342Y-97108191D01*
X112627237Y-97159448D01*
X112731289Y-97191012D01*
X112839500Y-97201670D01*
X112866609Y-97199000D01*
X133461856Y-97199000D01*
X135459017Y-99196162D01*
X135456731Y-99201682D01*
X135411500Y-99429076D01*
X135411500Y-99660924D01*
X135456731Y-99888318D01*
X135545456Y-100102519D01*
X135674264Y-100295294D01*
X135838206Y-100459236D01*
X136030981Y-100588044D01*
X136245182Y-100676769D01*
X136472576Y-100722000D01*
X136704424Y-100722000D01*
X136931818Y-100676769D01*
X137146019Y-100588044D01*
X137338794Y-100459236D01*
X137476132Y-100321898D01*
X140344129Y-100321898D01*
X140412068Y-100515158D01*
X140614334Y-100628483D01*
X140834822Y-100700169D01*
X141065059Y-100727463D01*
X141296196Y-100709316D01*
X141519352Y-100646424D01*
X141725950Y-100541205D01*
X141764932Y-100515158D01*
X141832871Y-100321898D01*
X141088500Y-99577527D01*
X140344129Y-100321898D01*
X137476132Y-100321898D01*
X137502736Y-100295294D01*
X137631544Y-100102519D01*
X137720269Y-99888318D01*
X137765500Y-99660924D01*
X137765500Y-99521559D01*
X139906037Y-99521559D01*
X139924184Y-99752696D01*
X139987076Y-99975852D01*
X140092295Y-100182450D01*
X140118342Y-100221432D01*
X140311602Y-100289371D01*
X141055973Y-99545000D01*
X141121027Y-99545000D01*
X141865398Y-100289371D01*
X142058658Y-100221432D01*
X142171983Y-100019166D01*
X142243669Y-99798678D01*
X142270963Y-99568441D01*
X142252816Y-99337304D01*
X142189924Y-99114148D01*
X142084705Y-98907550D01*
X142058658Y-98868568D01*
X141865398Y-98800629D01*
X141121027Y-99545000D01*
X141055973Y-99545000D01*
X140311602Y-98800629D01*
X140118342Y-98868568D01*
X140005017Y-99070834D01*
X139933331Y-99291322D01*
X139906037Y-99521559D01*
X137765500Y-99521559D01*
X137765500Y-99429076D01*
X137720269Y-99201682D01*
X137631544Y-98987481D01*
X137502736Y-98794706D01*
X137476132Y-98768102D01*
X140344129Y-98768102D01*
X141088500Y-99512473D01*
X141832871Y-98768102D01*
X141764932Y-98574842D01*
X141562666Y-98461517D01*
X141342178Y-98389831D01*
X141111941Y-98362537D01*
X140880804Y-98380684D01*
X140657648Y-98443576D01*
X140451050Y-98548795D01*
X140412068Y-98574842D01*
X140344129Y-98768102D01*
X137476132Y-98768102D01*
X137338794Y-98630764D01*
X137146019Y-98501956D01*
X136931818Y-98413231D01*
X136704424Y-98368000D01*
X136472576Y-98368000D01*
X136245182Y-98413231D01*
X136239662Y-98415517D01*
X134100001Y-96275857D01*
X134082711Y-96254789D01*
X133998658Y-96185809D01*
X133902763Y-96134552D01*
X133798711Y-96102988D01*
X133717609Y-96095000D01*
X133717606Y-96095000D01*
X133690500Y-96092330D01*
X133663394Y-96095000D01*
X126999144Y-96095000D01*
X136239662Y-86854483D01*
X136245182Y-86856769D01*
X136472576Y-86902000D01*
X136704424Y-86902000D01*
X136931818Y-86856769D01*
X136943577Y-86851898D01*
X138094129Y-86851898D01*
X138162068Y-87045158D01*
X138364334Y-87158483D01*
X138584822Y-87230169D01*
X138815059Y-87257463D01*
X139046196Y-87239316D01*
X139269352Y-87176424D01*
X139475950Y-87071205D01*
X139514932Y-87045158D01*
X139582871Y-86851898D01*
X138838500Y-86107527D01*
X138094129Y-86851898D01*
X136943577Y-86851898D01*
X137146019Y-86768044D01*
X137338794Y-86639236D01*
X137502736Y-86475294D01*
X137631544Y-86282519D01*
X137667378Y-86196008D01*
X137674184Y-86282696D01*
X137737076Y-86505852D01*
X137842295Y-86712450D01*
X137868342Y-86751432D01*
X138061602Y-86819371D01*
X138805973Y-86075000D01*
X138871027Y-86075000D01*
X139615398Y-86819371D01*
X139808658Y-86751432D01*
X139921983Y-86549166D01*
X139937350Y-86501898D01*
X140344129Y-86501898D01*
X140412068Y-86695158D01*
X140614334Y-86808483D01*
X140834822Y-86880169D01*
X141065059Y-86907463D01*
X141296196Y-86889316D01*
X141519352Y-86826424D01*
X141725950Y-86721205D01*
X141764932Y-86695158D01*
X141832871Y-86501898D01*
X141088500Y-85757527D01*
X140344129Y-86501898D01*
X139937350Y-86501898D01*
X139993669Y-86328678D01*
X140009044Y-86198986D01*
X140092295Y-86362450D01*
X140118342Y-86401432D01*
X140311602Y-86469371D01*
X141055973Y-85725000D01*
X141121027Y-85725000D01*
X141865398Y-86469371D01*
X142058658Y-86401432D01*
X142171983Y-86199166D01*
X142243669Y-85978678D01*
X142270963Y-85748441D01*
X142252816Y-85517304D01*
X142189924Y-85294148D01*
X142084705Y-85087550D01*
X142058658Y-85048568D01*
X141865398Y-84980629D01*
X141121027Y-85725000D01*
X141055973Y-85725000D01*
X140311602Y-84980629D01*
X140118342Y-85048568D01*
X140005017Y-85250834D01*
X139933331Y-85471322D01*
X139917956Y-85601014D01*
X139834705Y-85437550D01*
X139808658Y-85398568D01*
X139615398Y-85330629D01*
X138871027Y-86075000D01*
X138805973Y-86075000D01*
X138061602Y-85330629D01*
X137868342Y-85398568D01*
X137761544Y-85589185D01*
X137720269Y-85381682D01*
X137685650Y-85298102D01*
X138094129Y-85298102D01*
X138838500Y-86042473D01*
X139582871Y-85298102D01*
X139514932Y-85104842D01*
X139312666Y-84991517D01*
X139179133Y-84948102D01*
X140344129Y-84948102D01*
X141088500Y-85692473D01*
X141832871Y-84948102D01*
X141764932Y-84754842D01*
X141562666Y-84641517D01*
X141342178Y-84569831D01*
X141111941Y-84542537D01*
X140880804Y-84560684D01*
X140657648Y-84623576D01*
X140451050Y-84728795D01*
X140412068Y-84754842D01*
X140344129Y-84948102D01*
X139179133Y-84948102D01*
X139092178Y-84919831D01*
X138861941Y-84892537D01*
X138630804Y-84910684D01*
X138407648Y-84973576D01*
X138201050Y-85078795D01*
X138162068Y-85104842D01*
X138094129Y-85298102D01*
X137685650Y-85298102D01*
X137631544Y-85167481D01*
X137502736Y-84974706D01*
X137338794Y-84810764D01*
X137146019Y-84681956D01*
X136931818Y-84593231D01*
X136704424Y-84548000D01*
X136472576Y-84548000D01*
X136245182Y-84593231D01*
X136030981Y-84681956D01*
X135838206Y-84810764D01*
X135674264Y-84974706D01*
X135545456Y-85167481D01*
X135456731Y-85381682D01*
X135411500Y-85609076D01*
X135411500Y-85840924D01*
X135456731Y-86068318D01*
X135459017Y-86073838D01*
X125887867Y-95644989D01*
X119293066Y-95644989D01*
X119293066Y-93173500D01*
X119284822Y-93089793D01*
X119260405Y-93009304D01*
X119220755Y-92935124D01*
X119167395Y-92870105D01*
X119102376Y-92816745D01*
X119028196Y-92777095D01*
X118947707Y-92752678D01*
X118916000Y-92749555D01*
X118916000Y-85886605D01*
X118918670Y-85859499D01*
X118915261Y-85824891D01*
X118908012Y-85751289D01*
X118876448Y-85647237D01*
X118846427Y-85591071D01*
X120352001Y-87096647D01*
X120352000Y-89439555D01*
X120320293Y-89442678D01*
X120239804Y-89467095D01*
X120165624Y-89506745D01*
X120100605Y-89560105D01*
X120047245Y-89625124D01*
X120007595Y-89699304D01*
X119983178Y-89779793D01*
X119974934Y-89863500D01*
X119974934Y-92373500D01*
X119983178Y-92457207D01*
X120007595Y-92537696D01*
X120047245Y-92611876D01*
X120100605Y-92676895D01*
X120165624Y-92730255D01*
X120239804Y-92769905D01*
X120320293Y-92794322D01*
X120404000Y-92802566D01*
X121404000Y-92802566D01*
X121487707Y-92794322D01*
X121568196Y-92769905D01*
X121642376Y-92730255D01*
X121707395Y-92676895D01*
X121760755Y-92611876D01*
X121800405Y-92537696D01*
X121824822Y-92457207D01*
X121833066Y-92373500D01*
X121833066Y-89863500D01*
X121824822Y-89779793D01*
X121800405Y-89699304D01*
X121760755Y-89625124D01*
X121707395Y-89560105D01*
X121642376Y-89506745D01*
X121568196Y-89467095D01*
X121487707Y-89442678D01*
X121456000Y-89439555D01*
X121456000Y-87096644D01*
X126193569Y-82359076D01*
X141261500Y-82359076D01*
X141261500Y-82590924D01*
X141306731Y-82818318D01*
X141395456Y-83032519D01*
X141524264Y-83225294D01*
X141688206Y-83389236D01*
X141880981Y-83518044D01*
X142095182Y-83606769D01*
X142322576Y-83652000D01*
X142554424Y-83652000D01*
X142781818Y-83606769D01*
X142996019Y-83518044D01*
X143188794Y-83389236D01*
X143352736Y-83225294D01*
X143481544Y-83032519D01*
X143570269Y-82818318D01*
X143615500Y-82590924D01*
X143615500Y-82359076D01*
X143570269Y-82131682D01*
X143481544Y-81917481D01*
X143352736Y-81724706D01*
X143188794Y-81560764D01*
X142996019Y-81431956D01*
X142781818Y-81343231D01*
X142554424Y-81298000D01*
X142322576Y-81298000D01*
X142095182Y-81343231D01*
X141880981Y-81431956D01*
X141688206Y-81560764D01*
X141524264Y-81724706D01*
X141395456Y-81917481D01*
X141306731Y-82131682D01*
X141261500Y-82359076D01*
X126193569Y-82359076D01*
X128742992Y-79809654D01*
X128743001Y-79809643D01*
X129443568Y-79109076D01*
X135411500Y-79109076D01*
X135411500Y-79340924D01*
X135456731Y-79568318D01*
X135545456Y-79782519D01*
X135674264Y-79975294D01*
X135838206Y-80139236D01*
X136030981Y-80268044D01*
X136245182Y-80356769D01*
X136472576Y-80402000D01*
X136704424Y-80402000D01*
X136931818Y-80356769D01*
X137146019Y-80268044D01*
X137338794Y-80139236D01*
X137476132Y-80001898D01*
X140344129Y-80001898D01*
X140412068Y-80195158D01*
X140614334Y-80308483D01*
X140834822Y-80380169D01*
X141065059Y-80407463D01*
X141296196Y-80389316D01*
X141519352Y-80326424D01*
X141725950Y-80221205D01*
X141764932Y-80195158D01*
X141832871Y-80001898D01*
X141088500Y-79257527D01*
X140344129Y-80001898D01*
X137476132Y-80001898D01*
X137502736Y-79975294D01*
X137631544Y-79782519D01*
X137720269Y-79568318D01*
X137765500Y-79340924D01*
X137765500Y-79201559D01*
X139906037Y-79201559D01*
X139924184Y-79432696D01*
X139987076Y-79655852D01*
X140092295Y-79862450D01*
X140118342Y-79901432D01*
X140311602Y-79969371D01*
X141055973Y-79225000D01*
X141121027Y-79225000D01*
X141865398Y-79969371D01*
X142058658Y-79901432D01*
X142171983Y-79699166D01*
X142243669Y-79478678D01*
X142270963Y-79248441D01*
X142252816Y-79017304D01*
X142189924Y-78794148D01*
X142084705Y-78587550D01*
X142058658Y-78548568D01*
X141865398Y-78480629D01*
X141121027Y-79225000D01*
X141055973Y-79225000D01*
X140311602Y-78480629D01*
X140118342Y-78548568D01*
X140005017Y-78750834D01*
X139933331Y-78971322D01*
X139906037Y-79201559D01*
X137765500Y-79201559D01*
X137765500Y-79109076D01*
X137720269Y-78881682D01*
X137631544Y-78667481D01*
X137502736Y-78474706D01*
X137476132Y-78448102D01*
X140344129Y-78448102D01*
X141088500Y-79192473D01*
X141832871Y-78448102D01*
X141764932Y-78254842D01*
X141562666Y-78141517D01*
X141342178Y-78069831D01*
X141111941Y-78042537D01*
X140880804Y-78060684D01*
X140657648Y-78123576D01*
X140451050Y-78228795D01*
X140412068Y-78254842D01*
X140344129Y-78448102D01*
X137476132Y-78448102D01*
X137338794Y-78310764D01*
X137146019Y-78181956D01*
X136931818Y-78093231D01*
X136704424Y-78048000D01*
X136472576Y-78048000D01*
X136245182Y-78093231D01*
X136030981Y-78181956D01*
X135838206Y-78310764D01*
X135674264Y-78474706D01*
X135545456Y-78667481D01*
X135456731Y-78881682D01*
X135411500Y-79109076D01*
X129443568Y-79109076D01*
X132816646Y-75736000D01*
X146011856Y-75736000D01*
X147085500Y-76809646D01*
X147085501Y-79328946D01*
X146995128Y-79419319D01*
X146904623Y-79554769D01*
X146842282Y-79705273D01*
X146810500Y-79865048D01*
X146810500Y-80027952D01*
X146842282Y-80187727D01*
X146904623Y-80338231D01*
X146995128Y-80473681D01*
X147085500Y-80564053D01*
X147085501Y-99521946D01*
X146995128Y-99612319D01*
X146904623Y-99747769D01*
X146842282Y-99898273D01*
X146810500Y-100058048D01*
X146810500Y-100220952D01*
X146842282Y-100380727D01*
X146904623Y-100531231D01*
X146995128Y-100666681D01*
X147110319Y-100781872D01*
X147245769Y-100872377D01*
X147396273Y-100934718D01*
X147556048Y-100966500D01*
X147718952Y-100966500D01*
X147878727Y-100934718D01*
X148029231Y-100872377D01*
X148164681Y-100781872D01*
X148279872Y-100666681D01*
X148370377Y-100531231D01*
X148432718Y-100380727D01*
X148464500Y-100220952D01*
X148464500Y-100058048D01*
X148432718Y-99898273D01*
X148370377Y-99747769D01*
X148279872Y-99612319D01*
X148189500Y-99521947D01*
X148189500Y-89444080D01*
X153646314Y-89444080D01*
X153662556Y-96162298D01*
X153669256Y-96228684D01*
X153695308Y-96313824D01*
X153704455Y-96330838D01*
X153757344Y-96462521D01*
X153760452Y-96468983D01*
X153771253Y-96493693D01*
X154302114Y-97572059D01*
X154306852Y-97580262D01*
X154310829Y-97588865D01*
X154332079Y-97623938D01*
X155000896Y-98622622D01*
X155006672Y-98630120D01*
X155011757Y-98638129D01*
X155037459Y-98670083D01*
X155832484Y-99571538D01*
X155839204Y-99578209D01*
X155845301Y-99585472D01*
X155875003Y-99613746D01*
X156782268Y-100402137D01*
X156789814Y-100407863D01*
X156796815Y-100414253D01*
X156829996Y-100438351D01*
X157833560Y-101099823D01*
X157841803Y-101104504D01*
X157849582Y-101109908D01*
X157885658Y-101129406D01*
X158967890Y-101652340D01*
X158976674Y-101655887D01*
X158985105Y-101660218D01*
X159023443Y-101674774D01*
X160165330Y-102049981D01*
X160174498Y-102052333D01*
X160183436Y-102055514D01*
X160223362Y-102064871D01*
X161404842Y-102285761D01*
X161414244Y-102286880D01*
X161423519Y-102288850D01*
X161464332Y-102292844D01*
X162664647Y-102355536D01*
X162674123Y-102355402D01*
X162683570Y-102356127D01*
X162724553Y-102354689D01*
X163922616Y-102258081D01*
X163931992Y-102256695D01*
X163941451Y-102256164D01*
X163981876Y-102249319D01*
X163981884Y-102249318D01*
X163981887Y-102249317D01*
X165156643Y-101995107D01*
X165165741Y-101992496D01*
X165175059Y-101990717D01*
X165214231Y-101978583D01*
X166345052Y-101571235D01*
X166353733Y-101567441D01*
X166362726Y-101564447D01*
X166399949Y-101547239D01*
X167466961Y-100993911D01*
X167475060Y-100989004D01*
X167483581Y-100984846D01*
X167518201Y-100962867D01*
X168502659Y-100273281D01*
X168510039Y-100267345D01*
X168517935Y-100262097D01*
X168549344Y-100235731D01*
X169433952Y-99422002D01*
X169440478Y-99415146D01*
X169447614Y-99408897D01*
X169475261Y-99378609D01*
X170244477Y-98455033D01*
X170250043Y-98447369D01*
X170256286Y-98440235D01*
X170279683Y-98406557D01*
X170919993Y-97389360D01*
X170924496Y-97381029D01*
X170929741Y-97373131D01*
X170948479Y-97336654D01*
X171442324Y-96257496D01*
X171456293Y-96231699D01*
X171482600Y-96146637D01*
X171489499Y-96080271D01*
X171508934Y-92486883D01*
X178955700Y-92486883D01*
X178955700Y-93187117D01*
X179092309Y-93873897D01*
X179360277Y-94520829D01*
X179749307Y-95103053D01*
X180244447Y-95598193D01*
X180826671Y-95987223D01*
X181473603Y-96255191D01*
X182160383Y-96391800D01*
X182860617Y-96391800D01*
X183547397Y-96255191D01*
X184194329Y-95987223D01*
X184776553Y-95598193D01*
X185271693Y-95103053D01*
X185516043Y-94737357D01*
X192610170Y-94737357D01*
X192858165Y-95084377D01*
X193315622Y-95347272D01*
X193815579Y-95515869D01*
X194338820Y-95583690D01*
X194865239Y-95548129D01*
X195374605Y-95410551D01*
X195847343Y-95176245D01*
X195984835Y-95084377D01*
X196232830Y-94737357D01*
X194421500Y-92926027D01*
X192610170Y-94737357D01*
X185516043Y-94737357D01*
X185660723Y-94520829D01*
X185928691Y-93873897D01*
X186065300Y-93187117D01*
X186065300Y-92810820D01*
X191731310Y-92810820D01*
X191766871Y-93337239D01*
X191904449Y-93846605D01*
X192138755Y-94319343D01*
X192230623Y-94456835D01*
X192577643Y-94704830D01*
X194388973Y-92893500D01*
X194454027Y-92893500D01*
X196265357Y-94704830D01*
X196612377Y-94456835D01*
X196875272Y-93999378D01*
X197043869Y-93499421D01*
X197111690Y-92976180D01*
X197076129Y-92449761D01*
X196938551Y-91940395D01*
X196704245Y-91467657D01*
X196612377Y-91330165D01*
X196265357Y-91082170D01*
X194454027Y-92893500D01*
X194388973Y-92893500D01*
X192577643Y-91082170D01*
X192230623Y-91330165D01*
X191967728Y-91787622D01*
X191799131Y-92287579D01*
X191731310Y-92810820D01*
X186065300Y-92810820D01*
X186065300Y-92486883D01*
X185928691Y-91800103D01*
X185660723Y-91153171D01*
X185591548Y-91049643D01*
X192610170Y-91049643D01*
X194421500Y-92860973D01*
X196232830Y-91049643D01*
X195984835Y-90702623D01*
X195527378Y-90439728D01*
X195027421Y-90271131D01*
X194504180Y-90203310D01*
X193977761Y-90238871D01*
X193468395Y-90376449D01*
X192995657Y-90610755D01*
X192858165Y-90702623D01*
X192610170Y-91049643D01*
X185591548Y-91049643D01*
X185271693Y-90570947D01*
X184776553Y-90075807D01*
X184194329Y-89686777D01*
X183547397Y-89418809D01*
X182860617Y-89282200D01*
X182160383Y-89282200D01*
X181473603Y-89418809D01*
X180826671Y-89686777D01*
X180244447Y-90075807D01*
X179749307Y-90570947D01*
X179360277Y-91153171D01*
X179092309Y-91800103D01*
X178955700Y-92486883D01*
X171508934Y-92486883D01*
X171524664Y-89578741D01*
X171518483Y-89512305D01*
X171493098Y-89426963D01*
X171484611Y-89410876D01*
X171414510Y-89229679D01*
X171411752Y-89223752D01*
X171400431Y-89197139D01*
X170879229Y-88111524D01*
X170874575Y-88103279D01*
X170870680Y-88094632D01*
X170849776Y-88059352D01*
X170189572Y-87052205D01*
X170183867Y-87044647D01*
X170178864Y-87036592D01*
X170153478Y-87004386D01*
X169864723Y-86670398D01*
X196677129Y-86670398D01*
X196745068Y-86863658D01*
X196947334Y-86976983D01*
X197167822Y-87048669D01*
X197398059Y-87075963D01*
X197629196Y-87057816D01*
X197852352Y-86994924D01*
X198058950Y-86889705D01*
X198097932Y-86863658D01*
X198165871Y-86670398D01*
X197421500Y-85926027D01*
X196677129Y-86670398D01*
X169864723Y-86670398D01*
X169365872Y-86093404D01*
X169359214Y-86086664D01*
X169353193Y-86079345D01*
X169323771Y-86050779D01*
X169119895Y-85870059D01*
X196239037Y-85870059D01*
X196257184Y-86101196D01*
X196320076Y-86324352D01*
X196425295Y-86530950D01*
X196451342Y-86569932D01*
X196644602Y-86637871D01*
X197388973Y-85893500D01*
X197454027Y-85893500D01*
X198198398Y-86637871D01*
X198391658Y-86569932D01*
X198504983Y-86367666D01*
X198576669Y-86147178D01*
X198603963Y-85916941D01*
X198585816Y-85685804D01*
X198522924Y-85462648D01*
X198417705Y-85256050D01*
X198391658Y-85217068D01*
X198198398Y-85149129D01*
X197454027Y-85893500D01*
X197388973Y-85893500D01*
X196644602Y-85149129D01*
X196451342Y-85217068D01*
X196338017Y-85419334D01*
X196266331Y-85639822D01*
X196239037Y-85870059D01*
X169119895Y-85870059D01*
X168422601Y-85251965D01*
X168415112Y-85246166D01*
X168408175Y-85239707D01*
X168375233Y-85215283D01*
X168228681Y-85116602D01*
X196677129Y-85116602D01*
X197421500Y-85860973D01*
X198165871Y-85116602D01*
X198097932Y-84923342D01*
X197895666Y-84810017D01*
X197675178Y-84738331D01*
X197444941Y-84711037D01*
X197213804Y-84729184D01*
X196990648Y-84792076D01*
X196784050Y-84897295D01*
X196745068Y-84923342D01*
X196677129Y-85116602D01*
X168228681Y-85116602D01*
X167376331Y-84542671D01*
X167368139Y-84537912D01*
X167360409Y-84532428D01*
X167324527Y-84512576D01*
X166245443Y-83977984D01*
X166236689Y-83974349D01*
X166228306Y-83969937D01*
X166190113Y-83955005D01*
X165049804Y-83567825D01*
X165040659Y-83565382D01*
X165031754Y-83562114D01*
X164991922Y-83552365D01*
X163810424Y-83319399D01*
X163801025Y-83318186D01*
X163791778Y-83316127D01*
X163751006Y-83311731D01*
X162549074Y-83237071D01*
X162539604Y-83237112D01*
X162530158Y-83236293D01*
X162489163Y-83237328D01*
X161287916Y-83322289D01*
X161278530Y-83323583D01*
X161269064Y-83324020D01*
X161228565Y-83330467D01*
X160049108Y-83573555D01*
X160039985Y-83576076D01*
X160030650Y-83577763D01*
X159991360Y-83589510D01*
X158854414Y-83986452D01*
X158845700Y-83990159D01*
X158836674Y-83993065D01*
X158799283Y-84009906D01*
X157724821Y-84553730D01*
X157716674Y-84558557D01*
X157708112Y-84562631D01*
X157673277Y-84584268D01*
X156680179Y-85265419D01*
X156672740Y-85271283D01*
X156664794Y-85276452D01*
X156633127Y-85302506D01*
X155738838Y-86109017D01*
X155732240Y-86115813D01*
X155725047Y-86121988D01*
X155697104Y-86152002D01*
X154917338Y-87069703D01*
X154911699Y-87077309D01*
X154905383Y-87084384D01*
X154881655Y-87117830D01*
X154230111Y-88130600D01*
X154225526Y-88138888D01*
X154220204Y-88146732D01*
X154201107Y-88183022D01*
X153693971Y-89262971D01*
X153678334Y-89292397D01*
X153652694Y-89377663D01*
X153646314Y-89444080D01*
X148189500Y-89444080D01*
X148189500Y-80564053D01*
X148279872Y-80473681D01*
X148370377Y-80338231D01*
X148432718Y-80187727D01*
X148464500Y-80027952D01*
X148464500Y-79865048D01*
X148432718Y-79705273D01*
X148370377Y-79554769D01*
X148279872Y-79419319D01*
X148189500Y-79328947D01*
X148189500Y-76608097D01*
X148192169Y-76580999D01*
X148189500Y-76553901D01*
X148189500Y-76553891D01*
X148181512Y-76472789D01*
X148149948Y-76368737D01*
X148114639Y-76302678D01*
X148098691Y-76272841D01*
X148046991Y-76209845D01*
X148029711Y-76188789D01*
X148008654Y-76171508D01*
X146650000Y-74812856D01*
X146632711Y-74791789D01*
X146548658Y-74722809D01*
X146452763Y-74671552D01*
X146348711Y-74639988D01*
X146267609Y-74632000D01*
X146267606Y-74632000D01*
X146240500Y-74629330D01*
X146213394Y-74632000D01*
X132615108Y-74632000D01*
X132588000Y-74629330D01*
X132560891Y-74632000D01*
X132479789Y-74639988D01*
X132375737Y-74671552D01*
X132279842Y-74722809D01*
X132195789Y-74791789D01*
X132178508Y-74812846D01*
X127962357Y-79028999D01*
X127962346Y-79029008D01*
X120904001Y-86087355D01*
X119233500Y-84416856D01*
X119233500Y-77987707D01*
X119995000Y-77987707D01*
X119995000Y-78367293D01*
X120069053Y-78739585D01*
X120214315Y-79090277D01*
X120425201Y-79405891D01*
X120693609Y-79674299D01*
X121009223Y-79885185D01*
X121359915Y-80030447D01*
X121732207Y-80104500D01*
X122111793Y-80104500D01*
X122484085Y-80030447D01*
X122834777Y-79885185D01*
X123150391Y-79674299D01*
X123418799Y-79405891D01*
X123629685Y-79090277D01*
X123774947Y-78739585D01*
X123849000Y-78367293D01*
X123849000Y-77987707D01*
X123774947Y-77615415D01*
X123629685Y-77264723D01*
X123418799Y-76949109D01*
X123150391Y-76680701D01*
X122834777Y-76469815D01*
X122484085Y-76324553D01*
X122111793Y-76250500D01*
X121732207Y-76250500D01*
X121359915Y-76324553D01*
X121009223Y-76469815D01*
X120693609Y-76680701D01*
X120425201Y-76949109D01*
X120214315Y-77264723D01*
X120069053Y-77615415D01*
X119995000Y-77987707D01*
X119233500Y-77987707D01*
X119233500Y-76989105D01*
X119236170Y-76961999D01*
X119231845Y-76918087D01*
X119225512Y-76853789D01*
X119193948Y-76749737D01*
X119142691Y-76653842D01*
X119073711Y-76569789D01*
X119052654Y-76552508D01*
X115916001Y-73415856D01*
X115898711Y-73394789D01*
X115814658Y-73325809D01*
X115718763Y-73274552D01*
X115614711Y-73242988D01*
X115533609Y-73235000D01*
X115533606Y-73235000D01*
X115506500Y-73232330D01*
X115479394Y-73235000D01*
X107151608Y-73235000D01*
X107124500Y-73232330D01*
X107097391Y-73235000D01*
X107016289Y-73242988D01*
X106912237Y-73274552D01*
X106816342Y-73325809D01*
X106732289Y-73394789D01*
X106715008Y-73415846D01*
X104902001Y-75228855D01*
X103152500Y-73479356D01*
X103135211Y-73458289D01*
X103051158Y-73389309D01*
X102955263Y-73338052D01*
X102851211Y-73306488D01*
X102770109Y-73298500D01*
X102770106Y-73298500D01*
X102743000Y-73295830D01*
X102715894Y-73298500D01*
X83675553Y-73298500D01*
X83585181Y-73208128D01*
X83449731Y-73117623D01*
X83299227Y-73055282D01*
X83139452Y-73023500D01*
X82976548Y-73023500D01*
X82816773Y-73055282D01*
X82666269Y-73117623D01*
X82530819Y-73208128D01*
X82415628Y-73323319D01*
X82325123Y-73458769D01*
X82262782Y-73609273D01*
X82231000Y-73769048D01*
X72969000Y-73769048D01*
X72969000Y-72270500D01*
X220147001Y-72270500D01*
X220147000Y-113467000D01*
G37*
X220147000Y-113467000D02*
X72969000Y-113467000D01*
X72969000Y-107687707D01*
X88495000Y-107687707D01*
X88495000Y-108067293D01*
X88569053Y-108439585D01*
X88714315Y-108790277D01*
X88925201Y-109105891D01*
X89193609Y-109374299D01*
X89509223Y-109585185D01*
X89859915Y-109730447D01*
X90232207Y-109804500D01*
X90611793Y-109804500D01*
X90984085Y-109730447D01*
X91334777Y-109585185D01*
X91650391Y-109374299D01*
X91918799Y-109105891D01*
X92129685Y-108790277D01*
X92274947Y-108439585D01*
X92349000Y-108067293D01*
X92349000Y-107687707D01*
X92274947Y-107315415D01*
X92129685Y-106964723D01*
X91918799Y-106649109D01*
X91650391Y-106380701D01*
X91334777Y-106169815D01*
X90984085Y-106024553D01*
X90611793Y-105950500D01*
X90232207Y-105950500D01*
X89859915Y-106024553D01*
X89509223Y-106169815D01*
X89193609Y-106380701D01*
X88925201Y-106649109D01*
X88714315Y-106964723D01*
X88569053Y-107315415D01*
X88495000Y-107687707D01*
X72969000Y-107687707D01*
X72969000Y-93173500D01*
X102194934Y-93173500D01*
X102194934Y-95683500D01*
X102203178Y-95767207D01*
X102227595Y-95847696D01*
X102267245Y-95921876D01*
X102320605Y-95986895D01*
X102385624Y-96040255D01*
X102459804Y-96079905D01*
X102540293Y-96104322D01*
X102572481Y-96107492D01*
X102574265Y-96125599D01*
X102579989Y-96183711D01*
X102581198Y-96187697D01*
X102611552Y-96287762D01*
X102662809Y-96383657D01*
X102669492Y-96391800D01*
X102731790Y-96467711D01*
X102752852Y-96484996D01*
X118537030Y-112269176D01*
X118554310Y-112290232D01*
X118575366Y-112307512D01*
X118575367Y-112307513D01*
X118638363Y-112359212D01*
X118734258Y-112410469D01*
X118838310Y-112442033D01*
X118946521Y-112452691D01*
X118973629Y-112450021D01*
X186969373Y-112450021D01*
X186996479Y-112452691D01*
X187023585Y-112450021D01*
X187023588Y-112450021D01*
X187104690Y-112442033D01*
X187208742Y-112410469D01*
X187304637Y-112359212D01*
X187388690Y-112290232D01*
X187405980Y-112269164D01*
X195406646Y-104268500D01*
X195534452Y-104268500D01*
X195694227Y-104236718D01*
X195844731Y-104174377D01*
X195980181Y-104083872D01*
X196095372Y-103968681D01*
X196185877Y-103833231D01*
X196248218Y-103682727D01*
X196280000Y-103522952D01*
X196280000Y-103360048D01*
X196248218Y-103200273D01*
X196185877Y-103049769D01*
X196180018Y-103041000D01*
X200298894Y-103041000D01*
X200326000Y-103043670D01*
X200353106Y-103041000D01*
X200353109Y-103041000D01*
X200434211Y-103033012D01*
X200538263Y-103001448D01*
X200634158Y-102950191D01*
X200718211Y-102881211D01*
X200735500Y-102860144D01*
X202072663Y-101522983D01*
X202078182Y-101525269D01*
X202305576Y-101570500D01*
X202537424Y-101570500D01*
X202764818Y-101525269D01*
X202979019Y-101436544D01*
X203171794Y-101307736D01*
X203335736Y-101143794D01*
X203464544Y-100951019D01*
X203553269Y-100736818D01*
X203598500Y-100509424D01*
X203598500Y-100277576D01*
X203553269Y-100050182D01*
X203464544Y-99835981D01*
X203335736Y-99643206D01*
X203171794Y-99479264D01*
X202979019Y-99350456D01*
X202764818Y-99261731D01*
X202537424Y-99216500D01*
X202305576Y-99216500D01*
X202078182Y-99261731D01*
X201863981Y-99350456D01*
X201671206Y-99479264D01*
X201507264Y-99643206D01*
X201378456Y-99835981D01*
X201289731Y-100050182D01*
X201244500Y-100277576D01*
X201244500Y-100509424D01*
X201289731Y-100736818D01*
X201292017Y-100742337D01*
X200097356Y-101937000D01*
X196022236Y-101937000D01*
X196522654Y-101436582D01*
X196543711Y-101419301D01*
X196612691Y-101335248D01*
X196642657Y-101279187D01*
X196671206Y-101307736D01*
X196863981Y-101436544D01*
X197078182Y-101525269D01*
X197305576Y-101570500D01*
X197537424Y-101570500D01*
X197764818Y-101525269D01*
X197979019Y-101436544D01*
X198171794Y-101307736D01*
X198309132Y-101170398D01*
X199177129Y-101170398D01*
X199245068Y-101363658D01*
X199447334Y-101476983D01*
X199667822Y-101548669D01*
X199898059Y-101575963D01*
X200129196Y-101557816D01*
X200352352Y-101494924D01*
X200558950Y-101389705D01*
X200597932Y-101363658D01*
X200665871Y-101170398D01*
X199921500Y-100426027D01*
X199177129Y-101170398D01*
X198309132Y-101170398D01*
X198335736Y-101143794D01*
X198464544Y-100951019D01*
X198553269Y-100736818D01*
X198598500Y-100509424D01*
X198598500Y-100370059D01*
X198739037Y-100370059D01*
X198757184Y-100601196D01*
X198820076Y-100824352D01*
X198925295Y-101030950D01*
X198951342Y-101069932D01*
X199144602Y-101137871D01*
X199888973Y-100393500D01*
X199954027Y-100393500D01*
X200698398Y-101137871D01*
X200891658Y-101069932D01*
X201004983Y-100867666D01*
X201076669Y-100647178D01*
X201103963Y-100416941D01*
X201085816Y-100185804D01*
X201022924Y-99962648D01*
X200917705Y-99756050D01*
X200891658Y-99717068D01*
X200698398Y-99649129D01*
X199954027Y-100393500D01*
X199888973Y-100393500D01*
X199144602Y-99649129D01*
X198951342Y-99717068D01*
X198838017Y-99919334D01*
X198766331Y-100139822D01*
X198739037Y-100370059D01*
X198598500Y-100370059D01*
X198598500Y-100277576D01*
X198553269Y-100050182D01*
X198464544Y-99835981D01*
X198335736Y-99643206D01*
X198309132Y-99616602D01*
X199177129Y-99616602D01*
X199921500Y-100360973D01*
X200665871Y-99616602D01*
X200597932Y-99423342D01*
X200395666Y-99310017D01*
X200175178Y-99238331D01*
X199944941Y-99211037D01*
X199713804Y-99229184D01*
X199490648Y-99292076D01*
X199284050Y-99397295D01*
X199245068Y-99423342D01*
X199177129Y-99616602D01*
X198309132Y-99616602D01*
X198171794Y-99479264D01*
X197979019Y-99350456D01*
X197764818Y-99261731D01*
X197537424Y-99216500D01*
X197305576Y-99216500D01*
X197078182Y-99261731D01*
X196863981Y-99350456D01*
X196703500Y-99457686D01*
X196703500Y-97510644D01*
X199476787Y-94737357D01*
X203610170Y-94737357D01*
X203858165Y-95084377D01*
X204315622Y-95347272D01*
X204815579Y-95515869D01*
X205338820Y-95583690D01*
X205865239Y-95548129D01*
X206374605Y-95410551D01*
X206847343Y-95176245D01*
X206984835Y-95084377D01*
X207232830Y-94737357D01*
X205421500Y-92926027D01*
X203610170Y-94737357D01*
X199476787Y-94737357D01*
X201403325Y-92810820D01*
X202731310Y-92810820D01*
X202766871Y-93337239D01*
X202904449Y-93846605D01*
X203138755Y-94319343D01*
X203230623Y-94456835D01*
X203577643Y-94704830D01*
X205388973Y-92893500D01*
X205454027Y-92893500D01*
X207265357Y-94704830D01*
X207612377Y-94456835D01*
X207875272Y-93999378D01*
X208043869Y-93499421D01*
X208111690Y-92976180D01*
X208076129Y-92449761D01*
X207938551Y-91940395D01*
X207704245Y-91467657D01*
X207612377Y-91330165D01*
X207265357Y-91082170D01*
X205454027Y-92893500D01*
X205388973Y-92893500D01*
X203577643Y-91082170D01*
X203230623Y-91330165D01*
X202967728Y-91787622D01*
X202799131Y-92287579D01*
X202731310Y-92810820D01*
X201403325Y-92810820D01*
X202792654Y-91421492D01*
X202813711Y-91404211D01*
X202882691Y-91320158D01*
X202933948Y-91224263D01*
X202965512Y-91120211D01*
X202972462Y-91049643D01*
X203610170Y-91049643D01*
X205421500Y-92860973D01*
X207232830Y-91049643D01*
X206984835Y-90702623D01*
X206527378Y-90439728D01*
X206027421Y-90271131D01*
X205504180Y-90203310D01*
X204977761Y-90238871D01*
X204468395Y-90376449D01*
X203995657Y-90610755D01*
X203858165Y-90702623D01*
X203610170Y-91049643D01*
X202972462Y-91049643D01*
X202973500Y-91039109D01*
X202973500Y-91039107D01*
X202976170Y-91012001D01*
X202973500Y-90984895D01*
X202973500Y-86938830D01*
X202979019Y-86936544D01*
X203171794Y-86807736D01*
X203335736Y-86643794D01*
X203464544Y-86451019D01*
X203553269Y-86236818D01*
X203598500Y-86009424D01*
X203598500Y-85777576D01*
X203553269Y-85550182D01*
X203464544Y-85335981D01*
X203335736Y-85143206D01*
X203171794Y-84979264D01*
X202979019Y-84850456D01*
X202764818Y-84761731D01*
X202537424Y-84716500D01*
X202305576Y-84716500D01*
X202078182Y-84761731D01*
X201863981Y-84850456D01*
X201671206Y-84979264D01*
X201507264Y-85143206D01*
X201378456Y-85335981D01*
X201289731Y-85550182D01*
X201244500Y-85777576D01*
X201244500Y-86009424D01*
X201289731Y-86236818D01*
X201378456Y-86451019D01*
X201507264Y-86643794D01*
X201671206Y-86807736D01*
X201863981Y-86936544D01*
X201869501Y-86938830D01*
X201869500Y-90783354D01*
X195780352Y-96872504D01*
X195759290Y-96889789D01*
X195701274Y-96960482D01*
X195690309Y-96973843D01*
X195639052Y-97069738D01*
X195620277Y-97131633D01*
X195610858Y-97162685D01*
X195607489Y-97173790D01*
X195596830Y-97282000D01*
X195599501Y-97309116D01*
X195599500Y-100798444D01*
X185951946Y-110446000D01*
X121450146Y-110446000D01*
X118691853Y-107687707D01*
X119995000Y-107687707D01*
X119995000Y-108067293D01*
X120069053Y-108439585D01*
X120214315Y-108790277D01*
X120425201Y-109105891D01*
X120693609Y-109374299D01*
X121009223Y-109585185D01*
X121359915Y-109730447D01*
X121732207Y-109804500D01*
X122111793Y-109804500D01*
X122484085Y-109730447D01*
X122834777Y-109585185D01*
X123150391Y-109374299D01*
X123418799Y-109105891D01*
X123629685Y-108790277D01*
X123774947Y-108439585D01*
X123849000Y-108067293D01*
X123849000Y-107687707D01*
X123774947Y-107315415D01*
X123629685Y-106964723D01*
X123418799Y-106649109D01*
X123150391Y-106380701D01*
X122834777Y-106169815D01*
X122484085Y-106024553D01*
X122111793Y-105950500D01*
X121732207Y-105950500D01*
X121359915Y-106024553D01*
X121009223Y-106169815D01*
X120693609Y-106380701D01*
X120425201Y-106649109D01*
X120214315Y-106964723D01*
X120069053Y-107315415D01*
X119995000Y-107687707D01*
X118691853Y-107687707D01*
X116933222Y-105929076D01*
X135411500Y-105929076D01*
X135411500Y-106160924D01*
X135456731Y-106388318D01*
X135545456Y-106602519D01*
X135674264Y-106795294D01*
X135838206Y-106959236D01*
X136030981Y-107088044D01*
X136245182Y-107176769D01*
X136472576Y-107222000D01*
X136704424Y-107222000D01*
X136931818Y-107176769D01*
X136943577Y-107171898D01*
X138094129Y-107171898D01*
X138162068Y-107365158D01*
X138364334Y-107478483D01*
X138584822Y-107550169D01*
X138815059Y-107577463D01*
X139046196Y-107559316D01*
X139269352Y-107496424D01*
X139475950Y-107391205D01*
X139514932Y-107365158D01*
X139582871Y-107171898D01*
X138838500Y-106427527D01*
X138094129Y-107171898D01*
X136943577Y-107171898D01*
X137146019Y-107088044D01*
X137338794Y-106959236D01*
X137502736Y-106795294D01*
X137631544Y-106602519D01*
X137667378Y-106516008D01*
X137674184Y-106602696D01*
X137737076Y-106825852D01*
X137842295Y-107032450D01*
X137868342Y-107071432D01*
X138061602Y-107139371D01*
X138805973Y-106395000D01*
X138871027Y-106395000D01*
X139615398Y-107139371D01*
X139808658Y-107071432D01*
X139921983Y-106869166D01*
X139937350Y-106821898D01*
X140344129Y-106821898D01*
X140412068Y-107015158D01*
X140614334Y-107128483D01*
X140834822Y-107200169D01*
X141065059Y-107227463D01*
X141296196Y-107209316D01*
X141519352Y-107146424D01*
X141725950Y-107041205D01*
X141764932Y-107015158D01*
X141832871Y-106821898D01*
X141088500Y-106077527D01*
X140344129Y-106821898D01*
X139937350Y-106821898D01*
X139993669Y-106648678D01*
X140009044Y-106518986D01*
X140092295Y-106682450D01*
X140118342Y-106721432D01*
X140311602Y-106789371D01*
X141055973Y-106045000D01*
X141121027Y-106045000D01*
X141865398Y-106789371D01*
X142058658Y-106721432D01*
X142171983Y-106519166D01*
X142243669Y-106298678D01*
X142270963Y-106068441D01*
X142252816Y-105837304D01*
X142189924Y-105614148D01*
X142084705Y-105407550D01*
X142058658Y-105368568D01*
X141865398Y-105300629D01*
X141121027Y-106045000D01*
X141055973Y-106045000D01*
X140311602Y-105300629D01*
X140118342Y-105368568D01*
X140005017Y-105570834D01*
X139933331Y-105791322D01*
X139917956Y-105921014D01*
X139834705Y-105757550D01*
X139808658Y-105718568D01*
X139615398Y-105650629D01*
X138871027Y-106395000D01*
X138805973Y-106395000D01*
X138061602Y-105650629D01*
X137868342Y-105718568D01*
X137761544Y-105909185D01*
X137720269Y-105701682D01*
X137685650Y-105618102D01*
X138094129Y-105618102D01*
X138838500Y-106362473D01*
X139582871Y-105618102D01*
X139514932Y-105424842D01*
X139312666Y-105311517D01*
X139179133Y-105268102D01*
X140344129Y-105268102D01*
X141088500Y-106012473D01*
X141832871Y-105268102D01*
X141764932Y-105074842D01*
X141562666Y-104961517D01*
X141342178Y-104889831D01*
X141111941Y-104862537D01*
X140880804Y-104880684D01*
X140657648Y-104943576D01*
X140451050Y-105048795D01*
X140412068Y-105074842D01*
X140344129Y-105268102D01*
X139179133Y-105268102D01*
X139092178Y-105239831D01*
X138861941Y-105212537D01*
X138630804Y-105230684D01*
X138407648Y-105293576D01*
X138201050Y-105398795D01*
X138162068Y-105424842D01*
X138094129Y-105618102D01*
X137685650Y-105618102D01*
X137631544Y-105487481D01*
X137502736Y-105294706D01*
X137338794Y-105130764D01*
X137146019Y-105001956D01*
X136931818Y-104913231D01*
X136704424Y-104868000D01*
X136472576Y-104868000D01*
X136245182Y-104913231D01*
X136030981Y-105001956D01*
X135838206Y-105130764D01*
X135674264Y-105294706D01*
X135545456Y-105487481D01*
X135456731Y-105701682D01*
X135411500Y-105929076D01*
X116933222Y-105929076D01*
X113683222Y-102679076D01*
X141261500Y-102679076D01*
X141261500Y-102910924D01*
X141306731Y-103138318D01*
X141395456Y-103352519D01*
X141524264Y-103545294D01*
X141688206Y-103709236D01*
X141880981Y-103838044D01*
X142095182Y-103926769D01*
X142322576Y-103972000D01*
X142554424Y-103972000D01*
X142781818Y-103926769D01*
X142996019Y-103838044D01*
X143188794Y-103709236D01*
X143352736Y-103545294D01*
X143481544Y-103352519D01*
X143570269Y-103138318D01*
X143615500Y-102910924D01*
X143615500Y-102679076D01*
X143570269Y-102451682D01*
X143481544Y-102237481D01*
X143352736Y-102044706D01*
X143188794Y-101880764D01*
X142996019Y-101751956D01*
X142781818Y-101663231D01*
X142554424Y-101618000D01*
X142322576Y-101618000D01*
X142095182Y-101663231D01*
X141880981Y-101751956D01*
X141688206Y-101880764D01*
X141524264Y-102044706D01*
X141395456Y-102237481D01*
X141306731Y-102451682D01*
X141261500Y-102679076D01*
X113683222Y-102679076D01*
X108756000Y-97751856D01*
X108756000Y-96107445D01*
X108787707Y-96104322D01*
X108868196Y-96079905D01*
X108942376Y-96040255D01*
X109007395Y-95986895D01*
X109060755Y-95921876D01*
X109100405Y-95847696D01*
X109124822Y-95767207D01*
X109133066Y-95683500D01*
X109133066Y-93173500D01*
X109124822Y-93089793D01*
X109100405Y-93009304D01*
X109060755Y-92935124D01*
X109007395Y-92870105D01*
X108942376Y-92816745D01*
X108868196Y-92777095D01*
X108787707Y-92752678D01*
X108704000Y-92744434D01*
X107704000Y-92744434D01*
X107620293Y-92752678D01*
X107539804Y-92777095D01*
X107465624Y-92816745D01*
X107400605Y-92870105D01*
X107347245Y-92935124D01*
X107307595Y-93009304D01*
X107283178Y-93089793D01*
X107274934Y-93173500D01*
X107274934Y-95683500D01*
X107283178Y-95767207D01*
X107307595Y-95847696D01*
X107347245Y-95921876D01*
X107400605Y-95986895D01*
X107465624Y-96040255D01*
X107539804Y-96079905D01*
X107620293Y-96104322D01*
X107652000Y-96107445D01*
X107652001Y-97284268D01*
X106216000Y-95848267D01*
X106216000Y-92797445D01*
X106247707Y-92794322D01*
X106328196Y-92769905D01*
X106402376Y-92730255D01*
X106467395Y-92676895D01*
X106520755Y-92611876D01*
X106560405Y-92537696D01*
X106584822Y-92457207D01*
X106593066Y-92373500D01*
X106593066Y-89863500D01*
X106584822Y-89779793D01*
X106560405Y-89699304D01*
X106520755Y-89625124D01*
X106467395Y-89560105D01*
X106402376Y-89506745D01*
X106328196Y-89467095D01*
X106247707Y-89442678D01*
X106164000Y-89434434D01*
X105164000Y-89434434D01*
X105080293Y-89442678D01*
X104999804Y-89467095D01*
X104925624Y-89506745D01*
X104860605Y-89560105D01*
X104807245Y-89625124D01*
X104767595Y-89699304D01*
X104743178Y-89779793D01*
X104734934Y-89863500D01*
X104734934Y-92373500D01*
X104743178Y-92457207D01*
X104767595Y-92537696D01*
X104807245Y-92611876D01*
X104860605Y-92676895D01*
X104925624Y-92730255D01*
X104999804Y-92769905D01*
X105080293Y-92794322D01*
X105112000Y-92797445D01*
X105112001Y-96049795D01*
X105109330Y-96076911D01*
X105114126Y-96125599D01*
X105119989Y-96185122D01*
X105120770Y-96187697D01*
X105151552Y-96289173D01*
X105202809Y-96385068D01*
X105208334Y-96391800D01*
X105271790Y-96469122D01*
X105292852Y-96486407D01*
X120152464Y-111346021D01*
X119175167Y-111346021D01*
X103866233Y-96037089D01*
X103927395Y-95986895D01*
X103980755Y-95921876D01*
X104020405Y-95847696D01*
X104044822Y-95767207D01*
X104053066Y-95683500D01*
X104053066Y-93173500D01*
X104044822Y-93089793D01*
X104020405Y-93009304D01*
X103980755Y-92935124D01*
X103927395Y-92870105D01*
X103862376Y-92816745D01*
X103788196Y-92777095D01*
X103707707Y-92752678D01*
X103624000Y-92744434D01*
X102624000Y-92744434D01*
X102540293Y-92752678D01*
X102459804Y-92777095D01*
X102385624Y-92816745D01*
X102320605Y-92870105D01*
X102267245Y-92935124D01*
X102227595Y-93009304D01*
X102203178Y-93089793D01*
X102194934Y-93173500D01*
X72969000Y-93173500D01*
X72969000Y-92373500D01*
X99654934Y-92373500D01*
X99663178Y-92457207D01*
X99687595Y-92537696D01*
X99727245Y-92611876D01*
X99780605Y-92676895D01*
X99845624Y-92730255D01*
X99919804Y-92769905D01*
X100000293Y-92794322D01*
X100084000Y-92802566D01*
X100454250Y-92800500D01*
X100561000Y-92693750D01*
X100561000Y-91141500D01*
X100607000Y-91141500D01*
X100607000Y-92693750D01*
X100713750Y-92800500D01*
X101084000Y-92802566D01*
X101167707Y-92794322D01*
X101248196Y-92769905D01*
X101322376Y-92730255D01*
X101387395Y-92676895D01*
X101440755Y-92611876D01*
X101480405Y-92537696D01*
X101504822Y-92457207D01*
X101513066Y-92373500D01*
X101511000Y-91248250D01*
X101404250Y-91141500D01*
X100607000Y-91141500D01*
X100561000Y-91141500D01*
X99763750Y-91141500D01*
X99657000Y-91248250D01*
X99654934Y-92373500D01*
X72969000Y-92373500D01*
X72969000Y-89863500D01*
X99654934Y-89863500D01*
X99657000Y-90988750D01*
X99763750Y-91095500D01*
X100561000Y-91095500D01*
X100561000Y-89543250D01*
X100607000Y-89543250D01*
X100607000Y-91095500D01*
X101404250Y-91095500D01*
X101511000Y-90988750D01*
X101513066Y-89863500D01*
X101504822Y-89779793D01*
X101480405Y-89699304D01*
X101440755Y-89625124D01*
X101387395Y-89560105D01*
X101322376Y-89506745D01*
X101248196Y-89467095D01*
X101167707Y-89442678D01*
X101084000Y-89434434D01*
X100713750Y-89436500D01*
X100607000Y-89543250D01*
X100561000Y-89543250D01*
X100454250Y-89436500D01*
X100084000Y-89434434D01*
X100000293Y-89442678D01*
X99919804Y-89467095D01*
X99845624Y-89506745D01*
X99780605Y-89560105D01*
X99727245Y-89625124D01*
X99687595Y-89699304D01*
X99663178Y-89779793D01*
X99654934Y-89863500D01*
X72969000Y-89863500D01*
X72969000Y-77987707D01*
X88495000Y-77987707D01*
X88495000Y-78367293D01*
X88569053Y-78739585D01*
X88714315Y-79090277D01*
X88925201Y-79405891D01*
X89193609Y-79674299D01*
X89509223Y-79885185D01*
X89859915Y-80030447D01*
X90232207Y-80104500D01*
X90611793Y-80104500D01*
X90984085Y-80030447D01*
X91334777Y-79885185D01*
X91650391Y-79674299D01*
X91918799Y-79405891D01*
X92129685Y-79090277D01*
X92274947Y-78739585D01*
X92349000Y-78367293D01*
X92349000Y-78231500D01*
X101178934Y-78231500D01*
X101187178Y-78315207D01*
X101211595Y-78395696D01*
X101251245Y-78469876D01*
X101304605Y-78534895D01*
X101369624Y-78588255D01*
X101443804Y-78627905D01*
X101524293Y-78652322D01*
X101608000Y-78660566D01*
X102232250Y-78658500D01*
X102339000Y-78551750D01*
X102339000Y-77500500D01*
X102385000Y-77500500D01*
X102385000Y-78551750D01*
X102491750Y-78658500D01*
X103116000Y-78660566D01*
X103199707Y-78652322D01*
X103280196Y-78627905D01*
X103354376Y-78588255D01*
X103419395Y-78534895D01*
X103472755Y-78469876D01*
X103512405Y-78395696D01*
X103536822Y-78315207D01*
X103545066Y-78231500D01*
X103543000Y-77607250D01*
X103436250Y-77500500D01*
X102385000Y-77500500D01*
X102339000Y-77500500D01*
X101287750Y-77500500D01*
X101181000Y-77607250D01*
X101178934Y-78231500D01*
X92349000Y-78231500D01*
X92349000Y-77987707D01*
X92274947Y-77615415D01*
X92129685Y-77264723D01*
X91918799Y-76949109D01*
X91693190Y-76723500D01*
X101178934Y-76723500D01*
X101181000Y-77347750D01*
X101287750Y-77454500D01*
X102339000Y-77454500D01*
X102339000Y-76403250D01*
X102385000Y-76403250D01*
X102385000Y-77454500D01*
X103436250Y-77454500D01*
X103543000Y-77347750D01*
X103545066Y-76723500D01*
X103536822Y-76639793D01*
X103512405Y-76559304D01*
X103472755Y-76485124D01*
X103419395Y-76420105D01*
X103354376Y-76366745D01*
X103280196Y-76327095D01*
X103199707Y-76302678D01*
X103116000Y-76294434D01*
X102491750Y-76296500D01*
X102385000Y-76403250D01*
X102339000Y-76403250D01*
X102232250Y-76296500D01*
X101608000Y-76294434D01*
X101524293Y-76302678D01*
X101443804Y-76327095D01*
X101369624Y-76366745D01*
X101304605Y-76420105D01*
X101251245Y-76485124D01*
X101211595Y-76559304D01*
X101187178Y-76639793D01*
X101178934Y-76723500D01*
X91693190Y-76723500D01*
X91650391Y-76680701D01*
X91334777Y-76469815D01*
X90984085Y-76324553D01*
X90611793Y-76250500D01*
X90232207Y-76250500D01*
X89859915Y-76324553D01*
X89509223Y-76469815D01*
X89193609Y-76680701D01*
X88925201Y-76949109D01*
X88714315Y-77264723D01*
X88569053Y-77615415D01*
X88495000Y-77987707D01*
X72969000Y-77987707D01*
X72969000Y-73769048D01*
X82231000Y-73769048D01*
X82231000Y-73931952D01*
X82262782Y-74091727D01*
X82325123Y-74242231D01*
X82415628Y-74377681D01*
X82530819Y-74492872D01*
X82666269Y-74583377D01*
X82816773Y-74645718D01*
X82976548Y-74677500D01*
X83139452Y-74677500D01*
X83299227Y-74645718D01*
X83449731Y-74583377D01*
X83585181Y-74492872D01*
X83675553Y-74402500D01*
X102514356Y-74402500D01*
X104350000Y-76238146D01*
X104350000Y-76427841D01*
X104342587Y-76430912D01*
X104149157Y-76560158D01*
X103984658Y-76724657D01*
X103855412Y-76918087D01*
X103766386Y-77133015D01*
X103721000Y-77361182D01*
X103721000Y-77593818D01*
X103766386Y-77821985D01*
X103855412Y-78036913D01*
X103984658Y-78230343D01*
X104149157Y-78394842D01*
X104342587Y-78524088D01*
X104557515Y-78613114D01*
X104785682Y-78658500D01*
X105018318Y-78658500D01*
X105246485Y-78613114D01*
X105461413Y-78524088D01*
X105654843Y-78394842D01*
X105819342Y-78230343D01*
X105948588Y-78036913D01*
X106037614Y-77821985D01*
X106083000Y-77593818D01*
X106083000Y-77361182D01*
X106261000Y-77361182D01*
X106261000Y-77593818D01*
X106306386Y-77821985D01*
X106395412Y-78036913D01*
X106524658Y-78230343D01*
X106689157Y-78394842D01*
X106882587Y-78524088D01*
X107097515Y-78613114D01*
X107325682Y-78658500D01*
X107558318Y-78658500D01*
X107786485Y-78613114D01*
X107799202Y-78607846D01*
X115272000Y-86080646D01*
X115272001Y-89439555D01*
X115240293Y-89442678D01*
X115159804Y-89467095D01*
X115085624Y-89506745D01*
X115020605Y-89560105D01*
X114967245Y-89625124D01*
X114927595Y-89699304D01*
X114903178Y-89779793D01*
X114894934Y-89863500D01*
X114894934Y-92373500D01*
X114903178Y-92457207D01*
X114927595Y-92537696D01*
X114967245Y-92611876D01*
X115020605Y-92676895D01*
X115085624Y-92730255D01*
X115159804Y-92769905D01*
X115240293Y-92794322D01*
X115324000Y-92802566D01*
X116324000Y-92802566D01*
X116407707Y-92794322D01*
X116488196Y-92769905D01*
X116562376Y-92730255D01*
X116627395Y-92676895D01*
X116680755Y-92611876D01*
X116720405Y-92537696D01*
X116744822Y-92457207D01*
X116753066Y-92373500D01*
X116753066Y-89863500D01*
X116744822Y-89779793D01*
X116720405Y-89699304D01*
X116680755Y-89625124D01*
X116627395Y-89560105D01*
X116562376Y-89506745D01*
X116488196Y-89467095D01*
X116407707Y-89442678D01*
X116376000Y-89439555D01*
X116376000Y-85879097D01*
X116378669Y-85851999D01*
X116376000Y-85824901D01*
X116376000Y-85824891D01*
X116368012Y-85743789D01*
X116336448Y-85639737D01*
X116285191Y-85543842D01*
X116216211Y-85459789D01*
X116195154Y-85442508D01*
X108576740Y-77824096D01*
X108577614Y-77821985D01*
X108623000Y-77593818D01*
X108623000Y-77361182D01*
X108577614Y-77133015D01*
X108488588Y-76918087D01*
X108359342Y-76724657D01*
X108194843Y-76560158D01*
X108001413Y-76430912D01*
X107786485Y-76341886D01*
X107558318Y-76296500D01*
X107325682Y-76296500D01*
X107097515Y-76341886D01*
X106882587Y-76430912D01*
X106689157Y-76560158D01*
X106524658Y-76724657D01*
X106395412Y-76918087D01*
X106306386Y-77133015D01*
X106261000Y-77361182D01*
X106083000Y-77361182D01*
X106037614Y-77133015D01*
X105948588Y-76918087D01*
X105819342Y-76724657D01*
X105654843Y-76560158D01*
X105461413Y-76430912D01*
X105454000Y-76427841D01*
X105454000Y-76238144D01*
X107353146Y-74339000D01*
X115277856Y-74339000D01*
X118129501Y-77190647D01*
X118129500Y-84618394D01*
X118126830Y-84645500D01*
X118129500Y-84672606D01*
X118129500Y-84672608D01*
X118137488Y-84753710D01*
X118169052Y-84857762D01*
X118199072Y-84913926D01*
X111114543Y-77829399D01*
X111117614Y-77821985D01*
X111163000Y-77593818D01*
X111163000Y-77361182D01*
X111117614Y-77133015D01*
X111028588Y-76918087D01*
X110899342Y-76724657D01*
X110734843Y-76560158D01*
X110541413Y-76430912D01*
X110326485Y-76341886D01*
X110098318Y-76296500D01*
X109865682Y-76296500D01*
X109637515Y-76341886D01*
X109422587Y-76430912D01*
X109229157Y-76560158D01*
X109064658Y-76724657D01*
X108935412Y-76918087D01*
X108846386Y-77133015D01*
X108801000Y-77361182D01*
X108801000Y-77593818D01*
X108846386Y-77821985D01*
X108935412Y-78036913D01*
X109064658Y-78230343D01*
X109229157Y-78394842D01*
X109422587Y-78524088D01*
X109637515Y-78613114D01*
X109865682Y-78658500D01*
X110098318Y-78658500D01*
X110326485Y-78613114D01*
X110333899Y-78610043D01*
X117812001Y-86088147D01*
X117812000Y-92749555D01*
X117780293Y-92752678D01*
X117699804Y-92777095D01*
X117625624Y-92816745D01*
X117560605Y-92870105D01*
X117507245Y-92935124D01*
X117467595Y-93009304D01*
X117443178Y-93089793D01*
X117434934Y-93173500D01*
X117434934Y-95644989D01*
X115281135Y-95644989D01*
X114213066Y-94576921D01*
X114213066Y-93173500D01*
X114204822Y-93089793D01*
X114180405Y-93009304D01*
X114140755Y-92935124D01*
X114087395Y-92870105D01*
X114022376Y-92816745D01*
X113948196Y-92777095D01*
X113867707Y-92752678D01*
X113784000Y-92744434D01*
X112784000Y-92744434D01*
X112700293Y-92752678D01*
X112619804Y-92777095D01*
X112545624Y-92816745D01*
X112480605Y-92870105D01*
X112427245Y-92935124D01*
X112387595Y-93009304D01*
X112363178Y-93089793D01*
X112354934Y-93173500D01*
X112354934Y-95381789D01*
X111296000Y-94322856D01*
X111296000Y-92797445D01*
X111327707Y-92794322D01*
X111408196Y-92769905D01*
X111482376Y-92730255D01*
X111547395Y-92676895D01*
X111600755Y-92611876D01*
X111640405Y-92537696D01*
X111664822Y-92457207D01*
X111673066Y-92373500D01*
X111673066Y-89863500D01*
X111664822Y-89779793D01*
X111640405Y-89699304D01*
X111600755Y-89625124D01*
X111547395Y-89560105D01*
X111482376Y-89506745D01*
X111408196Y-89467095D01*
X111327707Y-89442678D01*
X111244000Y-89434434D01*
X110244000Y-89434434D01*
X110160293Y-89442678D01*
X110079804Y-89467095D01*
X110005624Y-89506745D01*
X109940605Y-89560105D01*
X109887245Y-89625124D01*
X109847595Y-89699304D01*
X109823178Y-89779793D01*
X109814934Y-89863500D01*
X109814934Y-92373500D01*
X109823178Y-92457207D01*
X109847595Y-92537696D01*
X109887245Y-92611876D01*
X109940605Y-92676895D01*
X110005624Y-92730255D01*
X110079804Y-92769905D01*
X110160293Y-92794322D01*
X110192000Y-92797445D01*
X110192001Y-94524384D01*
X110189330Y-94551500D01*
X110199989Y-94659710D01*
X110231552Y-94763762D01*
X110261992Y-94820711D01*
X110282810Y-94859658D01*
X110351790Y-94943711D01*
X110372852Y-94960996D01*
X112430007Y-97018153D01*
X112447289Y-97039211D01*
X112468345Y-97056491D01*
X112468346Y-97056492D01*
X112531342Y-97108191D01*
X112627237Y-97159448D01*
X112731289Y-97191012D01*
X112839500Y-97201670D01*
X112866609Y-97199000D01*
X133461856Y-97199000D01*
X135459017Y-99196162D01*
X135456731Y-99201682D01*
X135411500Y-99429076D01*
X135411500Y-99660924D01*
X135456731Y-99888318D01*
X135545456Y-100102519D01*
X135674264Y-100295294D01*
X135838206Y-100459236D01*
X136030981Y-100588044D01*
X136245182Y-100676769D01*
X136472576Y-100722000D01*
X136704424Y-100722000D01*
X136931818Y-100676769D01*
X137146019Y-100588044D01*
X137338794Y-100459236D01*
X137476132Y-100321898D01*
X140344129Y-100321898D01*
X140412068Y-100515158D01*
X140614334Y-100628483D01*
X140834822Y-100700169D01*
X141065059Y-100727463D01*
X141296196Y-100709316D01*
X141519352Y-100646424D01*
X141725950Y-100541205D01*
X141764932Y-100515158D01*
X141832871Y-100321898D01*
X141088500Y-99577527D01*
X140344129Y-100321898D01*
X137476132Y-100321898D01*
X137502736Y-100295294D01*
X137631544Y-100102519D01*
X137720269Y-99888318D01*
X137765500Y-99660924D01*
X137765500Y-99521559D01*
X139906037Y-99521559D01*
X139924184Y-99752696D01*
X139987076Y-99975852D01*
X140092295Y-100182450D01*
X140118342Y-100221432D01*
X140311602Y-100289371D01*
X141055973Y-99545000D01*
X141121027Y-99545000D01*
X141865398Y-100289371D01*
X142058658Y-100221432D01*
X142171983Y-100019166D01*
X142243669Y-99798678D01*
X142270963Y-99568441D01*
X142252816Y-99337304D01*
X142189924Y-99114148D01*
X142084705Y-98907550D01*
X142058658Y-98868568D01*
X141865398Y-98800629D01*
X141121027Y-99545000D01*
X141055973Y-99545000D01*
X140311602Y-98800629D01*
X140118342Y-98868568D01*
X140005017Y-99070834D01*
X139933331Y-99291322D01*
X139906037Y-99521559D01*
X137765500Y-99521559D01*
X137765500Y-99429076D01*
X137720269Y-99201682D01*
X137631544Y-98987481D01*
X137502736Y-98794706D01*
X137476132Y-98768102D01*
X140344129Y-98768102D01*
X141088500Y-99512473D01*
X141832871Y-98768102D01*
X141764932Y-98574842D01*
X141562666Y-98461517D01*
X141342178Y-98389831D01*
X141111941Y-98362537D01*
X140880804Y-98380684D01*
X140657648Y-98443576D01*
X140451050Y-98548795D01*
X140412068Y-98574842D01*
X140344129Y-98768102D01*
X137476132Y-98768102D01*
X137338794Y-98630764D01*
X137146019Y-98501956D01*
X136931818Y-98413231D01*
X136704424Y-98368000D01*
X136472576Y-98368000D01*
X136245182Y-98413231D01*
X136239662Y-98415517D01*
X134100001Y-96275857D01*
X134082711Y-96254789D01*
X133998658Y-96185809D01*
X133902763Y-96134552D01*
X133798711Y-96102988D01*
X133717609Y-96095000D01*
X133717606Y-96095000D01*
X133690500Y-96092330D01*
X133663394Y-96095000D01*
X126999144Y-96095000D01*
X136239662Y-86854483D01*
X136245182Y-86856769D01*
X136472576Y-86902000D01*
X136704424Y-86902000D01*
X136931818Y-86856769D01*
X136943577Y-86851898D01*
X138094129Y-86851898D01*
X138162068Y-87045158D01*
X138364334Y-87158483D01*
X138584822Y-87230169D01*
X138815059Y-87257463D01*
X139046196Y-87239316D01*
X139269352Y-87176424D01*
X139475950Y-87071205D01*
X139514932Y-87045158D01*
X139582871Y-86851898D01*
X138838500Y-86107527D01*
X138094129Y-86851898D01*
X136943577Y-86851898D01*
X137146019Y-86768044D01*
X137338794Y-86639236D01*
X137502736Y-86475294D01*
X137631544Y-86282519D01*
X137667378Y-86196008D01*
X137674184Y-86282696D01*
X137737076Y-86505852D01*
X137842295Y-86712450D01*
X137868342Y-86751432D01*
X138061602Y-86819371D01*
X138805973Y-86075000D01*
X138871027Y-86075000D01*
X139615398Y-86819371D01*
X139808658Y-86751432D01*
X139921983Y-86549166D01*
X139937350Y-86501898D01*
X140344129Y-86501898D01*
X140412068Y-86695158D01*
X140614334Y-86808483D01*
X140834822Y-86880169D01*
X141065059Y-86907463D01*
X141296196Y-86889316D01*
X141519352Y-86826424D01*
X141725950Y-86721205D01*
X141764932Y-86695158D01*
X141832871Y-86501898D01*
X141088500Y-85757527D01*
X140344129Y-86501898D01*
X139937350Y-86501898D01*
X139993669Y-86328678D01*
X140009044Y-86198986D01*
X140092295Y-86362450D01*
X140118342Y-86401432D01*
X140311602Y-86469371D01*
X141055973Y-85725000D01*
X141121027Y-85725000D01*
X141865398Y-86469371D01*
X142058658Y-86401432D01*
X142171983Y-86199166D01*
X142243669Y-85978678D01*
X142270963Y-85748441D01*
X142252816Y-85517304D01*
X142189924Y-85294148D01*
X142084705Y-85087550D01*
X142058658Y-85048568D01*
X141865398Y-84980629D01*
X141121027Y-85725000D01*
X141055973Y-85725000D01*
X140311602Y-84980629D01*
X140118342Y-85048568D01*
X140005017Y-85250834D01*
X139933331Y-85471322D01*
X139917956Y-85601014D01*
X139834705Y-85437550D01*
X139808658Y-85398568D01*
X139615398Y-85330629D01*
X138871027Y-86075000D01*
X138805973Y-86075000D01*
X138061602Y-85330629D01*
X137868342Y-85398568D01*
X137761544Y-85589185D01*
X137720269Y-85381682D01*
X137685650Y-85298102D01*
X138094129Y-85298102D01*
X138838500Y-86042473D01*
X139582871Y-85298102D01*
X139514932Y-85104842D01*
X139312666Y-84991517D01*
X139179133Y-84948102D01*
X140344129Y-84948102D01*
X141088500Y-85692473D01*
X141832871Y-84948102D01*
X141764932Y-84754842D01*
X141562666Y-84641517D01*
X141342178Y-84569831D01*
X141111941Y-84542537D01*
X140880804Y-84560684D01*
X140657648Y-84623576D01*
X140451050Y-84728795D01*
X140412068Y-84754842D01*
X140344129Y-84948102D01*
X139179133Y-84948102D01*
X139092178Y-84919831D01*
X138861941Y-84892537D01*
X138630804Y-84910684D01*
X138407648Y-84973576D01*
X138201050Y-85078795D01*
X138162068Y-85104842D01*
X138094129Y-85298102D01*
X137685650Y-85298102D01*
X137631544Y-85167481D01*
X137502736Y-84974706D01*
X137338794Y-84810764D01*
X137146019Y-84681956D01*
X136931818Y-84593231D01*
X136704424Y-84548000D01*
X136472576Y-84548000D01*
X136245182Y-84593231D01*
X136030981Y-84681956D01*
X135838206Y-84810764D01*
X135674264Y-84974706D01*
X135545456Y-85167481D01*
X135456731Y-85381682D01*
X135411500Y-85609076D01*
X135411500Y-85840924D01*
X135456731Y-86068318D01*
X135459017Y-86073838D01*
X125887867Y-95644989D01*
X119293066Y-95644989D01*
X119293066Y-93173500D01*
X119284822Y-93089793D01*
X119260405Y-93009304D01*
X119220755Y-92935124D01*
X119167395Y-92870105D01*
X119102376Y-92816745D01*
X119028196Y-92777095D01*
X118947707Y-92752678D01*
X118916000Y-92749555D01*
X118916000Y-85886605D01*
X118918670Y-85859499D01*
X118915261Y-85824891D01*
X118908012Y-85751289D01*
X118876448Y-85647237D01*
X118846427Y-85591071D01*
X120352001Y-87096647D01*
X120352000Y-89439555D01*
X120320293Y-89442678D01*
X120239804Y-89467095D01*
X120165624Y-89506745D01*
X120100605Y-89560105D01*
X120047245Y-89625124D01*
X120007595Y-89699304D01*
X119983178Y-89779793D01*
X119974934Y-89863500D01*
X119974934Y-92373500D01*
X119983178Y-92457207D01*
X120007595Y-92537696D01*
X120047245Y-92611876D01*
X120100605Y-92676895D01*
X120165624Y-92730255D01*
X120239804Y-92769905D01*
X120320293Y-92794322D01*
X120404000Y-92802566D01*
X121404000Y-92802566D01*
X121487707Y-92794322D01*
X121568196Y-92769905D01*
X121642376Y-92730255D01*
X121707395Y-92676895D01*
X121760755Y-92611876D01*
X121800405Y-92537696D01*
X121824822Y-92457207D01*
X121833066Y-92373500D01*
X121833066Y-89863500D01*
X121824822Y-89779793D01*
X121800405Y-89699304D01*
X121760755Y-89625124D01*
X121707395Y-89560105D01*
X121642376Y-89506745D01*
X121568196Y-89467095D01*
X121487707Y-89442678D01*
X121456000Y-89439555D01*
X121456000Y-87096644D01*
X126193569Y-82359076D01*
X141261500Y-82359076D01*
X141261500Y-82590924D01*
X141306731Y-82818318D01*
X141395456Y-83032519D01*
X141524264Y-83225294D01*
X141688206Y-83389236D01*
X141880981Y-83518044D01*
X142095182Y-83606769D01*
X142322576Y-83652000D01*
X142554424Y-83652000D01*
X142781818Y-83606769D01*
X142996019Y-83518044D01*
X143188794Y-83389236D01*
X143352736Y-83225294D01*
X143481544Y-83032519D01*
X143570269Y-82818318D01*
X143615500Y-82590924D01*
X143615500Y-82359076D01*
X143570269Y-82131682D01*
X143481544Y-81917481D01*
X143352736Y-81724706D01*
X143188794Y-81560764D01*
X142996019Y-81431956D01*
X142781818Y-81343231D01*
X142554424Y-81298000D01*
X142322576Y-81298000D01*
X142095182Y-81343231D01*
X141880981Y-81431956D01*
X141688206Y-81560764D01*
X141524264Y-81724706D01*
X141395456Y-81917481D01*
X141306731Y-82131682D01*
X141261500Y-82359076D01*
X126193569Y-82359076D01*
X128742992Y-79809654D01*
X128743001Y-79809643D01*
X129443568Y-79109076D01*
X135411500Y-79109076D01*
X135411500Y-79340924D01*
X135456731Y-79568318D01*
X135545456Y-79782519D01*
X135674264Y-79975294D01*
X135838206Y-80139236D01*
X136030981Y-80268044D01*
X136245182Y-80356769D01*
X136472576Y-80402000D01*
X136704424Y-80402000D01*
X136931818Y-80356769D01*
X137146019Y-80268044D01*
X137338794Y-80139236D01*
X137476132Y-80001898D01*
X140344129Y-80001898D01*
X140412068Y-80195158D01*
X140614334Y-80308483D01*
X140834822Y-80380169D01*
X141065059Y-80407463D01*
X141296196Y-80389316D01*
X141519352Y-80326424D01*
X141725950Y-80221205D01*
X141764932Y-80195158D01*
X141832871Y-80001898D01*
X141088500Y-79257527D01*
X140344129Y-80001898D01*
X137476132Y-80001898D01*
X137502736Y-79975294D01*
X137631544Y-79782519D01*
X137720269Y-79568318D01*
X137765500Y-79340924D01*
X137765500Y-79201559D01*
X139906037Y-79201559D01*
X139924184Y-79432696D01*
X139987076Y-79655852D01*
X140092295Y-79862450D01*
X140118342Y-79901432D01*
X140311602Y-79969371D01*
X141055973Y-79225000D01*
X141121027Y-79225000D01*
X141865398Y-79969371D01*
X142058658Y-79901432D01*
X142171983Y-79699166D01*
X142243669Y-79478678D01*
X142270963Y-79248441D01*
X142252816Y-79017304D01*
X142189924Y-78794148D01*
X142084705Y-78587550D01*
X142058658Y-78548568D01*
X141865398Y-78480629D01*
X141121027Y-79225000D01*
X141055973Y-79225000D01*
X140311602Y-78480629D01*
X140118342Y-78548568D01*
X140005017Y-78750834D01*
X139933331Y-78971322D01*
X139906037Y-79201559D01*
X137765500Y-79201559D01*
X137765500Y-79109076D01*
X137720269Y-78881682D01*
X137631544Y-78667481D01*
X137502736Y-78474706D01*
X137476132Y-78448102D01*
X140344129Y-78448102D01*
X141088500Y-79192473D01*
X141832871Y-78448102D01*
X141764932Y-78254842D01*
X141562666Y-78141517D01*
X141342178Y-78069831D01*
X141111941Y-78042537D01*
X140880804Y-78060684D01*
X140657648Y-78123576D01*
X140451050Y-78228795D01*
X140412068Y-78254842D01*
X140344129Y-78448102D01*
X137476132Y-78448102D01*
X137338794Y-78310764D01*
X137146019Y-78181956D01*
X136931818Y-78093231D01*
X136704424Y-78048000D01*
X136472576Y-78048000D01*
X136245182Y-78093231D01*
X136030981Y-78181956D01*
X135838206Y-78310764D01*
X135674264Y-78474706D01*
X135545456Y-78667481D01*
X135456731Y-78881682D01*
X135411500Y-79109076D01*
X129443568Y-79109076D01*
X132816646Y-75736000D01*
X146011856Y-75736000D01*
X147085500Y-76809646D01*
X147085501Y-79328946D01*
X146995128Y-79419319D01*
X146904623Y-79554769D01*
X146842282Y-79705273D01*
X146810500Y-79865048D01*
X146810500Y-80027952D01*
X146842282Y-80187727D01*
X146904623Y-80338231D01*
X146995128Y-80473681D01*
X147085500Y-80564053D01*
X147085501Y-99521946D01*
X146995128Y-99612319D01*
X146904623Y-99747769D01*
X146842282Y-99898273D01*
X146810500Y-100058048D01*
X146810500Y-100220952D01*
X146842282Y-100380727D01*
X146904623Y-100531231D01*
X146995128Y-100666681D01*
X147110319Y-100781872D01*
X147245769Y-100872377D01*
X147396273Y-100934718D01*
X147556048Y-100966500D01*
X147718952Y-100966500D01*
X147878727Y-100934718D01*
X148029231Y-100872377D01*
X148164681Y-100781872D01*
X148279872Y-100666681D01*
X148370377Y-100531231D01*
X148432718Y-100380727D01*
X148464500Y-100220952D01*
X148464500Y-100058048D01*
X148432718Y-99898273D01*
X148370377Y-99747769D01*
X148279872Y-99612319D01*
X148189500Y-99521947D01*
X148189500Y-89444080D01*
X153646314Y-89444080D01*
X153662556Y-96162298D01*
X153669256Y-96228684D01*
X153695308Y-96313824D01*
X153704455Y-96330838D01*
X153757344Y-96462521D01*
X153760452Y-96468983D01*
X153771253Y-96493693D01*
X154302114Y-97572059D01*
X154306852Y-97580262D01*
X154310829Y-97588865D01*
X154332079Y-97623938D01*
X155000896Y-98622622D01*
X155006672Y-98630120D01*
X155011757Y-98638129D01*
X155037459Y-98670083D01*
X155832484Y-99571538D01*
X155839204Y-99578209D01*
X155845301Y-99585472D01*
X155875003Y-99613746D01*
X156782268Y-100402137D01*
X156789814Y-100407863D01*
X156796815Y-100414253D01*
X156829996Y-100438351D01*
X157833560Y-101099823D01*
X157841803Y-101104504D01*
X157849582Y-101109908D01*
X157885658Y-101129406D01*
X158967890Y-101652340D01*
X158976674Y-101655887D01*
X158985105Y-101660218D01*
X159023443Y-101674774D01*
X160165330Y-102049981D01*
X160174498Y-102052333D01*
X160183436Y-102055514D01*
X160223362Y-102064871D01*
X161404842Y-102285761D01*
X161414244Y-102286880D01*
X161423519Y-102288850D01*
X161464332Y-102292844D01*
X162664647Y-102355536D01*
X162674123Y-102355402D01*
X162683570Y-102356127D01*
X162724553Y-102354689D01*
X163922616Y-102258081D01*
X163931992Y-102256695D01*
X163941451Y-102256164D01*
X163981876Y-102249319D01*
X163981884Y-102249318D01*
X163981887Y-102249317D01*
X165156643Y-101995107D01*
X165165741Y-101992496D01*
X165175059Y-101990717D01*
X165214231Y-101978583D01*
X166345052Y-101571235D01*
X166353733Y-101567441D01*
X166362726Y-101564447D01*
X166399949Y-101547239D01*
X167466961Y-100993911D01*
X167475060Y-100989004D01*
X167483581Y-100984846D01*
X167518201Y-100962867D01*
X168502659Y-100273281D01*
X168510039Y-100267345D01*
X168517935Y-100262097D01*
X168549344Y-100235731D01*
X169433952Y-99422002D01*
X169440478Y-99415146D01*
X169447614Y-99408897D01*
X169475261Y-99378609D01*
X170244477Y-98455033D01*
X170250043Y-98447369D01*
X170256286Y-98440235D01*
X170279683Y-98406557D01*
X170919993Y-97389360D01*
X170924496Y-97381029D01*
X170929741Y-97373131D01*
X170948479Y-97336654D01*
X171442324Y-96257496D01*
X171456293Y-96231699D01*
X171482600Y-96146637D01*
X171489499Y-96080271D01*
X171508934Y-92486883D01*
X178955700Y-92486883D01*
X178955700Y-93187117D01*
X179092309Y-93873897D01*
X179360277Y-94520829D01*
X179749307Y-95103053D01*
X180244447Y-95598193D01*
X180826671Y-95987223D01*
X181473603Y-96255191D01*
X182160383Y-96391800D01*
X182860617Y-96391800D01*
X183547397Y-96255191D01*
X184194329Y-95987223D01*
X184776553Y-95598193D01*
X185271693Y-95103053D01*
X185516043Y-94737357D01*
X192610170Y-94737357D01*
X192858165Y-95084377D01*
X193315622Y-95347272D01*
X193815579Y-95515869D01*
X194338820Y-95583690D01*
X194865239Y-95548129D01*
X195374605Y-95410551D01*
X195847343Y-95176245D01*
X195984835Y-95084377D01*
X196232830Y-94737357D01*
X194421500Y-92926027D01*
X192610170Y-94737357D01*
X185516043Y-94737357D01*
X185660723Y-94520829D01*
X185928691Y-93873897D01*
X186065300Y-93187117D01*
X186065300Y-92810820D01*
X191731310Y-92810820D01*
X191766871Y-93337239D01*
X191904449Y-93846605D01*
X192138755Y-94319343D01*
X192230623Y-94456835D01*
X192577643Y-94704830D01*
X194388973Y-92893500D01*
X194454027Y-92893500D01*
X196265357Y-94704830D01*
X196612377Y-94456835D01*
X196875272Y-93999378D01*
X197043869Y-93499421D01*
X197111690Y-92976180D01*
X197076129Y-92449761D01*
X196938551Y-91940395D01*
X196704245Y-91467657D01*
X196612377Y-91330165D01*
X196265357Y-91082170D01*
X194454027Y-92893500D01*
X194388973Y-92893500D01*
X192577643Y-91082170D01*
X192230623Y-91330165D01*
X191967728Y-91787622D01*
X191799131Y-92287579D01*
X191731310Y-92810820D01*
X186065300Y-92810820D01*
X186065300Y-92486883D01*
X185928691Y-91800103D01*
X185660723Y-91153171D01*
X185591548Y-91049643D01*
X192610170Y-91049643D01*
X194421500Y-92860973D01*
X196232830Y-91049643D01*
X195984835Y-90702623D01*
X195527378Y-90439728D01*
X195027421Y-90271131D01*
X194504180Y-90203310D01*
X193977761Y-90238871D01*
X193468395Y-90376449D01*
X192995657Y-90610755D01*
X192858165Y-90702623D01*
X192610170Y-91049643D01*
X185591548Y-91049643D01*
X185271693Y-90570947D01*
X184776553Y-90075807D01*
X184194329Y-89686777D01*
X183547397Y-89418809D01*
X182860617Y-89282200D01*
X182160383Y-89282200D01*
X181473603Y-89418809D01*
X180826671Y-89686777D01*
X180244447Y-90075807D01*
X179749307Y-90570947D01*
X179360277Y-91153171D01*
X179092309Y-91800103D01*
X178955700Y-92486883D01*
X171508934Y-92486883D01*
X171524664Y-89578741D01*
X171518483Y-89512305D01*
X171493098Y-89426963D01*
X171484611Y-89410876D01*
X171414510Y-89229679D01*
X171411752Y-89223752D01*
X171400431Y-89197139D01*
X170879229Y-88111524D01*
X170874575Y-88103279D01*
X170870680Y-88094632D01*
X170849776Y-88059352D01*
X170189572Y-87052205D01*
X170183867Y-87044647D01*
X170178864Y-87036592D01*
X170153478Y-87004386D01*
X169864723Y-86670398D01*
X196677129Y-86670398D01*
X196745068Y-86863658D01*
X196947334Y-86976983D01*
X197167822Y-87048669D01*
X197398059Y-87075963D01*
X197629196Y-87057816D01*
X197852352Y-86994924D01*
X198058950Y-86889705D01*
X198097932Y-86863658D01*
X198165871Y-86670398D01*
X197421500Y-85926027D01*
X196677129Y-86670398D01*
X169864723Y-86670398D01*
X169365872Y-86093404D01*
X169359214Y-86086664D01*
X169353193Y-86079345D01*
X169323771Y-86050779D01*
X169119895Y-85870059D01*
X196239037Y-85870059D01*
X196257184Y-86101196D01*
X196320076Y-86324352D01*
X196425295Y-86530950D01*
X196451342Y-86569932D01*
X196644602Y-86637871D01*
X197388973Y-85893500D01*
X197454027Y-85893500D01*
X198198398Y-86637871D01*
X198391658Y-86569932D01*
X198504983Y-86367666D01*
X198576669Y-86147178D01*
X198603963Y-85916941D01*
X198585816Y-85685804D01*
X198522924Y-85462648D01*
X198417705Y-85256050D01*
X198391658Y-85217068D01*
X198198398Y-85149129D01*
X197454027Y-85893500D01*
X197388973Y-85893500D01*
X196644602Y-85149129D01*
X196451342Y-85217068D01*
X196338017Y-85419334D01*
X196266331Y-85639822D01*
X196239037Y-85870059D01*
X169119895Y-85870059D01*
X168422601Y-85251965D01*
X168415112Y-85246166D01*
X168408175Y-85239707D01*
X168375233Y-85215283D01*
X168228681Y-85116602D01*
X196677129Y-85116602D01*
X197421500Y-85860973D01*
X198165871Y-85116602D01*
X198097932Y-84923342D01*
X197895666Y-84810017D01*
X197675178Y-84738331D01*
X197444941Y-84711037D01*
X197213804Y-84729184D01*
X196990648Y-84792076D01*
X196784050Y-84897295D01*
X196745068Y-84923342D01*
X196677129Y-85116602D01*
X168228681Y-85116602D01*
X167376331Y-84542671D01*
X167368139Y-84537912D01*
X167360409Y-84532428D01*
X167324527Y-84512576D01*
X166245443Y-83977984D01*
X166236689Y-83974349D01*
X166228306Y-83969937D01*
X166190113Y-83955005D01*
X165049804Y-83567825D01*
X165040659Y-83565382D01*
X165031754Y-83562114D01*
X164991922Y-83552365D01*
X163810424Y-83319399D01*
X163801025Y-83318186D01*
X163791778Y-83316127D01*
X163751006Y-83311731D01*
X162549074Y-83237071D01*
X162539604Y-83237112D01*
X162530158Y-83236293D01*
X162489163Y-83237328D01*
X161287916Y-83322289D01*
X161278530Y-83323583D01*
X161269064Y-83324020D01*
X161228565Y-83330467D01*
X160049108Y-83573555D01*
X160039985Y-83576076D01*
X160030650Y-83577763D01*
X159991360Y-83589510D01*
X158854414Y-83986452D01*
X158845700Y-83990159D01*
X158836674Y-83993065D01*
X158799283Y-84009906D01*
X157724821Y-84553730D01*
X157716674Y-84558557D01*
X157708112Y-84562631D01*
X157673277Y-84584268D01*
X156680179Y-85265419D01*
X156672740Y-85271283D01*
X156664794Y-85276452D01*
X156633127Y-85302506D01*
X155738838Y-86109017D01*
X155732240Y-86115813D01*
X155725047Y-86121988D01*
X155697104Y-86152002D01*
X154917338Y-87069703D01*
X154911699Y-87077309D01*
X154905383Y-87084384D01*
X154881655Y-87117830D01*
X154230111Y-88130600D01*
X154225526Y-88138888D01*
X154220204Y-88146732D01*
X154201107Y-88183022D01*
X153693971Y-89262971D01*
X153678334Y-89292397D01*
X153652694Y-89377663D01*
X153646314Y-89444080D01*
X148189500Y-89444080D01*
X148189500Y-80564053D01*
X148279872Y-80473681D01*
X148370377Y-80338231D01*
X148432718Y-80187727D01*
X148464500Y-80027952D01*
X148464500Y-79865048D01*
X148432718Y-79705273D01*
X148370377Y-79554769D01*
X148279872Y-79419319D01*
X148189500Y-79328947D01*
X148189500Y-76608097D01*
X148192169Y-76580999D01*
X148189500Y-76553901D01*
X148189500Y-76553891D01*
X148181512Y-76472789D01*
X148149948Y-76368737D01*
X148114639Y-76302678D01*
X148098691Y-76272841D01*
X148046991Y-76209845D01*
X148029711Y-76188789D01*
X148008654Y-76171508D01*
X146650000Y-74812856D01*
X146632711Y-74791789D01*
X146548658Y-74722809D01*
X146452763Y-74671552D01*
X146348711Y-74639988D01*
X146267609Y-74632000D01*
X146267606Y-74632000D01*
X146240500Y-74629330D01*
X146213394Y-74632000D01*
X132615108Y-74632000D01*
X132588000Y-74629330D01*
X132560891Y-74632000D01*
X132479789Y-74639988D01*
X132375737Y-74671552D01*
X132279842Y-74722809D01*
X132195789Y-74791789D01*
X132178508Y-74812846D01*
X127962357Y-79028999D01*
X127962346Y-79029008D01*
X120904001Y-86087355D01*
X119233500Y-84416856D01*
X119233500Y-77987707D01*
X119995000Y-77987707D01*
X119995000Y-78367293D01*
X120069053Y-78739585D01*
X120214315Y-79090277D01*
X120425201Y-79405891D01*
X120693609Y-79674299D01*
X121009223Y-79885185D01*
X121359915Y-80030447D01*
X121732207Y-80104500D01*
X122111793Y-80104500D01*
X122484085Y-80030447D01*
X122834777Y-79885185D01*
X123150391Y-79674299D01*
X123418799Y-79405891D01*
X123629685Y-79090277D01*
X123774947Y-78739585D01*
X123849000Y-78367293D01*
X123849000Y-77987707D01*
X123774947Y-77615415D01*
X123629685Y-77264723D01*
X123418799Y-76949109D01*
X123150391Y-76680701D01*
X122834777Y-76469815D01*
X122484085Y-76324553D01*
X122111793Y-76250500D01*
X121732207Y-76250500D01*
X121359915Y-76324553D01*
X121009223Y-76469815D01*
X120693609Y-76680701D01*
X120425201Y-76949109D01*
X120214315Y-77264723D01*
X120069053Y-77615415D01*
X119995000Y-77987707D01*
X119233500Y-77987707D01*
X119233500Y-76989105D01*
X119236170Y-76961999D01*
X119231845Y-76918087D01*
X119225512Y-76853789D01*
X119193948Y-76749737D01*
X119142691Y-76653842D01*
X119073711Y-76569789D01*
X119052654Y-76552508D01*
X115916001Y-73415856D01*
X115898711Y-73394789D01*
X115814658Y-73325809D01*
X115718763Y-73274552D01*
X115614711Y-73242988D01*
X115533609Y-73235000D01*
X115533606Y-73235000D01*
X115506500Y-73232330D01*
X115479394Y-73235000D01*
X107151608Y-73235000D01*
X107124500Y-73232330D01*
X107097391Y-73235000D01*
X107016289Y-73242988D01*
X106912237Y-73274552D01*
X106816342Y-73325809D01*
X106732289Y-73394789D01*
X106715008Y-73415846D01*
X104902001Y-75228855D01*
X103152500Y-73479356D01*
X103135211Y-73458289D01*
X103051158Y-73389309D01*
X102955263Y-73338052D01*
X102851211Y-73306488D01*
X102770109Y-73298500D01*
X102770106Y-73298500D01*
X102743000Y-73295830D01*
X102715894Y-73298500D01*
X83675553Y-73298500D01*
X83585181Y-73208128D01*
X83449731Y-73117623D01*
X83299227Y-73055282D01*
X83139452Y-73023500D01*
X82976548Y-73023500D01*
X82816773Y-73055282D01*
X82666269Y-73117623D01*
X82530819Y-73208128D01*
X82415628Y-73323319D01*
X82325123Y-73458769D01*
X82262782Y-73609273D01*
X82231000Y-73769048D01*
X72969000Y-73769048D01*
X72969000Y-72270500D01*
X220147001Y-72270500D01*
X220147000Y-113467000D01*
%TD*%
M02*
