%FSLAX45Y45*%
G04 Gerber Fmt 4.5, Leading zero omitted, Abs format (unit mm)*
G04 Created by KiCad (PCBNEW (5.1.6)-1) date 2025-05-28 07:42:37*
%MOMM*%
%LPD*%
G01*
G04 APERTURE LIST*
%TA.AperFunction,Profile*%
%ADD10C,0.050000*%
%TD*%
%ADD11C,0.200000*%
%ADD12C,0.300000*%
G04 APERTURE END LIST*
D10*
X15411450Y-9613900D02*
X15409837Y-8946519D01*
X17103763Y-9605562D02*
X17107255Y-8959850D01*
X17103763Y-9605562D02*
G75*
G02*
X15411450Y-9613900I-847763J321862D01*
G01*
X15409837Y-8946519D02*
G75*
G02*
X17107255Y-8959850I846163J-330831D01*
G01*
X18561050Y-9283700D02*
G75*
G03*
X18561050Y-9283700I-310000J0D01*
G01*
X7251700Y-7181850D02*
X7251700Y-11391900D01*
X22059900Y-7181850D02*
X7251700Y-7181850D01*
X22059900Y-11391900D02*
X22059900Y-7181850D01*
X7251700Y-11391900D02*
X22059900Y-11391900D01*
D11*
X8892200Y-7667750D02*
X9192200Y-7967750D01*
X9192200Y-7667750D02*
X8892200Y-7967750D01*
X8892200Y-10637750D02*
X9192200Y-10937750D01*
X9192200Y-10637750D02*
X8892200Y-10937750D01*
X12042200Y-7667750D02*
X12342200Y-7967750D01*
X12342200Y-7667750D02*
X12042200Y-7967750D01*
X12042200Y-10637750D02*
X12342200Y-10937750D01*
X12342200Y-10637750D02*
X12042200Y-10937750D01*
D12*
X7535628Y-11860114D02*
X7535628Y-11560114D01*
X7607057Y-11560114D01*
X7649914Y-11574400D01*
X7678486Y-11602971D01*
X7692771Y-11631543D01*
X7707057Y-11688686D01*
X7707057Y-11731543D01*
X7692771Y-11788686D01*
X7678486Y-11817257D01*
X7649914Y-11845829D01*
X7607057Y-11860114D01*
X7535628Y-11860114D01*
X7835628Y-11860114D02*
X7835628Y-11660114D01*
X7835628Y-11717257D02*
X7849914Y-11688686D01*
X7864200Y-11674400D01*
X7892771Y-11660114D01*
X7921343Y-11660114D01*
X8021343Y-11860114D02*
X8021343Y-11660114D01*
X8021343Y-11560114D02*
X8007057Y-11574400D01*
X8021343Y-11588686D01*
X8035628Y-11574400D01*
X8021343Y-11560114D01*
X8021343Y-11588686D01*
X8207057Y-11860114D02*
X8178486Y-11845829D01*
X8164200Y-11817257D01*
X8164200Y-11560114D01*
X8364200Y-11860114D02*
X8335628Y-11845829D01*
X8321343Y-11817257D01*
X8321343Y-11560114D01*
X8707057Y-11860114D02*
X8707057Y-11560114D01*
X8807057Y-11774400D01*
X8907057Y-11560114D01*
X8907057Y-11860114D01*
X9178486Y-11860114D02*
X9178486Y-11702971D01*
X9164200Y-11674400D01*
X9135628Y-11660114D01*
X9078486Y-11660114D01*
X9049914Y-11674400D01*
X9178486Y-11845829D02*
X9149914Y-11860114D01*
X9078486Y-11860114D01*
X9049914Y-11845829D01*
X9035628Y-11817257D01*
X9035628Y-11788686D01*
X9049914Y-11760114D01*
X9078486Y-11745829D01*
X9149914Y-11745829D01*
X9178486Y-11731543D01*
X9321343Y-11660114D02*
X9321343Y-11960114D01*
X9321343Y-11674400D02*
X9349914Y-11660114D01*
X9407057Y-11660114D01*
X9435628Y-11674400D01*
X9449914Y-11688686D01*
X9464200Y-11717257D01*
X9464200Y-11802971D01*
X9449914Y-11831543D01*
X9435628Y-11845829D01*
X9407057Y-11860114D01*
X9349914Y-11860114D01*
X9321343Y-11845829D01*
X9592771Y-11831543D02*
X9607057Y-11845829D01*
X9592771Y-11860114D01*
X9578486Y-11845829D01*
X9592771Y-11831543D01*
X9592771Y-11860114D01*
X9592771Y-11674400D02*
X9607057Y-11688686D01*
X9592771Y-11702971D01*
X9578486Y-11688686D01*
X9592771Y-11674400D01*
X9592771Y-11702971D01*
X6949200Y-12204400D02*
X7249200Y-12504400D01*
X7249200Y-12204400D02*
X6949200Y-12504400D01*
X7507057Y-12190114D02*
X7692771Y-12190114D01*
X7592771Y-12304400D01*
X7635628Y-12304400D01*
X7664200Y-12318686D01*
X7678486Y-12332971D01*
X7692771Y-12361543D01*
X7692771Y-12432971D01*
X7678486Y-12461543D01*
X7664200Y-12475829D01*
X7635628Y-12490114D01*
X7549914Y-12490114D01*
X7521343Y-12475829D01*
X7507057Y-12461543D01*
X7821343Y-12461543D02*
X7835628Y-12475829D01*
X7821343Y-12490114D01*
X7807057Y-12475829D01*
X7821343Y-12461543D01*
X7821343Y-12490114D01*
X8021343Y-12190114D02*
X8049914Y-12190114D01*
X8078486Y-12204400D01*
X8092771Y-12218686D01*
X8107057Y-12247257D01*
X8121343Y-12304400D01*
X8121343Y-12375829D01*
X8107057Y-12432971D01*
X8092771Y-12461543D01*
X8078486Y-12475829D01*
X8049914Y-12490114D01*
X8021343Y-12490114D01*
X7992771Y-12475829D01*
X7978486Y-12461543D01*
X7964200Y-12432971D01*
X7949914Y-12375829D01*
X7949914Y-12304400D01*
X7964200Y-12247257D01*
X7978486Y-12218686D01*
X7992771Y-12204400D01*
X8021343Y-12190114D01*
X8307057Y-12190114D02*
X8335628Y-12190114D01*
X8364200Y-12204400D01*
X8378486Y-12218686D01*
X8392771Y-12247257D01*
X8407057Y-12304400D01*
X8407057Y-12375829D01*
X8392771Y-12432971D01*
X8378486Y-12461543D01*
X8364200Y-12475829D01*
X8335628Y-12490114D01*
X8307057Y-12490114D01*
X8278486Y-12475829D01*
X8264200Y-12461543D01*
X8249914Y-12432971D01*
X8235628Y-12375829D01*
X8235628Y-12304400D01*
X8249914Y-12247257D01*
X8264200Y-12218686D01*
X8278486Y-12204400D01*
X8307057Y-12190114D01*
X8535628Y-12490114D02*
X8535628Y-12290114D01*
X8535628Y-12318686D02*
X8549914Y-12304400D01*
X8578486Y-12290114D01*
X8621343Y-12290114D01*
X8649914Y-12304400D01*
X8664200Y-12332971D01*
X8664200Y-12490114D01*
X8664200Y-12332971D02*
X8678486Y-12304400D01*
X8707057Y-12290114D01*
X8749914Y-12290114D01*
X8778486Y-12304400D01*
X8792771Y-12332971D01*
X8792771Y-12490114D01*
X8935628Y-12490114D02*
X8935628Y-12290114D01*
X8935628Y-12318686D02*
X8949914Y-12304400D01*
X8978486Y-12290114D01*
X9021343Y-12290114D01*
X9049914Y-12304400D01*
X9064200Y-12332971D01*
X9064200Y-12490114D01*
X9064200Y-12332971D02*
X9078486Y-12304400D01*
X9107057Y-12290114D01*
X9149914Y-12290114D01*
X9178486Y-12304400D01*
X9192771Y-12332971D01*
X9192771Y-12490114D01*
X9778486Y-12175829D02*
X9521343Y-12561543D01*
X10164200Y-12190114D02*
X10192771Y-12190114D01*
X10221343Y-12204400D01*
X10235628Y-12218686D01*
X10249914Y-12247257D01*
X10264200Y-12304400D01*
X10264200Y-12375829D01*
X10249914Y-12432971D01*
X10235628Y-12461543D01*
X10221343Y-12475829D01*
X10192771Y-12490114D01*
X10164200Y-12490114D01*
X10135628Y-12475829D01*
X10121343Y-12461543D01*
X10107057Y-12432971D01*
X10092771Y-12375829D01*
X10092771Y-12304400D01*
X10107057Y-12247257D01*
X10121343Y-12218686D01*
X10135628Y-12204400D01*
X10164200Y-12190114D01*
X10392771Y-12461543D02*
X10407057Y-12475829D01*
X10392771Y-12490114D01*
X10378486Y-12475829D01*
X10392771Y-12461543D01*
X10392771Y-12490114D01*
X10692771Y-12490114D02*
X10521343Y-12490114D01*
X10607057Y-12490114D02*
X10607057Y-12190114D01*
X10578486Y-12232971D01*
X10549914Y-12261543D01*
X10521343Y-12275829D01*
X10978486Y-12490114D02*
X10807057Y-12490114D01*
X10892771Y-12490114D02*
X10892771Y-12190114D01*
X10864200Y-12232971D01*
X10835628Y-12261543D01*
X10807057Y-12275829D01*
X11149914Y-12318686D02*
X11121343Y-12304400D01*
X11107057Y-12290114D01*
X11092771Y-12261543D01*
X11092771Y-12247257D01*
X11107057Y-12218686D01*
X11121343Y-12204400D01*
X11149914Y-12190114D01*
X11207057Y-12190114D01*
X11235628Y-12204400D01*
X11249914Y-12218686D01*
X11264200Y-12247257D01*
X11264200Y-12261543D01*
X11249914Y-12290114D01*
X11235628Y-12304400D01*
X11207057Y-12318686D01*
X11149914Y-12318686D01*
X11121343Y-12332971D01*
X11107057Y-12347257D01*
X11092771Y-12375829D01*
X11092771Y-12432971D01*
X11107057Y-12461543D01*
X11121343Y-12475829D01*
X11149914Y-12490114D01*
X11207057Y-12490114D01*
X11235628Y-12475829D01*
X11249914Y-12461543D01*
X11264200Y-12432971D01*
X11264200Y-12375829D01*
X11249914Y-12347257D01*
X11235628Y-12332971D01*
X11207057Y-12318686D01*
X11378486Y-12190114D02*
X11378486Y-12247257D01*
X11492771Y-12190114D02*
X11492771Y-12247257D01*
X11935628Y-12604400D02*
X11921343Y-12590114D01*
X11892771Y-12547257D01*
X11878486Y-12518686D01*
X11864200Y-12475829D01*
X11849914Y-12404400D01*
X11849914Y-12347257D01*
X11864200Y-12275829D01*
X11878486Y-12232971D01*
X11892771Y-12204400D01*
X11921343Y-12161543D01*
X11935628Y-12147257D01*
X12178486Y-12290114D02*
X12178486Y-12490114D01*
X12107057Y-12175829D02*
X12035628Y-12390114D01*
X12221343Y-12390114D01*
X12564200Y-12490114D02*
X12564200Y-12190114D01*
X12692771Y-12490114D02*
X12692771Y-12332971D01*
X12678486Y-12304400D01*
X12649914Y-12290114D01*
X12607057Y-12290114D01*
X12578486Y-12304400D01*
X12564200Y-12318686D01*
X12878486Y-12490114D02*
X12849914Y-12475829D01*
X12835628Y-12461543D01*
X12821343Y-12432971D01*
X12821343Y-12347257D01*
X12835628Y-12318686D01*
X12849914Y-12304400D01*
X12878486Y-12290114D01*
X12921343Y-12290114D01*
X12949914Y-12304400D01*
X12964200Y-12318686D01*
X12978486Y-12347257D01*
X12978486Y-12432971D01*
X12964200Y-12461543D01*
X12949914Y-12475829D01*
X12921343Y-12490114D01*
X12878486Y-12490114D01*
X13149914Y-12490114D02*
X13121343Y-12475829D01*
X13107057Y-12447257D01*
X13107057Y-12190114D01*
X13378486Y-12475829D02*
X13349914Y-12490114D01*
X13292771Y-12490114D01*
X13264200Y-12475829D01*
X13249914Y-12447257D01*
X13249914Y-12332971D01*
X13264200Y-12304400D01*
X13292771Y-12290114D01*
X13349914Y-12290114D01*
X13378486Y-12304400D01*
X13392771Y-12332971D01*
X13392771Y-12361543D01*
X13249914Y-12390114D01*
X13507057Y-12475829D02*
X13535628Y-12490114D01*
X13592771Y-12490114D01*
X13621343Y-12475829D01*
X13635628Y-12447257D01*
X13635628Y-12432971D01*
X13621343Y-12404400D01*
X13592771Y-12390114D01*
X13549914Y-12390114D01*
X13521343Y-12375829D01*
X13507057Y-12347257D01*
X13507057Y-12332971D01*
X13521343Y-12304400D01*
X13549914Y-12290114D01*
X13592771Y-12290114D01*
X13621343Y-12304400D01*
X13735628Y-12604400D02*
X13749914Y-12590114D01*
X13778486Y-12547257D01*
X13792771Y-12518686D01*
X13807057Y-12475829D01*
X13821343Y-12404400D01*
X13821343Y-12347257D01*
X13807057Y-12275829D01*
X13792771Y-12232971D01*
X13778486Y-12204400D01*
X13749914Y-12161543D01*
X13735628Y-12147257D01*
X14278486Y-12604400D02*
X14264200Y-12590114D01*
X14235628Y-12547257D01*
X14221343Y-12518686D01*
X14207057Y-12475829D01*
X14192771Y-12404400D01*
X14192771Y-12347257D01*
X14207057Y-12275829D01*
X14221343Y-12232971D01*
X14235628Y-12204400D01*
X14264200Y-12161543D01*
X14278486Y-12147257D01*
X14392771Y-12290114D02*
X14392771Y-12490114D01*
X14392771Y-12318686D02*
X14407057Y-12304400D01*
X14435628Y-12290114D01*
X14478486Y-12290114D01*
X14507057Y-12304400D01*
X14521343Y-12332971D01*
X14521343Y-12490114D01*
X14707057Y-12490114D02*
X14678486Y-12475829D01*
X14664200Y-12461543D01*
X14649914Y-12432971D01*
X14649914Y-12347257D01*
X14664200Y-12318686D01*
X14678486Y-12304400D01*
X14707057Y-12290114D01*
X14749914Y-12290114D01*
X14778486Y-12304400D01*
X14792771Y-12318686D01*
X14807057Y-12347257D01*
X14807057Y-12432971D01*
X14792771Y-12461543D01*
X14778486Y-12475829D01*
X14749914Y-12490114D01*
X14707057Y-12490114D01*
X14892771Y-12290114D02*
X15007057Y-12290114D01*
X14935628Y-12190114D02*
X14935628Y-12447257D01*
X14949914Y-12475829D01*
X14978486Y-12490114D01*
X15007057Y-12490114D01*
X15335628Y-12290114D02*
X15335628Y-12590114D01*
X15335628Y-12304400D02*
X15364200Y-12290114D01*
X15421343Y-12290114D01*
X15449914Y-12304400D01*
X15464200Y-12318686D01*
X15478486Y-12347257D01*
X15478486Y-12432971D01*
X15464200Y-12461543D01*
X15449914Y-12475829D01*
X15421343Y-12490114D01*
X15364200Y-12490114D01*
X15335628Y-12475829D01*
X15649914Y-12490114D02*
X15621343Y-12475829D01*
X15607057Y-12447257D01*
X15607057Y-12190114D01*
X15892771Y-12490114D02*
X15892771Y-12332971D01*
X15878486Y-12304400D01*
X15849914Y-12290114D01*
X15792771Y-12290114D01*
X15764200Y-12304400D01*
X15892771Y-12475829D02*
X15864200Y-12490114D01*
X15792771Y-12490114D01*
X15764200Y-12475829D01*
X15749914Y-12447257D01*
X15749914Y-12418686D01*
X15764200Y-12390114D01*
X15792771Y-12375829D01*
X15864200Y-12375829D01*
X15892771Y-12361543D01*
X15992771Y-12290114D02*
X16107057Y-12290114D01*
X16035628Y-12190114D02*
X16035628Y-12447257D01*
X16049914Y-12475829D01*
X16078486Y-12490114D01*
X16107057Y-12490114D01*
X16321343Y-12475829D02*
X16292771Y-12490114D01*
X16235628Y-12490114D01*
X16207057Y-12475829D01*
X16192771Y-12447257D01*
X16192771Y-12332971D01*
X16207057Y-12304400D01*
X16235628Y-12290114D01*
X16292771Y-12290114D01*
X16321343Y-12304400D01*
X16335628Y-12332971D01*
X16335628Y-12361543D01*
X16192771Y-12390114D01*
X16592771Y-12490114D02*
X16592771Y-12190114D01*
X16592771Y-12475829D02*
X16564200Y-12490114D01*
X16507057Y-12490114D01*
X16478486Y-12475829D01*
X16464200Y-12461543D01*
X16449914Y-12432971D01*
X16449914Y-12347257D01*
X16464200Y-12318686D01*
X16478486Y-12304400D01*
X16507057Y-12290114D01*
X16564200Y-12290114D01*
X16592771Y-12304400D01*
X16707057Y-12604400D02*
X16721343Y-12590114D01*
X16749914Y-12547257D01*
X16764200Y-12518686D01*
X16778486Y-12475829D01*
X16792771Y-12404400D01*
X16792771Y-12347257D01*
X16778486Y-12275829D01*
X16764200Y-12232971D01*
X16749914Y-12204400D01*
X16721343Y-12161543D01*
X16707057Y-12147257D01*
M02*
