solid Canakit DCAR-RSP-3A5C Enclosure
facet normal -1.0 0.0 0.0
outer loop
vertex 0.0 21.5 27.0
vertex 0.0 0.0 0.0
vertex 0.0 0.0 27.0
endloop
endfacet
facet normal -1.0 0.0 0.0
outer loop
vertex 0.0 0.0 0.0
vertex 0.0 21.5 27.0
vertex 0.0 18.03589838486225 22.476381321919227
endloop
endfacet
facet normal -1.0 0.0 0.0
outer loop
vertex 0.0 0.0 0.0
vertex 0.0 18.03589838486225 22.476381321919227
vertex 0.0 17.63629669484373 21.51165750232931
endloop
endfacet
facet normal -1.0 0.0 0.0
outer loop
vertex 0.0 0.0 0.0
vertex 0.0 17.63629669484373 21.51165750232931
vertex 0.0 17.5 20.476381321919224
endloop
endfacet
facet normal -1.0 0.0 0.0
outer loop
vertex 0.0 18.03589838486225 22.476381321919227
vertex 0.0 21.5 27.0
vertex 0.0 18.671572875253815 23.304808446665415
endloop
endfacet
facet normal -1.0 0.0 0.0
outer loop
vertex 0.0 18.671572875253815 23.304808446665415
vertex 0.0 21.5 27.0
vertex 0.0 19.5 23.940482937056977
endloop
endfacet
facet normal -1.0 0.0 0.0
outer loop
vertex 0.0 19.5 23.940482937056977
vertex 0.0 21.5 27.0
vertex 0.0 20.46472381958992 24.340084627075495
endloop
endfacet
facet normal -1.0 0.0 0.0
outer loop
vertex 0.0 20.46472381958992 24.340084627075495
vertex 0.0 21.5 27.0
vertex 0.0 21.5 24.476381321919224
endloop
endfacet
facet normal -1.0 0.0 0.0
outer loop
vertex 0.0 21.5 24.476381321919224
vertex 0.0 21.5 27.0
vertex 0.0 43.0 27.0
endloop
endfacet
facet normal -1.0 0.0 0.0
outer loop
vertex 0.0 21.5 24.476381321919224
vertex 0.0 43.0 27.0
vertex 0.0 22.535276180410083 24.340084627075495
endloop
endfacet
facet normal -1.0 0.0 0.0
outer loop
vertex 0.0 22.535276180410083 24.340084627075495
vertex 0.0 43.0 27.0
vertex 0.0 23.500000000000004 23.940482937056974
endloop
endfacet
facet normal -1.0 0.0 0.0
outer loop
vertex 0.0 23.500000000000004 23.940482937056974
vertex 0.0 43.0 27.0
vertex 0.0 24.328427124746188 23.30480844666541
endloop
endfacet
facet normal -1.0 0.0 0.0
outer loop
vertex 0.0 24.328427124746188 23.30480844666541
vertex 0.0 43.0 27.0
vertex 0.0 24.964101615137753 22.476381321919224
endloop
endfacet
facet normal -1.0 0.0 0.0
outer loop
vertex 0.0 24.964101615137753 22.476381321919224
vertex 0.0 43.0 27.0
vertex 0.0 25.36370330515627 21.511657502329307
endloop
endfacet
facet normal -1.0 0.0 0.0
outer loop
vertex 0.0 25.36370330515627 21.511657502329307
vertex 0.0 43.0 27.0
vertex 0.0 25.5 20.476381321919224
endloop
endfacet
facet normal -1.0 0.0 0.0
outer loop
vertex 0.0 0.0 0.0
vertex 0.0 19.499999999999996 17.012279706781474
vertex 0.0 43.0 0.0
endloop
endfacet
facet normal -1.0 0.0 0.0
outer loop
vertex 0.0 19.499999999999996 17.012279706781474
vertex 0.0 0.0 0.0
vertex 0.0 18.671572875253812 17.647954197173036
endloop
endfacet
facet normal -1.0 0.0 0.0
outer loop
vertex 0.0 18.671572875253812 17.647954197173036
vertex 0.0 0.0 0.0
vertex 0.0 18.035898384862247 18.476381321919227
endloop
endfacet
facet normal -1.0 0.0 0.0
outer loop
vertex 0.0 18.035898384862247 18.476381321919227
vertex 0.0 0.0 0.0
vertex 0.0 17.63629669484373 19.441105141509144
endloop
endfacet
facet normal -1.0 0.0 0.0
outer loop
vertex 0.0 17.63629669484373 19.441105141509144
vertex 0.0 0.0 0.0
vertex 0.0 17.5 20.476381321919224
endloop
endfacet
facet normal -1.0 0.0 0.0
outer loop
vertex 0.0 43.0 0.0
vertex 0.0 19.499999999999996 17.012279706781474
vertex 0.0 20.464723819589913 16.612678016762953
endloop
endfacet
facet normal -1.0 0.0 0.0
outer loop
vertex 0.0 43.0 0.0
vertex 0.0 20.464723819589913 16.612678016762953
vertex 0.0 21.5 16.476381321919227
endloop
endfacet
facet normal -1.0 0.0 0.0
outer loop
vertex 0.0 43.0 0.0
vertex 0.0 21.5 16.476381321919227
vertex 0.0 22.535276180410083 16.612678016762953
endloop
endfacet
facet normal -1.0 0.0 0.0
outer loop
vertex 0.0 43.0 0.0
vertex 0.0 22.535276180410083 16.612678016762953
vertex 0.0 23.5 17.01227970678147
endloop
endfacet
facet normal -1.0 0.0 0.0
outer loop
vertex 0.0 43.0 0.0
vertex 0.0 23.5 17.01227970678147
vertex 0.0 24.328427124746188 17.647954197173036
endloop
endfacet
facet normal -1.0 0.0 0.0
outer loop
vertex 0.0 43.0 0.0
vertex 0.0 24.328427124746188 17.647954197173036
vertex 0.0 24.964101615137753 18.476381321919224
endloop
endfacet
facet normal -1.0 0.0 0.0
outer loop
vertex 0.0 43.0 0.0
vertex 0.0 24.964101615137753 18.476381321919224
vertex 0.0 25.36370330515627 19.44110514150914
endloop
endfacet
facet normal -1.0 0.0 0.0
outer loop
vertex 0.0 43.0 0.0
vertex 0.0 25.36370330515627 19.44110514150914
vertex 0.0 25.5 20.476381321919224
endloop
endfacet
facet normal -1.0 0.0 0.0
outer loop
vertex 0.0 43.0 0.0
vertex 0.0 25.5 20.476381321919224
vertex 0.0 43.0 27.0
endloop
endfacet
facet normal -0.0 1.0 0.0
outer loop
vertex 0.0 43.0 27.0
vertex 70.0 43.0 0.0
vertex 0.0 43.0 0.0
endloop
endfacet
facet normal -0.0 1.0 0.0
outer loop
vertex 70.0 43.0 0.0
vertex 0.0 43.0 27.0
vertex 70.0 43.0 27.0
endloop
endfacet
facet normal 1.0 0.0 0.0
outer loop
vertex 70.0 43.0 0.0
vertex 70.0 0.0 27.0
vertex 70.0 0.0 0.0
endloop
endfacet
facet normal 1.0 0.0 0.0
outer loop
vertex 70.0 0.0 27.0
vertex 70.0 43.0 0.0
vertex 70.0 18.5 21.0
endloop
endfacet
facet normal 1.0 0.0 0.0
outer loop
vertex 70.0 18.5 21.0
vertex 70.0 43.0 0.0
vertex 70.0 24.5 21.0
endloop
endfacet
facet normal 1.0 0.0 0.0
outer loop
vertex 70.0 24.5 21.0
vertex 70.0 43.0 0.0
vertex 70.0 24.5 27.0
endloop
endfacet
facet normal 1.0 0.0 0.0
outer loop
vertex 70.0 24.5 27.0
vertex 70.0 43.0 0.0
vertex 70.0 43.0 27.0
endloop
endfacet
facet normal 1.0 0.0 0.0
outer loop
vertex 70.0 18.5 27.0
vertex 70.0 0.0 27.0
vertex 70.0 18.5 21.0
endloop
endfacet
facet normal 0.0 0.0 -1.0
outer loop
vertex 70.0 43.0 0.0
vertex 0.0 0.0 0.0
vertex 0.0 43.0 0.0
endloop
endfacet
facet normal 0.0 0.0 -1.0
outer loop
vertex 0.0 0.0 0.0
vertex 70.0 43.0 0.0
vertex 70.0 0.0 0.0
endloop
endfacet
facet normal -0.0 -1.0 -0.0
outer loop
vertex 70.0 0.0 27.0
vertex 0.0 0.0 0.0
vertex 70.0 0.0 0.0
endloop
endfacet
facet normal -0.0 -1.0 -0.0
outer loop
vertex 0.0 0.0 0.0
vertex 70.0 0.0 27.0
vertex 0.0 0.0 27.0
endloop
endfacet
facet normal -5.3408456108861694e-18 1.0 0.0
outer loop
vertex 1.9999999999999998 1.9999999999999996 27.0
vertex 68.0 1.9999999999999998 1.9999999999999998
vertex 1.9999999999999998 1.9999999999999996 1.9999999999999998
endloop
endfacet
facet normal -5.3408456108861694e-18 1.0 0.0
outer loop
vertex 68.0 1.9999999999999998 1.9999999999999998
vertex 1.9999999999999998 1.9999999999999996 27.0
vertex 68.0 1.9999999999999998 27.0
endloop
endfacet
facet normal 1.0 -0.0 0.0
outer loop
vertex 1.9999999999999998 41.0 1.9999999999999998
vertex 1.9999999999999998 1.9999999999999996 27.0
vertex 1.9999999999999998 1.9999999999999996 1.9999999999999998
endloop
endfacet
facet normal 1.0 -0.0 0.0
outer loop
vertex 1.9999999999999998 1.9999999999999996 27.0
vertex 1.9999999999999998 41.0 1.9999999999999998
vertex 1.9999999999999998 19.499999999999996 17.012279706781474
endloop
endfacet
facet normal 1.0 -0.0 0.0
outer loop
vertex 1.9999999999999998 1.9999999999999996 27.0
vertex 1.9999999999999998 19.499999999999996 17.012279706781474
vertex 1.9999999999999998 18.671572875253812 17.647954197173036
endloop
endfacet
facet normal 1.0 -0.0 0.0
outer loop
vertex 1.9999999999999998 1.9999999999999996 27.0
vertex 1.9999999999999998 18.671572875253812 17.647954197173036
vertex 1.9999999999999998 18.035898384862247 18.476381321919227
endloop
endfacet
facet normal 1.0 -0.0 0.0
outer loop
vertex 1.9999999999999998 1.9999999999999996 27.0
vertex 1.9999999999999998 18.035898384862247 18.476381321919227
vertex 1.9999999999999998 17.63629669484373 19.441105141509144
endloop
endfacet
facet normal 1.0 -0.0 0.0
outer loop
vertex 1.9999999999999998 1.9999999999999996 27.0
vertex 1.9999999999999998 17.63629669484373 19.441105141509144
vertex 1.9999999999999998 17.5 20.476381321919224
endloop
endfacet
facet normal 1.0 -0.0 0.0
outer loop
vertex 1.9999999999999998 19.499999999999996 17.012279706781474
vertex 1.9999999999999998 41.0 1.9999999999999998
vertex 1.9999999999999998 20.464723819589913 16.612678016762953
endloop
endfacet
facet normal 1.0 -0.0 0.0
outer loop
vertex 1.9999999999999998 20.464723819589913 16.612678016762953
vertex 1.9999999999999998 41.0 1.9999999999999998
vertex 1.9999999999999998 21.5 16.476381321919227
endloop
endfacet
facet normal 1.0 -0.0 0.0
outer loop
vertex 1.9999999999999998 21.5 16.476381321919227
vertex 1.9999999999999998 41.0 1.9999999999999998
vertex 1.9999999999999998 22.535276180410083 16.612678016762953
endloop
endfacet
facet normal 1.0 -0.0 0.0
outer loop
vertex 1.9999999999999998 22.535276180410083 16.612678016762953
vertex 1.9999999999999998 41.0 1.9999999999999998
vertex 1.9999999999999998 23.5 17.01227970678147
endloop
endfacet
facet normal 1.0 -0.0 0.0
outer loop
vertex 1.9999999999999998 23.5 17.01227970678147
vertex 1.9999999999999998 41.0 1.9999999999999998
vertex 1.9999999999999998 24.328427124746188 17.647954197173036
endloop
endfacet
facet normal 1.0 -0.0 0.0
outer loop
vertex 1.9999999999999998 24.328427124746188 17.647954197173036
vertex 1.9999999999999998 41.0 1.9999999999999998
vertex 1.9999999999999998 24.964101615137753 18.476381321919224
endloop
endfacet
facet normal 1.0 -0.0 0.0
outer loop
vertex 1.9999999999999998 24.964101615137753 18.476381321919224
vertex 1.9999999999999998 41.0 1.9999999999999998
vertex 1.9999999999999998 25.36370330515627 19.44110514150914
endloop
endfacet
facet normal 1.0 -0.0 0.0
outer loop
vertex 1.9999999999999998 25.36370330515627 19.44110514150914
vertex 1.9999999999999998 41.0 1.9999999999999998
vertex 1.9999999999999998 25.5 20.476381321919224
endloop
endfacet
facet normal 1.0 -0.0 0.0
outer loop
vertex 1.9999999999999998 1.9999999999999996 27.0
vertex 1.9999999999999998 21.5 24.476381321919224
vertex 1.9999999999999998 41.0 27.0
endloop
endfacet
facet normal 1.0 -0.0 0.0
outer loop
vertex 1.9999999999999998 21.5 24.476381321919224
vertex 1.9999999999999998 1.9999999999999996 27.0
vertex 1.9999999999999998 20.46472381958992 24.340084627075495
endloop
endfacet
facet normal 1.0 -0.0 0.0
outer loop
vertex 1.9999999999999998 20.46472381958992 24.340084627075495
vertex 1.9999999999999998 1.9999999999999996 27.0
vertex 1.9999999999999998 19.5 23.940482937056977
endloop
endfacet
facet normal 1.0 -0.0 0.0
outer loop
vertex 1.9999999999999998 19.5 23.940482937056977
vertex 1.9999999999999998 1.9999999999999996 27.0
vertex 1.9999999999999998 18.671572875253815 23.304808446665415
endloop
endfacet
facet normal 1.0 -0.0 0.0
outer loop
vertex 1.9999999999999998 18.671572875253815 23.304808446665415
vertex 1.9999999999999998 1.9999999999999996 27.0
vertex 1.9999999999999998 18.03589838486225 22.476381321919227
endloop
endfacet
facet normal 1.0 -0.0 0.0
outer loop
vertex 1.9999999999999998 18.03589838486225 22.476381321919227
vertex 1.9999999999999998 1.9999999999999996 27.0
vertex 1.9999999999999998 17.63629669484373 21.51165750232931
endloop
endfacet
facet normal 1.0 -0.0 0.0
outer loop
vertex 1.9999999999999998 17.63629669484373 21.51165750232931
vertex 1.9999999999999998 1.9999999999999996 27.0
vertex 1.9999999999999998 17.5 20.476381321919224
endloop
endfacet
facet normal 1.0 -0.0 0.0
outer loop
vertex 1.9999999999999998 41.0 27.0
vertex 1.9999999999999998 21.5 24.476381321919224
vertex 1.9999999999999998 22.535276180410083 24.340084627075495
endloop
endfacet
facet normal 1.0 -0.0 0.0
outer loop
vertex 1.9999999999999998 41.0 27.0
vertex 1.9999999999999998 22.535276180410083 24.340084627075495
vertex 1.9999999999999998 23.500000000000004 23.940482937056974
endloop
endfacet
facet normal 1.0 -0.0 0.0
outer loop
vertex 1.9999999999999998 41.0 27.0
vertex 1.9999999999999998 23.500000000000004 23.940482937056974
vertex 1.9999999999999998 24.328427124746188 23.30480844666541
endloop
endfacet
facet normal 1.0 -0.0 0.0
outer loop
vertex 1.9999999999999998 41.0 27.0
vertex 1.9999999999999998 24.328427124746188 23.30480844666541
vertex 1.9999999999999998 24.964101615137753 22.476381321919224
endloop
endfacet
facet normal 1.0 -0.0 0.0
outer loop
vertex 1.9999999999999998 41.0 27.0
vertex 1.9999999999999998 24.964101615137753 22.476381321919224
vertex 1.9999999999999998 25.36370330515627 21.511657502329307
endloop
endfacet
facet normal 1.0 -0.0 0.0
outer loop
vertex 1.9999999999999998 41.0 27.0
vertex 1.9999999999999998 25.36370330515627 21.511657502329307
vertex 1.9999999999999998 25.5 20.476381321919224
endloop
endfacet
facet normal 1.0 -0.0 0.0
outer loop
vertex 1.9999999999999998 41.0 27.0
vertex 1.9999999999999998 25.5 20.476381321919224
vertex 1.9999999999999998 41.0 1.9999999999999998
endloop
endfacet
facet normal 0.0 -1.0 0.0
outer loop
vertex 68.0 41.0 27.0
vertex 1.9999999999999998 41.0 1.9999999999999998
vertex 68.0 41.0 1.9999999999999998
endloop
endfacet
facet normal 0.0 -1.0 0.0
outer loop
vertex 1.9999999999999998 41.0 1.9999999999999998
vertex 68.0 41.0 27.0
vertex 1.9999999999999998 41.0 27.0
endloop
endfacet
facet normal -0.0 -0.0 1.0
outer loop
vertex 68.0 1.9999999999999998 1.9999999999999998
vertex 1.9999999999999998 41.0 1.9999999999999998
vertex 1.9999999999999998 1.9999999999999996 1.9999999999999998
endloop
endfacet
facet normal -0.0 -0.0 1.0
outer loop
vertex 1.9999999999999998 41.0 1.9999999999999998
vertex 68.0 1.9999999999999998 1.9999999999999998
vertex 68.0 41.0 1.9999999999999998
endloop
endfacet
facet normal -0.0 -0.0 1.0
outer loop
vertex 0.0 0.0 27.0
vertex 1.9999999999999998 1.9999999999999996 27.0
vertex 0.0 21.5 27.0
endloop
endfacet
facet normal -0.0 -0.0 1.0
outer loop
vertex 1.9999999999999998 1.9999999999999996 27.0
vertex 0.0 0.0 27.0
vertex 70.0 0.0 27.0
endloop
endfacet
facet normal -0.0 -0.0 1.0
outer loop
vertex 0.0 21.5 27.0
vertex 1.9999999999999998 1.9999999999999996 27.0
vertex 0.0 43.0 27.0
endloop
endfacet
facet normal -0.0 -0.0 1.0
outer loop
vertex 1.9999999999999998 1.9999999999999996 27.0
vertex 70.0 0.0 27.0
vertex 68.0 1.9999999999999998 27.0
endloop
endfacet
facet normal -0.0 -0.0 1.0
outer loop
vertex 68.0 1.9999999999999998 27.0
vertex 70.0 0.0 27.0
vertex 68.0 18.5 27.0
endloop
endfacet
facet normal -0.0 -0.0 1.0
outer loop
vertex 68.0 18.5 27.0
vertex 70.0 0.0 27.0
vertex 70.0 18.5 27.0
endloop
endfacet
facet normal -0.0 -0.0 1.0
outer loop
vertex 70.0 24.5 27.0
vertex 68.0 41.0 27.0
vertex 68.0 24.5 27.0
endloop
endfacet
facet normal -0.0 -0.0 1.0
outer loop
vertex 0.0 43.0 27.0
vertex 1.9999999999999998 41.0 27.0
vertex 70.0 43.0 27.0
endloop
endfacet
facet normal -0.0 -0.0 1.0
outer loop
vertex 1.9999999999999998 41.0 27.0
vertex 0.0 43.0 27.0
vertex 1.9999999999999998 1.9999999999999996 27.0
endloop
endfacet
facet normal -0.0 -0.0 1.0
outer loop
vertex 70.0 43.0 27.0
vertex 1.9999999999999998 41.0 27.0
vertex 68.0 41.0 27.0
endloop
endfacet
facet normal -0.0 -0.0 1.0
outer loop
vertex 70.0 43.0 27.0
vertex 68.0 41.0 27.0
vertex 70.0 24.5 27.0
endloop
endfacet
facet normal -1.0 -0.0 -0.0
outer loop
vertex 68.0 41.0 27.0
vertex 68.0 24.5 21.0
vertex 68.0 24.5 27.0
endloop
endfacet
facet normal -1.0 -0.0 -0.0
outer loop
vertex 68.0 18.5 27.0
vertex 68.0 1.9999999999999998 1.9999999999999998
vertex 68.0 1.9999999999999998 27.0
endloop
endfacet
facet normal -1.0 -0.0 -0.0
outer loop
vertex 68.0 1.9999999999999998 1.9999999999999998
vertex 68.0 18.5 27.0
vertex 68.0 18.5 21.0
endloop
endfacet
facet normal -1.0 -0.0 -0.0
outer loop
vertex 68.0 1.9999999999999998 1.9999999999999998
vertex 68.0 18.5 21.0
vertex 68.0 41.0 1.9999999999999998
endloop
endfacet
facet normal -1.0 -0.0 -0.0
outer loop
vertex 68.0 41.0 1.9999999999999998
vertex 68.0 18.5 21.0
vertex 68.0 24.5 21.0
endloop
endfacet
facet normal -1.0 -0.0 -0.0
outer loop
vertex 68.0 41.0 1.9999999999999998
vertex 68.0 24.5 21.0
vertex 68.0 41.0 27.0
endloop
endfacet
facet normal -0.0 1.0 -0.0
outer loop
vertex 68.0 18.5 27.0
vertex 70.0 18.5 21.0
vertex 68.0 18.5 21.0
endloop
endfacet
facet normal -0.0 1.0 -0.0
outer loop
vertex 70.0 18.5 21.0
vertex 68.0 18.5 27.0
vertex 70.0 18.5 27.0
endloop
endfacet
facet normal 0.0 0.0 1.0
outer loop
vertex 70.0 18.5 21.0
vertex 68.0 24.5 21.0
vertex 68.0 18.5 21.0
endloop
endfacet
facet normal 0.0 0.0 1.0
outer loop
vertex 68.0 24.5 21.0
vertex 70.0 18.5 21.0
vertex 70.0 24.5 21.0
endloop
endfacet
facet normal -0.0 -1.0 -0.0
outer loop
vertex 70.0 24.5 27.0
vertex 68.0 24.5 21.0
vertex 70.0 24.5 21.0
endloop
endfacet
facet normal -0.0 -1.0 -0.0
outer loop
vertex 68.0 24.5 21.0
vertex 70.0 24.5 27.0
vertex 68.0 24.5 27.0
endloop
endfacet
facet normal 0.0 0.9659258262890681 -0.25881904510252146
outer loop
vertex 0.0 17.63629669484373 21.51165750232931
vertex 1.9999999999999998 17.5 20.476381321919224
vertex 0.0 17.5 20.476381321919224
endloop
endfacet
facet normal 0.0 1.0 3.6535550572152315e-16
outer loop
vertex 1.9999999999999998 17.5 20.476381321919224
vertex 0.0 17.63629669484373 21.51165750232931
vertex 1.9999999999999998 17.63629669484373 21.51165750232931
endloop
endfacet
facet normal 0.0 -0.8660254037844387 -0.5
outer loop
vertex 1.9999999999999998 24.964101615137753 22.476381321919224
vertex 0.0 25.36370330515627 21.511657502329307
vertex 1.9999999999999998 25.36370330515627 21.511657502329307
endloop
endfacet
facet normal 0.0 -0.9659258262890684 -0.2588190451025204
outer loop
vertex 0.0 25.36370330515627 21.511657502329307
vertex 1.9999999999999998 24.964101615137753 22.476381321919224
vertex 0.0 24.964101615137753 22.476381321919224
endloop
endfacet
facet normal 0.0 -0.9659258262890684 -0.2588190451025204
outer loop
vertex 1.9999999999999998 25.36370330515627 21.511657502329307
vertex 0.0 25.5 20.476381321919224
vertex 1.9999999999999998 25.5 20.476381321919224
endloop
endfacet
facet normal 0.0 -1.0 0.0
outer loop
vertex 0.0 25.5 20.476381321919224
vertex 1.9999999999999998 25.36370330515627 21.511657502329307
vertex 0.0 25.36370330515627 21.511657502329307
endloop
endfacet
facet normal 0.0 -0.9659258262890684 0.2588190451025204
outer loop
vertex 1.9999999999999998 25.36370330515627 19.44110514150914
vertex 0.0 24.964101615137753 18.476381321919224
vertex 1.9999999999999998 24.964101615137753 18.476381321919224
endloop
endfacet
facet normal 0.0 -0.8660254037844387 0.5
outer loop
vertex 0.0 24.964101615137753 18.476381321919224
vertex 1.9999999999999998 25.36370330515627 19.44110514150914
vertex 0.0 25.36370330515627 19.44110514150914
endloop
endfacet
facet normal 0.0 -1.7822219791293813e-16 1.0
outer loop
vertex 1.9999999999999998 21.5 16.476381321919227
vertex 0.0 22.535276180410083 16.612678016762953
vertex 0.0 21.5 16.476381321919227
endloop
endfacet
facet normal 0.0 -0.2588190451025204 0.9659258262890684
outer loop
vertex 0.0 22.535276180410083 16.612678016762953
vertex 1.9999999999999998 21.5 16.476381321919227
vertex 1.9999999999999998 22.535276180410083 16.612678016762953
endloop
endfacet
facet normal 0.0 0.25881904510252146 0.9659258262890681
outer loop
vertex 1.9999999999999998 20.464723819589913 16.612678016762953
vertex 0.0 21.5 16.476381321919227
vertex 0.0 20.464723819589913 16.612678016762953
endloop
endfacet
facet normal 0.0 -1.7822219791293813e-16 1.0
outer loop
vertex 0.0 21.5 16.476381321919227
vertex 1.9999999999999998 20.464723819589913 16.612678016762953
vertex 1.9999999999999998 21.5 16.476381321919227
endloop
endfacet
facet normal 0.0 0.7071067811865475 -0.7071067811865477
outer loop
vertex 0.0 18.671572875253815 23.304808446665415
vertex 1.9999999999999998 18.03589838486225 22.476381321919227
vertex 0.0 18.03589838486225 22.476381321919227
endloop
endfacet
facet normal 0.0 0.8660254037844379 -0.500000000000001
outer loop
vertex 1.9999999999999998 18.03589838486225 22.476381321919227
vertex 0.0 18.671572875253815 23.304808446665415
vertex 1.9999999999999998 18.671572875253815 23.304808446665415
endloop
endfacet
facet normal 0.0 1.8713330780858502e-16 -1.0
outer loop
vertex 1.9999999999999998 21.5 24.476381321919224
vertex 0.0 20.46472381958992 24.340084627075495
vertex 0.0 21.5 24.476381321919224
endloop
endfacet
facet normal 0.0 0.25881904510252013 -0.9659258262890685
outer loop
vertex 0.0 20.46472381958992 24.340084627075495
vertex 1.9999999999999998 21.5 24.476381321919224
vertex 1.9999999999999998 20.46472381958992 24.340084627075495
endloop
endfacet
facet normal 0.0 0.4999999999999994 -0.8660254037844392
outer loop
vertex 1.9999999999999998 19.5 23.940482937056977
vertex 0.0 18.671572875253815 23.304808446665415
vertex 0.0 19.5 23.940482937056977
endloop
endfacet
facet normal 0.0 0.7071067811865475 -0.7071067811865477
outer loop
vertex 0.0 18.671572875253815 23.304808446665415
vertex 1.9999999999999998 19.5 23.940482937056977
vertex 1.9999999999999998 18.671572875253815 23.304808446665415
endloop
endfacet
facet normal 0.0 -0.7071067811865475 -0.7071067811865477
outer loop
vertex 1.9999999999999998 24.328427124746188 23.30480844666541
vertex 0.0 23.500000000000004 23.940482937056974
vertex 0.0 24.328427124746188 23.30480844666541
endloop
endfacet
facet normal 0.0 -0.5000000000000004 -0.8660254037844384
outer loop
vertex 0.0 23.500000000000004 23.940482937056974
vertex 1.9999999999999998 24.328427124746188 23.30480844666541
vertex 1.9999999999999998 23.500000000000004 23.940482937056974
endloop
endfacet
facet normal 0.0 -0.7071067811865475 -0.7071067811865477
outer loop
vertex 1.9999999999999998 24.328427124746188 23.30480844666541
vertex 0.0 24.964101615137753 22.476381321919224
vertex 1.9999999999999998 24.964101615137753 22.476381321919224
endloop
endfacet
facet normal 0.0 -0.8660254037844387 -0.5
outer loop
vertex 0.0 24.964101615137753 22.476381321919224
vertex 1.9999999999999998 24.328427124746188 23.30480844666541
vertex 0.0 24.328427124746188 23.30480844666541
endloop
endfacet
facet normal 0.0 -0.8660254037844387 0.5
outer loop
vertex 1.9999999999999998 24.964101615137753 18.476381321919224
vertex 0.0 24.328427124746188 17.647954197173036
vertex 1.9999999999999998 24.328427124746188 17.647954197173036
endloop
endfacet
facet normal 0.0 -0.7071067811865476 0.7071067811865476
outer loop
vertex 0.0 24.328427124746188 17.647954197173036
vertex 1.9999999999999998 24.964101615137753 18.476381321919224
vertex 0.0 24.964101615137753 18.476381321919224
endloop
endfacet
facet normal 0.0 0.8660254037844379 -0.500000000000001
outer loop
vertex 0.0 18.03589838486225 22.476381321919227
vertex 1.9999999999999998 17.63629669484373 21.51165750232931
vertex 0.0 17.63629669484373 21.51165750232931
endloop
endfacet
facet normal 0.0 0.9659258262890681 -0.25881904510252146
outer loop
vertex 1.9999999999999998 17.63629669484373 21.51165750232931
vertex 0.0 18.03589838486225 22.476381321919227
vertex 1.9999999999999998 18.03589838486225 22.476381321919227
endloop
endfacet
facet normal 0.0 0.25881904510252013 -0.9659258262890685
outer loop
vertex 1.9999999999999998 20.46472381958992 24.340084627075495
vertex 0.0 19.5 23.940482937056977
vertex 0.0 20.46472381958992 24.340084627075495
endloop
endfacet
facet normal 0.0 0.4999999999999994 -0.8660254037844392
outer loop
vertex 0.0 19.5 23.940482937056977
vertex 1.9999999999999998 20.46472381958992 24.340084627075495
vertex 1.9999999999999998 19.5 23.940482937056977
endloop
endfacet
facet normal 0.0 -0.25881904510252113 -0.9659258262890682
outer loop
vertex 1.9999999999999998 22.535276180410083 24.340084627075495
vertex 0.0 21.5 24.476381321919224
vertex 0.0 22.535276180410083 24.340084627075495
endloop
endfacet
facet normal 0.0 1.8713330780858502e-16 -1.0
outer loop
vertex 0.0 21.5 24.476381321919224
vertex 1.9999999999999998 22.535276180410083 24.340084627075495
vertex 1.9999999999999998 21.5 24.476381321919224
endloop
endfacet
facet normal 0.0 -0.2588190451025204 0.9659258262890684
outer loop
vertex 1.9999999999999998 22.535276180410083 16.612678016762953
vertex 0.0 23.5 17.01227970678147
vertex 0.0 22.535276180410083 16.612678016762953
endloop
endfacet
facet normal 0.0 -0.5 0.8660254037844387
outer loop
vertex 0.0 23.5 17.01227970678147
vertex 1.9999999999999998 22.535276180410083 16.612678016762953
vertex 1.9999999999999998 23.5 17.01227970678147
endloop
endfacet
facet normal 0.0 -0.5000000000000004 -0.8660254037844384
outer loop
vertex 1.9999999999999998 23.500000000000004 23.940482937056974
vertex 0.0 22.535276180410083 24.340084627075495
vertex 0.0 23.500000000000004 23.940482937056974
endloop
endfacet
facet normal 0.0 -0.25881904510252113 -0.9659258262890682
outer loop
vertex 0.0 22.535276180410083 24.340084627075495
vertex 1.9999999999999998 23.500000000000004 23.940482937056974
vertex 1.9999999999999998 22.535276180410083 24.340084627075495
endloop
endfacet
facet normal 0.0 -1.0 0.0
outer loop
vertex 1.9999999999999998 25.5 20.476381321919224
vertex 0.0 25.36370330515627 19.44110514150914
vertex 1.9999999999999998 25.36370330515627 19.44110514150914
endloop
endfacet
facet normal 0.0 -0.9659258262890684 0.2588190451025204
outer loop
vertex 0.0 25.36370330515627 19.44110514150914
vertex 1.9999999999999998 25.5 20.476381321919224
vertex 0.0 25.5 20.476381321919224
endloop
endfacet
facet normal 0.0 -0.5 0.8660254037844387
outer loop
vertex 1.9999999999999998 23.5 17.01227970678147
vertex 0.0 24.328427124746188 17.647954197173036
vertex 0.0 23.5 17.01227970678147
endloop
endfacet
facet normal 0.0 -0.7071067811865476 0.7071067811865476
outer loop
vertex 0.0 24.328427124746188 17.647954197173036
vertex 1.9999999999999998 23.5 17.01227970678147
vertex 1.9999999999999998 24.328427124746188 17.647954197173036
endloop
endfacet
facet normal 0.0 0.9659258262890684 0.25881904510252063
outer loop
vertex 0.0 17.63629669484373 19.441105141509144
vertex 1.9999999999999998 18.035898384862247 18.476381321919227
vertex 0.0 18.035898384862247 18.476381321919227
endloop
endfacet
facet normal 0.0 0.8660254037844392 0.4999999999999993
outer loop
vertex 1.9999999999999998 18.035898384862247 18.476381321919227
vertex 0.0 17.63629669484373 19.441105141509144
vertex 1.9999999999999998 17.63629669484373 19.441105141509144
endloop
endfacet
facet normal 0.0 0.500000000000001 0.8660254037844382
outer loop
vertex 1.9999999999999998 19.499999999999996 17.012279706781474
vertex 0.0 20.464723819589913 16.612678016762953
vertex 0.0 19.499999999999996 17.012279706781474
endloop
endfacet
facet normal 0.0 0.25881904510252146 0.9659258262890681
outer loop
vertex 0.0 20.464723819589913 16.612678016762953
vertex 1.9999999999999998 19.499999999999996 17.012279706781474
vertex 1.9999999999999998 20.464723819589913 16.612678016762953
endloop
endfacet
facet normal 0.0 1.0 3.6535550572152315e-16
outer loop
vertex 0.0 17.5 20.476381321919224
vertex 1.9999999999999998 17.63629669484373 19.441105141509144
vertex 0.0 17.63629669484373 19.441105141509144
endloop
endfacet
facet normal 0.0 0.9659258262890684 0.25881904510252063
outer loop
vertex 1.9999999999999998 17.63629669484373 19.441105141509144
vertex 0.0 17.5 20.476381321919224
vertex 1.9999999999999998 17.5 20.476381321919224
endloop
endfacet
facet normal 0.0 0.8660254037844392 0.4999999999999993
outer loop
vertex 0.0 18.035898384862247 18.476381321919227
vertex 1.9999999999999998 18.671572875253812 17.647954197173036
vertex 0.0 18.671572875253812 17.647954197173036
endloop
endfacet
facet normal 0.0 0.707106781186548 0.7071067811865471
outer loop
vertex 1.9999999999999998 18.671572875253812 17.647954197173036
vertex 0.0 18.035898384862247 18.476381321919227
vertex 1.9999999999999998 18.035898384862247 18.476381321919227
endloop
endfacet
facet normal 0.0 0.707106781186548 0.7071067811865471
outer loop
vertex 1.9999999999999998 18.671572875253812 17.647954197173036
vertex 0.0 19.499999999999996 17.012279706781474
vertex 0.0 18.671572875253812 17.647954197173036
endloop
endfacet
facet normal 0.0 0.500000000000001 0.8660254037844382
outer loop
vertex 0.0 19.499999999999996 17.012279706781474
vertex 1.9999999999999998 18.671572875253812 17.647954197173036
vertex 1.9999999999999998 19.499999999999996 17.012279706781474
endloop
endfacet
endsolid Canakit DCAR-RSP-3A5C Enclosure
