solid Flex-ATX plate for FILSHU IEC320
facet normal -0.5000000000000034 0.8660254037844366 0.0
outer loop
vertex 76.675 2.83086570489101 3.5
vertex 76.95459415460184 3.045405845398163 0.0
vertex 76.675 2.83086570489101 0.0
endloop
endfacet
facet normal -0.7071067811865518 0.707106781186543 0.0
outer loop
vertex 76.95459415460184 3.045405845398163 0.0
vertex 76.675 2.83086570489101 3.5
vertex 76.95459415460184 3.045405845398163 3.5
endloop
endfacet
facet normal -0.8660254037844339 0.5000000000000082 0.0
outer loop
vertex 77.16913429510899 3.325000000000001 3.5
vertex 76.95459415460184 3.045405845398163 0.0
vertex 76.95459415460184 3.045405845398163 3.5
endloop
endfacet
facet normal -0.7071067811865518 0.707106781186543 0.0
outer loop
vertex 76.95459415460184 3.045405845398163 0.0
vertex 77.16913429510899 3.325000000000001 3.5
vertex 77.16913429510899 3.325000000000001 0.0
endloop
endfacet
facet normal 0.8660254037844337 0.5000000000000085 0.0
outer loop
vertex 74.83086570489101 3.325 0.0
vertex 75.04540584539816 3.0454058453981623 3.5
vertex 75.04540584539816 3.0454058453981623 0.0
endloop
endfacet
facet normal 0.707106781186545 0.7071067811865499 0.0
outer loop
vertex 75.04540584539816 3.0454058453981623 3.5
vertex 74.83086570489101 3.325 0.0
vertex 74.83086570489101 3.325 3.5
endloop
endfacet
facet normal -0.9659258262890674 0.25881904510252357 0.0
outer loop
vertex 77.30399986549024 3.6505942891115977 3.5
vertex 77.16913429510899 3.325000000000001 0.0
vertex 77.16913429510899 3.325000000000001 3.5
endloop
endfacet
facet normal -0.8660254037844339 0.5000000000000082 0.0
outer loop
vertex 77.16913429510899 3.325000000000001 0.0
vertex 77.30399986549024 3.6505942891115977 3.5
vertex 77.30399986549024 3.6505942891115977 0.0
endloop
endfacet
facet normal -1.0069554182081006e-15 1.0 0.0
outer loop
vertex 76.0 2.650000000000002 3.5
vertex 76.34940571088839 2.6960001345097604 0.0
vertex 76.0 2.650000000000002 0.0
endloop
endfacet
facet normal -0.258819045102517 0.9659258262890693 0.0
outer loop
vertex 76.34940571088839 2.6960001345097604 0.0
vertex 76.0 2.650000000000002 3.5
vertex 76.34940571088839 2.6960001345097604 3.5
endloop
endfacet
facet normal 0.25881904510252196 0.965925826289068 0.0
outer loop
vertex 75.6505942891116 2.6960001345097595 3.5
vertex 76.0 2.650000000000002 0.0
vertex 75.6505942891116 2.6960001345097595 0.0
endloop
endfacet
facet normal -1.0069554182081006e-15 1.0 0.0
outer loop
vertex 76.0 2.650000000000002 0.0
vertex 75.6505942891116 2.6960001345097595 3.5
vertex 76.0 2.650000000000002 3.5
endloop
endfacet
facet normal -0.258819045102517 0.9659258262890693 0.0
outer loop
vertex 76.34940571088839 2.6960001345097604 3.5
vertex 76.675 2.83086570489101 0.0
vertex 76.34940571088839 2.6960001345097604 0.0
endloop
endfacet
facet normal -0.5000000000000034 0.8660254037844366 0.0
outer loop
vertex 76.675 2.83086570489101 0.0
vertex 76.34940571088839 2.6960001345097604 3.5
vertex 76.675 2.83086570489101 3.5
endloop
endfacet
facet normal 0.707106781186545 0.7071067811865499 0.0
outer loop
vertex 75.04540584539816 3.0454058453981623 3.5
vertex 75.325 2.8308657048910093 0.0
vertex 75.04540584539816 3.0454058453981623 0.0
endloop
endfacet
facet normal 0.5000000000000003 0.8660254037844384 0.0
outer loop
vertex 75.325 2.8308657048910093 0.0
vertex 75.04540584539816 3.0454058453981623 3.5
vertex 75.325 2.8308657048910093 3.5
endloop
endfacet
facet normal 0.5000000000000003 0.8660254037844384 0.0
outer loop
vertex 75.325 2.8308657048910093 3.5
vertex 75.6505942891116 2.6960001345097595 0.0
vertex 75.325 2.8308657048910093 0.0
endloop
endfacet
facet normal 0.25881904510252196 0.965925826289068 0.0
outer loop
vertex 75.6505942891116 2.6960001345097595 0.0
vertex 75.325 2.8308657048910093 3.5
vertex 75.6505942891116 2.6960001345097595 3.5
endloop
endfacet
facet normal 0.9659258262890673 -0.2588190451025243 0.0
outer loop
vertex 74.69600013450976 36.349405710888405 0.0
vertex 74.64999999999999 36.0 3.5
vertex 74.64999999999999 36.0 0.0
endloop
endfacet
facet normal 1.0 0.0 0.0
outer loop
vertex 74.64999999999999 36.0 3.5
vertex 74.69600013450976 36.349405710888405 0.0
vertex 74.69600013450976 36.349405710888405 3.5
endloop
endfacet
facet normal 0.7071067811865476 0.7071067811865476 0.0
outer loop
vertex 75.04540584539816 35.045405845398165 3.5
vertex 75.325 34.83086570489101 0.0
vertex 75.04540584539816 35.045405845398165 0.0
endloop
endfacet
facet normal 0.5000000000000017 0.8660254037844377 0.0
outer loop
vertex 75.325 34.83086570489101 0.0
vertex 75.04540584539816 35.045405845398165 3.5
vertex 75.325 34.83086570489101 3.5
endloop
endfacet
facet normal -0.9659258262890673 -0.2588190451025243 0.0
outer loop
vertex 77.30399986549024 36.349405710888405 3.5
vertex 77.35 36.0 0.0
vertex 77.35 36.0 3.5
endloop
endfacet
facet normal -1.0 0.0 0.0
outer loop
vertex 77.35 36.0 0.0
vertex 77.30399986549024 36.349405710888405 3.5
vertex 77.30399986549024 36.349405710888405 0.0
endloop
endfacet
facet normal -0.8660254037844339 -0.5000000000000081 0.0
outer loop
vertex 77.16913429510899 36.675 3.5
vertex 77.30399986549024 36.349405710888405 0.0
vertex 77.30399986549024 36.349405710888405 3.5
endloop
endfacet
facet normal -0.9659258262890673 -0.2588190451025243 0.0
outer loop
vertex 77.30399986549024 36.349405710888405 0.0
vertex 77.16913429510899 36.675 3.5
vertex 77.16913429510899 36.675 0.0
endloop
endfacet
facet normal 0.5000000000000058 -0.8660254037844354 0.0
outer loop
vertex 75.32499999999999 37.16913429510899 3.5
vertex 75.04540584539816 36.95459415460184 0.0
vertex 75.32499999999999 37.16913429510899 0.0
endloop
endfacet
facet normal 0.7071067811865499 -0.7071067811865451 0.0
outer loop
vertex 75.04540584539816 36.95459415460184 0.0
vertex 75.32499999999999 37.16913429510899 3.5
vertex 75.04540584539816 36.95459415460184 3.5
endloop
endfacet
facet normal 0.0 -1.0 0.0
outer loop
vertex 76.0 37.35 3.5
vertex 75.6505942891116 37.30399986549024 0.0
vertex 76.0 37.35 0.0
endloop
endfacet
facet normal 0.2588190451025194 -0.9659258262890686 0.0
outer loop
vertex 75.6505942891116 37.30399986549024 0.0
vertex 76.0 37.35 3.5
vertex 75.6505942891116 37.30399986549024 3.5
endloop
endfacet
facet normal 0.7071067811865499 -0.7071067811865451 0.0
outer loop
vertex 75.04540584539816 36.95459415460184 0.0
vertex 74.83086570489101 36.675 3.5
vertex 74.83086570489101 36.675 0.0
endloop
endfacet
facet normal 0.8660254037844339 -0.5000000000000081 0.0
outer loop
vertex 74.83086570489101 36.675 3.5
vertex 75.04540584539816 36.95459415460184 0.0
vertex 75.04540584539816 36.95459415460184 3.5
endloop
endfacet
facet normal 0.9659258262890673 0.2588190451025243 0.0
outer loop
vertex 74.69600013450976 35.650594289111595 0.0
vertex 74.83086570489101 35.325 3.5
vertex 74.83086570489101 35.325 0.0
endloop
endfacet
facet normal 0.8660254037844339 0.5000000000000081 0.0
outer loop
vertex 74.83086570489101 35.325 3.5
vertex 74.69600013450976 35.650594289111595 0.0
vertex 74.69600013450976 35.650594289111595 3.5
endloop
endfacet
facet normal -0.707106781186543 -0.707106781186552 0.0
outer loop
vertex 76.95459415460184 36.95459415460184 3.5
vertex 77.16913429510899 36.675 0.0
vertex 77.16913429510899 36.675 3.5
endloop
endfacet
facet normal -0.8660254037844339 -0.5000000000000081 0.0
outer loop
vertex 77.16913429510899 36.675 0.0
vertex 76.95459415460184 36.95459415460184 3.5
vertex 76.95459415460184 36.95459415460184 0.0
endloop
endfacet
facet normal -1.0 0.0 0.0
outer loop
vertex 77.35 36.0 3.5
vertex 77.30399986549024 35.650594289111595 0.0
vertex 77.30399986549024 35.650594289111595 3.5
endloop
endfacet
facet normal -0.9659258262890673 0.2588190451025243 0.0
outer loop
vertex 77.30399986549024 35.650594289111595 0.0
vertex 77.35 36.0 3.5
vertex 77.35 36.0 0.0
endloop
endfacet
facet normal 1.0 0.0 0.0
outer loop
vertex 74.64999999999999 36.0 0.0
vertex 74.69600013450976 35.650594289111595 3.5
vertex 74.69600013450976 35.650594289111595 0.0
endloop
endfacet
facet normal 0.9659258262890673 0.2588190451025243 0.0
outer loop
vertex 74.69600013450976 35.650594289111595 3.5
vertex 74.64999999999999 36.0 0.0
vertex 74.64999999999999 36.0 3.5
endloop
endfacet
facet normal 0.2588190451025182 0.9659258262890691 0.0
outer loop
vertex 75.6505942891116 34.69600013450976 3.5
vertex 76.0 34.650000000000006 0.0
vertex 75.6505942891116 34.69600013450976 0.0
endloop
endfacet
facet normal 0.0 1.0 0.0
outer loop
vertex 76.0 34.650000000000006 0.0
vertex 75.6505942891116 34.69600013450976 3.5
vertex 76.0 34.650000000000006 3.5
endloop
endfacet
facet normal -0.5000000000000027 -0.8660254037844372 0.0
outer loop
vertex 76.67499999999998 37.16913429510899 3.5
vertex 76.34940571088839 37.30399986549024 0.0
vertex 76.67499999999998 37.16913429510899 0.0
endloop
endfacet
facet normal -0.25881904510252535 -0.9659258262890671 0.0
outer loop
vertex 76.34940571088839 37.30399986549024 0.0
vertex 76.67499999999998 37.16913429510899 3.5
vertex 76.34940571088839 37.30399986549024 3.5
endloop
endfacet
facet normal -0.25881904510252535 -0.9659258262890671 0.0
outer loop
vertex 76.34940571088839 37.30399986549024 3.5
vertex 76.0 37.35 0.0
vertex 76.34940571088839 37.30399986549024 0.0
endloop
endfacet
facet normal 0.0 -1.0 0.0
outer loop
vertex 76.0 37.35 0.0
vertex 76.34940571088839 37.30399986549024 3.5
vertex 76.0 37.35 3.5
endloop
endfacet
facet normal 0.8660254037844339 0.5000000000000081 0.0
outer loop
vertex 74.83086570489101 35.325 0.0
vertex 75.04540584539816 35.045405845398165 3.5
vertex 75.04540584539816 35.045405845398165 0.0
endloop
endfacet
facet normal 0.7071067811865476 0.7071067811865476 0.0
outer loop
vertex 75.04540584539816 35.045405845398165 3.5
vertex 74.83086570489101 35.325 0.0
vertex 74.83086570489101 35.325 3.5
endloop
endfacet
facet normal 0.5000000000000017 0.8660254037844377 0.0
outer loop
vertex 75.325 34.83086570489101 3.5
vertex 75.6505942891116 34.69600013450976 0.0
vertex 75.325 34.83086570489101 0.0
endloop
endfacet
facet normal 0.2588190451025182 0.9659258262890691 0.0
outer loop
vertex 75.6505942891116 34.69600013450976 0.0
vertex 75.325 34.83086570489101 3.5
vertex 75.6505942891116 34.69600013450976 3.5
endloop
endfacet
facet normal 0.8660254037844339 -0.5000000000000081 0.0
outer loop
vertex 74.83086570489101 36.675 0.0
vertex 74.69600013450976 36.349405710888405 3.5
vertex 74.69600013450976 36.349405710888405 0.0
endloop
endfacet
facet normal 0.9659258262890673 -0.2588190451025243 0.0
outer loop
vertex 74.69600013450976 36.349405710888405 3.5
vertex 74.83086570489101 36.675 0.0
vertex 74.83086570489101 36.675 3.5
endloop
endfacet
facet normal -0.707106781186543 -0.707106781186552 0.0
outer loop
vertex 76.95459415460184 36.95459415460184 3.5
vertex 76.67499999999998 37.16913429510899 0.0
vertex 76.95459415460184 36.95459415460184 0.0
endloop
endfacet
facet normal -0.5000000000000027 -0.8660254037844372 0.0
outer loop
vertex 76.67499999999998 37.16913429510899 0.0
vertex 76.95459415460184 36.95459415460184 3.5
vertex 76.67499999999998 37.16913429510899 3.5
endloop
endfacet
facet normal 0.2588190451025194 -0.9659258262890686 0.0
outer loop
vertex 75.6505942891116 37.30399986549024 3.5
vertex 75.32499999999999 37.16913429510899 0.0
vertex 75.6505942891116 37.30399986549024 0.0
endloop
endfacet
facet normal 0.5000000000000058 -0.8660254037844354 0.0
outer loop
vertex 75.32499999999999 37.16913429510899 0.0
vertex 75.6505942891116 37.30399986549024 3.5
vertex 75.32499999999999 37.16913429510899 3.5
endloop
endfacet
facet normal -0.0 1.0 -0.0
outer loop
vertex 31.953795241570145 9.336247071640365 3.500000000000016
vertex 58.153795241570144 9.336247071640365 1.621480727465041e-14
vertex 31.953795241570145 9.336247071640365 1.621480727465041e-14
endloop
endfacet
facet normal -0.0 1.0 -0.0
outer loop
vertex 58.153795241570144 9.336247071640365 1.621480727465041e-14
vertex 31.953795241570145 9.336247071640365 3.500000000000016
vertex 58.153795241570144 9.336247071640365 3.500000000000016
endloop
endfacet
facet normal 0.0 1.0 0.0
outer loop
vertex 76.0 34.650000000000006 3.5
vertex 76.34940571088839 34.69600013450976 0.0
vertex 76.0 34.650000000000006 0.0
endloop
endfacet
facet normal -0.2588190451025194 0.9659258262890686 0.0
outer loop
vertex 76.34940571088839 34.69600013450976 0.0
vertex 76.0 34.650000000000006 3.5
vertex 76.34940571088839 34.69600013450976 3.5
endloop
endfacet
facet normal -1.0 0.0 -0.0
outer loop
vertex 58.153795241570144 30.236247071640392 3.500000000000016
vertex 58.153795241570144 9.336247071640365 1.621480727465041e-14
vertex 58.153795241570144 9.336247071640365 3.500000000000016
endloop
endfacet
facet normal -1.0 0.0 -0.0
outer loop
vertex 58.153795241570144 9.336247071640365 1.621480727465041e-14
vertex 58.153795241570144 30.236247071640392 3.500000000000016
vertex 58.153795241570144 30.236247071640392 1.621480727465041e-14
endloop
endfacet
facet normal -0.0 -1.0 -0.0
outer loop
vertex 58.153795241570144 30.236247071640392 3.500000000000016
vertex 31.953795241570145 30.236247071640392 1.621480727465041e-14
vertex 58.153795241570144 30.236247071640392 1.621480727465041e-14
endloop
endfacet
facet normal -0.0 -1.0 -0.0
outer loop
vertex 31.953795241570145 30.236247071640392 1.621480727465041e-14
vertex 58.153795241570144 30.236247071640392 3.500000000000016
vertex 31.953795241570145 30.236247071640392 3.500000000000016
endloop
endfacet
facet normal -0.8660254037844339 0.5000000000000081 0.0
outer loop
vertex 77.16913429510899 35.325 3.5
vertex 76.95459415460184 35.045405845398165 0.0
vertex 76.95459415460184 35.045405845398165 3.5
endloop
endfacet
facet normal -0.7071067811865499 0.7071067811865451 0.0
outer loop
vertex 76.95459415460184 35.045405845398165 0.0
vertex 77.16913429510899 35.325 3.5
vertex 77.16913429510899 35.325 0.0
endloop
endfacet
facet normal -0.5000000000000058 0.8660254037844354 0.0
outer loop
vertex 76.675 34.83086570489102 3.5
vertex 76.95459415460184 35.045405845398165 0.0
vertex 76.675 34.83086570489102 0.0
endloop
endfacet
facet normal -0.7071067811865499 0.7071067811865451 0.0
outer loop
vertex 76.95459415460184 35.045405845398165 0.0
vertex 76.675 34.83086570489102 3.5
vertex 76.95459415460184 35.045405845398165 3.5
endloop
endfacet
facet normal -0.9659258262890673 0.2588190451025243 0.0
outer loop
vertex 77.30399986549024 35.650594289111595 3.5
vertex 77.16913429510899 35.325 0.0
vertex 77.16913429510899 35.325 3.5
endloop
endfacet
facet normal -0.8660254037844339 0.5000000000000081 0.0
outer loop
vertex 77.16913429510899 35.325 0.0
vertex 77.30399986549024 35.650594289111595 3.5
vertex 77.30399986549024 35.650594289111595 0.0
endloop
endfacet
facet normal -0.2588190451025194 0.9659258262890686 0.0
outer loop
vertex 76.34940571088839 34.69600013450976 3.5
vertex 76.675 34.83086570489102 0.0
vertex 76.34940571088839 34.69600013450976 0.0
endloop
endfacet
facet normal -0.5000000000000058 0.8660254037844354 0.0
outer loop
vertex 76.675 34.83086570489102 0.0
vertex 76.34940571088839 34.69600013450976 3.5
vertex 76.675 34.83086570489102 3.5
endloop
endfacet
facet normal 1.0 0.0 0.0
outer loop
vertex 31.953795241570145 30.236247071640392 1.621480727465041e-14
vertex 31.953795241570145 9.336247071640365 3.500000000000016
vertex 31.953795241570145 9.336247071640365 1.621480727465041e-14
endloop
endfacet
facet normal 1.0 0.0 0.0
outer loop
vertex 31.953795241570145 9.336247071640365 3.500000000000016
vertex 31.953795241570145 30.236247071640392 1.621480727465041e-14
vertex 31.953795241570145 30.236247071640392 3.500000000000016
endloop
endfacet
facet normal 0.9659258262890674 0.2588190451025236 0.0
outer loop
vertex 74.69600013450976 3.6505942891115963 0.0
vertex 74.83086570489101 3.325 3.5
vertex 74.83086570489101 3.325 0.0
endloop
endfacet
facet normal 0.8660254037844337 0.5000000000000085 0.0
outer loop
vertex 74.83086570489101 3.325 3.5
vertex 74.69600013450976 3.6505942891115963 0.0
vertex 74.69600013450976 3.6505942891115963 3.5
endloop
endfacet
facet normal 0.5000000000000009 0.8660254037844383 0.0
outer loop
vertex 14.524999999999999 2.3308657048910066 3.5
vertex 14.850594289111594 2.196000134509757 0.0
vertex 14.524999999999999 2.3308657048910066 0.0
endloop
endfacet
facet normal 0.25881904510252185 0.9659258262890681 0.0
outer loop
vertex 14.850594289111594 2.196000134509757 0.0
vertex 14.524999999999999 2.3308657048910066 3.5
vertex 14.850594289111594 2.196000134509757 3.5
endloop
endfacet
facet normal -0.9659258262890685 -0.25881904510251985 0.0
outer loop
vertex 16.50399986549024 3.849405710888403 3.5
vertex 16.549999999999997 3.499999999999999 0.0
vertex 16.549999999999997 3.499999999999999 3.5
endloop
endfacet
facet normal -1.0 2.7624440676505406e-16 0.0
outer loop
vertex 16.549999999999997 3.499999999999999 0.0
vertex 16.50399986549024 3.849405710888403 3.5
vertex 16.50399986549024 3.849405710888403 0.0
endloop
endfacet
facet normal -0.7071067811865454 -0.7071067811865498 0.0
outer loop
vertex 16.154594154601835 4.454594154601839 3.5
vertex 16.369134295108992 4.175 0.0
vertex 16.369134295108992 4.175 3.5
endloop
endfacet
facet normal -0.8660254037844379 -0.5000000000000012 0.0
outer loop
vertex 16.369134295108992 4.175 0.0
vertex 16.154594154601835 4.454594154601839 3.5
vertex 16.154594154601835 4.454594154601839 0.0
endloop
endfacet
facet normal -0.49999999999999956 0.8660254037844389 0.0
outer loop
vertex 15.875 2.330865704891007 3.5
vertex 16.15459415460184 2.54540584539816 0.0
vertex 15.875 2.330865704891007 0.0
endloop
endfacet
facet normal -0.7071067811865482 0.7071067811865467 0.0
outer loop
vertex 16.15459415460184 2.54540584539816 0.0
vertex 15.875 2.330865704891007 3.5
vertex 16.15459415460184 2.54540584539816 3.5
endloop
endfacet
facet normal -0.2588190451025208 0.9659258262890682 0.0
outer loop
vertex 15.5494057108884 2.196000134509757 3.5
vertex 15.875 2.330865704891007 0.0
vertex 15.5494057108884 2.196000134509757 0.0
endloop
endfacet
facet normal -0.49999999999999956 0.8660254037844389 0.0
outer loop
vertex 15.875 2.330865704891007 0.0
vertex 15.5494057108884 2.196000134509757 3.5
vertex 15.875 2.330865704891007 3.5
endloop
endfacet
facet normal 0.25881904510252185 0.9659258262890681 0.0
outer loop
vertex 14.850594289111594 2.196000134509757 3.5
vertex 15.199999999999998 2.149999999999999 0.0
vertex 14.850594289111594 2.196000134509757 0.0
endloop
endfacet
facet normal -4.901110442605798e-16 1.0 0.0
outer loop
vertex 15.199999999999998 2.149999999999999 0.0
vertex 14.850594289111594 2.196000134509757 3.5
vertex 15.199999999999998 2.149999999999999 3.5
endloop
endfacet
facet normal 0.7071067811865459 0.7071067811865492 0.0
outer loop
vertex 14.24540584539816 2.5454058453981596 3.5
vertex 14.524999999999999 2.3308657048910066 0.0
vertex 14.24540584539816 2.5454058453981596 0.0
endloop
endfacet
facet normal 0.5000000000000009 0.8660254037844383 0.0
outer loop
vertex 14.524999999999999 2.3308657048910066 0.0
vertex 14.24540584539816 2.5454058453981596 3.5
vertex 14.524999999999999 2.3308657048910066 3.5
endloop
endfacet
facet normal -0.8660254037844379 -0.5000000000000012 0.0
outer loop
vertex 16.369134295108992 4.175 3.5
vertex 16.50399986549024 3.849405710888403 0.0
vertex 16.50399986549024 3.849405710888403 3.5
endloop
endfacet
facet normal -0.9659258262890685 -0.25881904510251985 0.0
outer loop
vertex 16.50399986549024 3.849405710888403 0.0
vertex 16.369134295108992 4.175 3.5
vertex 16.369134295108992 4.175 0.0
endloop
endfacet
facet normal -4.901110442605798e-16 1.0 0.0
outer loop
vertex 15.199999999999998 2.149999999999999 3.5
vertex 15.5494057108884 2.196000134509757 0.0
vertex 15.199999999999998 2.149999999999999 0.0
endloop
endfacet
facet normal -0.2588190451025208 0.9659258262890682 0.0
outer loop
vertex 15.5494057108884 2.196000134509757 0.0
vertex 15.199999999999998 2.149999999999999 3.5
vertex 15.5494057108884 2.196000134509757 3.5
endloop
endfacet
facet normal 1.0 -1.3366664843470358e-16 0.0
outer loop
vertex 13.849999999999998 3.499999999999999 0.0
vertex 13.896000134509755 3.150594289111596 3.5
vertex 13.896000134509755 3.150594289111596 0.0
endloop
endfacet
facet normal 0.9659258262890684 0.25881904510252 0.0
outer loop
vertex 13.896000134509755 3.150594289111596 3.5
vertex 13.849999999999998 3.499999999999999 0.0
vertex 13.849999999999998 3.499999999999999 3.5
endloop
endfacet
facet normal 0.9659258262890686 -0.2588190451025198 0.0
outer loop
vertex 13.896000134509755 3.849405710888402 0.0
vertex 13.849999999999998 3.499999999999999 3.5
vertex 13.849999999999998 3.499999999999999 0.0
endloop
endfacet
facet normal 1.0 -1.3366664843470358e-16 0.0
outer loop
vertex 13.849999999999998 3.499999999999999 3.5
vertex 13.896000134509755 3.849405710888402 0.0
vertex 13.896000134509755 3.849405710888402 3.5
endloop
endfacet
facet normal -0.9659258262890685 0.2588190451025201 0.0
outer loop
vertex 16.50399986549024 3.150594289111597 3.5
vertex 16.369134295108992 2.8249999999999997 0.0
vertex 16.369134295108992 2.8249999999999997 3.5
endloop
endfacet
facet normal -0.8660254037844399 0.49999999999999767 0.0
outer loop
vertex 16.369134295108992 2.8249999999999997 0.0
vertex 16.50399986549024 3.150594289111597 3.5
vertex 16.50399986549024 3.150594289111597 0.0
endloop
endfacet
facet normal -0.7071067811865454 -0.7071067811865498 0.0
outer loop
vertex 16.154594154601835 4.454594154601839 3.5
vertex 15.874999999999996 4.669134295108992 0.0
vertex 16.154594154601835 4.454594154601839 0.0
endloop
endfacet
facet normal -0.4999999999999999 -0.8660254037844387 0.0
outer loop
vertex 15.874999999999996 4.669134295108992 0.0
vertex 16.154594154601835 4.454594154601839 3.5
vertex 15.874999999999996 4.669134295108992 3.5
endloop
endfacet
facet normal -0.4999999999999999 -0.8660254037844387 0.0
outer loop
vertex 15.874999999999996 4.669134295108992 3.5
vertex 15.549405710888399 4.803999865490242 0.0
vertex 15.874999999999996 4.669134295108992 0.0
endloop
endfacet
facet normal -0.2588190451025208 -0.9659258262890682 0.0
outer loop
vertex 15.549405710888399 4.803999865490242 0.0
vertex 15.874999999999996 4.669134295108992 3.5
vertex 15.549405710888399 4.803999865490242 3.5
endloop
endfacet
facet normal -0.8660254037844399 0.49999999999999767 0.0
outer loop
vertex 16.369134295108992 2.8249999999999997 3.5
vertex 16.15459415460184 2.54540584539816 0.0
vertex 16.15459415460184 2.54540584539816 3.5
endloop
endfacet
facet normal -0.7071067811865482 0.7071067811865467 0.0
outer loop
vertex 16.15459415460184 2.54540584539816 0.0
vertex 16.369134295108992 2.8249999999999997 3.5
vertex 16.369134295108992 2.8249999999999997 0.0
endloop
endfacet
facet normal 0.8660254037844383 0.5000000000000008 0.0
outer loop
vertex 14.030865704891005 2.824999999999999 0.0
vertex 14.24540584539816 2.5454058453981596 3.5
vertex 14.24540584539816 2.5454058453981596 0.0
endloop
endfacet
facet normal 0.7071067811865459 0.7071067811865492 0.0
outer loop
vertex 14.24540584539816 2.5454058453981596 3.5
vertex 14.030865704891005 2.824999999999999 0.0
vertex 14.030865704891005 2.824999999999999 3.5
endloop
endfacet
facet normal -1.0 2.7624440676505406e-16 0.0
outer loop
vertex 16.549999999999997 3.499999999999999 3.5
vertex 16.50399986549024 3.150594289111597 0.0
vertex 16.50399986549024 3.150594289111597 3.5
endloop
endfacet
facet normal -0.9659258262890685 0.2588190451025201 0.0
outer loop
vertex 16.50399986549024 3.150594289111597 0.0
vertex 16.549999999999997 3.499999999999999 3.5
vertex 16.549999999999997 3.499999999999999 0.0
endloop
endfacet
facet normal 0.9659258262890684 0.25881904510252 0.0
outer loop
vertex 13.896000134509755 3.150594289111596 0.0
vertex 14.030865704891005 2.824999999999999 3.5
vertex 14.030865704891005 2.824999999999999 0.0
endloop
endfacet
facet normal 0.8660254037844383 0.5000000000000008 0.0
outer loop
vertex 14.030865704891005 2.824999999999999 3.5
vertex 13.896000134509755 3.150594289111596 0.0
vertex 13.896000134509755 3.150594289111596 3.5
endloop
endfacet
facet normal 1.0 -1.2475553853905654e-16 0.0
outer loop
vertex 74.64999999999999 3.9999999999999996 0.0
vertex 74.69600013450976 3.6505942891115963 3.5
vertex 74.69600013450976 3.6505942891115963 0.0
endloop
endfacet
facet normal 0.9659258262890674 0.2588190451025236 0.0
outer loop
vertex 74.69600013450976 3.6505942891115963 3.5
vertex 74.64999999999999 3.9999999999999996 0.0
vertex 74.64999999999999 3.9999999999999996 3.5
endloop
endfacet
facet normal -1.0 0.0 0.0
outer loop
vertex 0.0 40.0 3.5
vertex 0.0 0.0 0.0
vertex 0.0 0.0 3.5
endloop
endfacet
facet normal -1.0 0.0 0.0
outer loop
vertex 0.0 0.0 0.0
vertex 0.0 40.0 3.5
vertex 0.0 40.0 0.0
endloop
endfacet
facet normal 1.0 0.0 0.0
outer loop
vertex 81.5 40.0 0.0
vertex 81.5 0.0 3.5
vertex 81.5 0.0 0.0
endloop
endfacet
facet normal 1.0 0.0 0.0
outer loop
vertex 81.5 0.0 3.5
vertex 81.5 40.0 0.0
vertex 81.5 40.0 3.5
endloop
endfacet
facet normal -0.0 -1.0 -0.0
outer loop
vertex 81.5 0.0 3.5
vertex 0.0 0.0 0.0
vertex 81.5 0.0 0.0
endloop
endfacet
facet normal -0.0 -1.0 -0.0
outer loop
vertex 0.0 0.0 0.0
vertex 81.5 0.0 3.5
vertex 0.0 0.0 3.5
endloop
endfacet
facet normal -0.0 1.0 0.0
outer loop
vertex 0.0 40.0 3.5
vertex 81.5 40.0 0.0
vertex 0.0 40.0 0.0
endloop
endfacet
facet normal -0.0 1.0 0.0
outer loop
vertex 81.5 40.0 0.0
vertex 0.0 40.0 3.5
vertex 81.5 40.0 3.5
endloop
endfacet
facet normal -0.0 -0.0 1.0
outer loop
vertex 0.0 0.0 3.5
vertex 13.896000134509755 3.150594289111596 3.5
vertex 0.0 40.0 3.5
endloop
endfacet
facet normal -0.0 -0.0 1.0
outer loop
vertex 13.896000134509755 3.150594289111596 3.5
vertex 0.0 0.0 3.5
vertex 14.030865704891005 2.824999999999999 3.5
endloop
endfacet
facet normal -0.0 -0.0 1.0
outer loop
vertex 14.030865704891005 2.824999999999999 3.5
vertex 0.0 0.0 3.5
vertex 14.24540584539816 2.5454058453981596 3.5
endloop
endfacet
facet normal -0.0 -0.0 1.0
outer loop
vertex 14.24540584539816 2.5454058453981596 3.5
vertex 0.0 0.0 3.5
vertex 14.524999999999999 2.3308657048910066 3.5
endloop
endfacet
facet normal -0.0 -0.0 1.0
outer loop
vertex 14.524999999999999 2.3308657048910066 3.5
vertex 0.0 0.0 3.5
vertex 14.850594289111594 2.196000134509757 3.5
endloop
endfacet
facet normal -0.0 -0.0 1.0
outer loop
vertex 14.850594289111594 2.196000134509757 3.5
vertex 0.0 0.0 3.5
vertex 15.199999999999998 2.149999999999999 3.5
endloop
endfacet
facet normal -0.0 -0.0 1.0
outer loop
vertex 15.199999999999998 2.149999999999999 3.5
vertex 0.0 0.0 3.5
vertex 81.5 0.0 3.5
endloop
endfacet
facet normal -0.0 -0.0 1.0
outer loop
vertex 0.0 40.0 3.5
vertex 13.896000134509755 3.150594289111596 3.5
vertex 13.849999999999998 3.499999999999999 3.5
endloop
endfacet
facet normal -0.0 -0.0 1.0
outer loop
vertex 15.199999999999998 2.149999999999999 3.5
vertex 81.5 0.0 3.5
vertex 15.5494057108884 2.196000134509757 3.5
endloop
endfacet
facet normal -0.0 -0.0 1.0
outer loop
vertex 15.5494057108884 2.196000134509757 3.5
vertex 81.5 0.0 3.5
vertex 15.875 2.330865704891007 3.5
endloop
endfacet
facet normal -0.0 -0.0 1.0
outer loop
vertex 15.875 2.330865704891007 3.5
vertex 81.5 0.0 3.5
vertex 16.15459415460184 2.54540584539816 3.5
endloop
endfacet
facet normal -0.0 -0.0 1.0
outer loop
vertex 16.15459415460184 2.54540584539816 3.5
vertex 81.5 0.0 3.5
vertex 16.369134295108992 2.8249999999999997 3.5
endloop
endfacet
facet normal -0.0 -0.0 1.0
outer loop
vertex 16.369134295108992 2.8249999999999997 3.5
vertex 81.5 0.0 3.5
vertex 16.50399986549024 3.150594289111597 3.5
endloop
endfacet
facet normal -0.0 -0.0 1.0
outer loop
vertex 16.50399986549024 3.150594289111597 3.5
vertex 81.5 0.0 3.5
vertex 16.549999999999997 3.499999999999999 3.5
endloop
endfacet
facet normal -0.0 -0.0 1.0
outer loop
vertex 16.549999999999997 3.499999999999999 3.5
vertex 81.5 0.0 3.5
vertex 31.953795241570145 9.336247071640365 3.500000000000016
endloop
endfacet
facet normal -0.0 -0.0 1.0
outer loop
vertex 31.953795241570145 9.336247071640365 3.500000000000016
vertex 81.5 0.0 3.5
vertex 58.153795241570144 9.336247071640365 3.500000000000016
endloop
endfacet
facet normal -0.0 -0.0 1.0
outer loop
vertex 58.153795241570144 9.336247071640365 3.500000000000016
vertex 81.5 0.0 3.5
vertex 75.325 2.8308657048910093 3.5
endloop
endfacet
facet normal -0.0 -0.0 1.0
outer loop
vertex 58.153795241570144 9.336247071640365 3.500000000000016
vertex 75.325 2.8308657048910093 3.5
vertex 75.04540584539816 3.0454058453981623 3.5
endloop
endfacet
facet normal -0.0 -0.0 1.0
outer loop
vertex 58.153795241570144 9.336247071640365 3.500000000000016
vertex 75.04540584539816 3.0454058453981623 3.5
vertex 74.83086570489101 3.325 3.5
endloop
endfacet
facet normal -0.0 -0.0 1.0
outer loop
vertex 58.153795241570144 9.336247071640365 3.500000000000016
vertex 74.83086570489101 3.325 3.5
vertex 58.153795241570144 30.236247071640392 3.500000000000016
endloop
endfacet
facet normal -0.0 -0.0 1.0
outer loop
vertex 58.153795241570144 30.236247071640392 3.500000000000016
vertex 74.83086570489101 3.325 3.5
vertex 74.69600013450976 3.6505942891115963 3.5
endloop
endfacet
facet normal -0.0 -0.0 1.0
outer loop
vertex 58.153795241570144 30.236247071640392 3.500000000000016
vertex 74.69600013450976 3.6505942891115963 3.5
vertex 74.64999999999999 3.9999999999999996 3.5
endloop
endfacet
facet normal -0.0 -0.0 1.0
outer loop
vertex 75.325 2.8308657048910093 3.5
vertex 81.5 0.0 3.5
vertex 75.6505942891116 2.6960001345097595 3.5
endloop
endfacet
facet normal -0.0 -0.0 1.0
outer loop
vertex 75.6505942891116 2.6960001345097595 3.5
vertex 81.5 0.0 3.5
vertex 76.0 2.650000000000002 3.5
endloop
endfacet
facet normal -0.0 -0.0 1.0
outer loop
vertex 76.0 2.650000000000002 3.5
vertex 81.5 0.0 3.5
vertex 76.34940571088839 2.6960001345097604 3.5
endloop
endfacet
facet normal -0.0 -0.0 1.0
outer loop
vertex 76.34940571088839 2.6960001345097604 3.5
vertex 81.5 0.0 3.5
vertex 76.675 2.83086570489101 3.5
endloop
endfacet
facet normal -0.0 -0.0 1.0
outer loop
vertex 76.675 2.83086570489101 3.5
vertex 81.5 0.0 3.5
vertex 76.95459415460184 3.045405845398163 3.5
endloop
endfacet
facet normal -0.0 -0.0 1.0
outer loop
vertex 76.95459415460184 3.045405845398163 3.5
vertex 81.5 0.0 3.5
vertex 77.16913429510899 3.325000000000001 3.5
endloop
endfacet
facet normal -0.0 -0.0 1.0
outer loop
vertex 77.16913429510899 3.325000000000001 3.5
vertex 81.5 0.0 3.5
vertex 77.30399986549024 3.6505942891115977 3.5
endloop
endfacet
facet normal -0.0 -0.0 1.0
outer loop
vertex 77.30399986549024 3.6505942891115977 3.5
vertex 81.5 0.0 3.5
vertex 77.35 3.9999999999999996 3.5
endloop
endfacet
facet normal -0.0 -0.0 1.0
outer loop
vertex 77.35 3.9999999999999996 3.5
vertex 81.5 0.0 3.5
vertex 77.35 36.0 3.5
endloop
endfacet
facet normal -0.0 -0.0 1.0
outer loop
vertex 0.0 40.0 3.5
vertex 31.953795241570145 30.236247071640392 3.500000000000016
vertex 81.5 40.0 3.5
endloop
endfacet
facet normal -0.0 -0.0 1.0
outer loop
vertex 31.953795241570145 30.236247071640392 3.500000000000016
vertex 0.0 40.0 3.5
vertex 14.030865704891005 4.175 3.5
endloop
endfacet
facet normal -0.0 -0.0 1.0
outer loop
vertex 14.030865704891005 4.175 3.5
vertex 0.0 40.0 3.5
vertex 13.896000134509755 3.849405710888402 3.5
endloop
endfacet
facet normal -0.0 -0.0 1.0
outer loop
vertex 13.896000134509755 3.849405710888402 3.5
vertex 0.0 40.0 3.5
vertex 13.849999999999998 3.499999999999999 3.5
endloop
endfacet
facet normal -0.0 -0.0 1.0
outer loop
vertex 31.953795241570145 30.236247071640392 3.500000000000016
vertex 14.030865704891005 4.175 3.5
vertex 14.24540584539816 4.454594154601839 3.5
endloop
endfacet
facet normal -0.0 -0.0 1.0
outer loop
vertex 31.953795241570145 30.236247071640392 3.500000000000016
vertex 14.24540584539816 4.454594154601839 3.5
vertex 14.524999999999997 4.669134295108992 3.5
endloop
endfacet
facet normal -0.0 -0.0 1.0
outer loop
vertex 31.953795241570145 30.236247071640392 3.500000000000016
vertex 14.524999999999997 4.669134295108992 3.5
vertex 14.850594289111594 4.803999865490241 3.5
endloop
endfacet
facet normal -0.0 -0.0 1.0
outer loop
vertex 31.953795241570145 30.236247071640392 3.500000000000016
vertex 14.850594289111594 4.803999865490241 3.5
vertex 15.199999999999998 4.85 3.5
endloop
endfacet
facet normal -0.0 -0.0 1.0
outer loop
vertex 31.953795241570145 30.236247071640392 3.500000000000016
vertex 15.199999999999998 4.85 3.5
vertex 15.549405710888399 4.803999865490242 3.5
endloop
endfacet
facet normal -0.0 -0.0 1.0
outer loop
vertex 31.953795241570145 30.236247071640392 3.500000000000016
vertex 15.549405710888399 4.803999865490242 3.5
vertex 15.874999999999996 4.669134295108992 3.5
endloop
endfacet
facet normal -0.0 -0.0 1.0
outer loop
vertex 31.953795241570145 30.236247071640392 3.500000000000016
vertex 15.874999999999996 4.669134295108992 3.5
vertex 16.154594154601835 4.454594154601839 3.5
endloop
endfacet
facet normal -0.0 -0.0 1.0
outer loop
vertex 31.953795241570145 30.236247071640392 3.500000000000016
vertex 16.154594154601835 4.454594154601839 3.5
vertex 16.369134295108992 4.175 3.5
endloop
endfacet
facet normal -0.0 -0.0 1.0
outer loop
vertex 31.953795241570145 30.236247071640392 3.500000000000016
vertex 16.369134295108992 4.175 3.5
vertex 16.50399986549024 3.849405710888403 3.5
endloop
endfacet
facet normal -0.0 -0.0 1.0
outer loop
vertex 31.953795241570145 30.236247071640392 3.500000000000016
vertex 16.50399986549024 3.849405710888403 3.5
vertex 16.549999999999997 3.499999999999999 3.5
endloop
endfacet
facet normal -0.0 -0.0 1.0
outer loop
vertex 31.953795241570145 30.236247071640392 3.500000000000016
vertex 16.549999999999997 3.499999999999999 3.5
vertex 31.953795241570145 9.336247071640365 3.500000000000016
endloop
endfacet
facet normal -0.0 -0.0 1.0
outer loop
vertex 81.5 40.0 3.5
vertex 31.953795241570145 30.236247071640392 3.500000000000016
vertex 58.153795241570144 30.236247071640392 3.500000000000016
endloop
endfacet
facet normal -0.0 -0.0 1.0
outer loop
vertex 81.5 40.0 3.5
vertex 58.153795241570144 30.236247071640392 3.500000000000016
vertex 75.32499999999999 37.16913429510899 3.5
endloop
endfacet
facet normal -0.0 -0.0 1.0
outer loop
vertex 75.32499999999999 37.16913429510899 3.5
vertex 58.153795241570144 30.236247071640392 3.500000000000016
vertex 75.04540584539816 36.95459415460184 3.5
endloop
endfacet
facet normal -0.0 -0.0 1.0
outer loop
vertex 75.04540584539816 36.95459415460184 3.5
vertex 58.153795241570144 30.236247071640392 3.500000000000016
vertex 74.83086570489101 36.675 3.5
endloop
endfacet
facet normal -0.0 -0.0 1.0
outer loop
vertex 74.83086570489101 36.675 3.5
vertex 58.153795241570144 30.236247071640392 3.500000000000016
vertex 74.69600013450976 36.349405710888405 3.5
endloop
endfacet
facet normal -0.0 -0.0 1.0
outer loop
vertex 74.69600013450976 36.349405710888405 3.5
vertex 58.153795241570144 30.236247071640392 3.500000000000016
vertex 74.64999999999999 36.0 3.5
endloop
endfacet
facet normal -0.0 -0.0 1.0
outer loop
vertex 74.64999999999999 36.0 3.5
vertex 58.153795241570144 30.236247071640392 3.500000000000016
vertex 74.64999999999999 3.9999999999999996 3.5
endloop
endfacet
facet normal -0.0 -0.0 1.0
outer loop
vertex 81.5 40.0 3.5
vertex 75.32499999999999 37.16913429510899 3.5
vertex 75.6505942891116 37.30399986549024 3.5
endloop
endfacet
facet normal -0.0 -0.0 1.0
outer loop
vertex 81.5 40.0 3.5
vertex 75.6505942891116 37.30399986549024 3.5
vertex 76.0 37.35 3.5
endloop
endfacet
facet normal -0.0 -0.0 1.0
outer loop
vertex 81.5 40.0 3.5
vertex 76.0 37.35 3.5
vertex 76.34940571088839 37.30399986549024 3.5
endloop
endfacet
facet normal -0.0 -0.0 1.0
outer loop
vertex 81.5 40.0 3.5
vertex 76.34940571088839 37.30399986549024 3.5
vertex 76.67499999999998 37.16913429510899 3.5
endloop
endfacet
facet normal -0.0 -0.0 1.0
outer loop
vertex 81.5 40.0 3.5
vertex 76.67499999999998 37.16913429510899 3.5
vertex 76.95459415460184 36.95459415460184 3.5
endloop
endfacet
facet normal -0.0 -0.0 1.0
outer loop
vertex 81.5 40.0 3.5
vertex 76.95459415460184 36.95459415460184 3.5
vertex 77.16913429510899 36.675 3.5
endloop
endfacet
facet normal -0.0 -0.0 1.0
outer loop
vertex 81.5 40.0 3.5
vertex 77.16913429510899 36.675 3.5
vertex 77.30399986549024 36.349405710888405 3.5
endloop
endfacet
facet normal -0.0 -0.0 1.0
outer loop
vertex 81.5 40.0 3.5
vertex 77.30399986549024 36.349405710888405 3.5
vertex 77.35 36.0 3.5
endloop
endfacet
facet normal -0.0 -0.0 1.0
outer loop
vertex 81.5 40.0 3.5
vertex 77.35 36.0 3.5
vertex 81.5 0.0 3.5
endloop
endfacet
facet normal -0.0 -0.0 1.0
outer loop
vertex 74.69600013450976 4.349405710888402 3.5
vertex 74.64999999999999 36.0 3.5
vertex 74.64999999999999 3.9999999999999996 3.5
endloop
endfacet
facet normal -0.0 -0.0 1.0
outer loop
vertex 74.64999999999999 36.0 3.5
vertex 74.69600013450976 4.349405710888402 3.5
vertex 74.69600013450976 35.650594289111595 3.5
endloop
endfacet
facet normal -0.0 -0.0 1.0
outer loop
vertex 74.69600013450976 35.650594289111595 3.5
vertex 74.69600013450976 4.349405710888402 3.5
vertex 74.83086570489101 4.674999999999998 3.5
endloop
endfacet
facet normal -0.0 -0.0 1.0
outer loop
vertex 74.69600013450976 35.650594289111595 3.5
vertex 74.83086570489101 4.674999999999998 3.5
vertex 74.83086570489101 35.325 3.5
endloop
endfacet
facet normal -0.0 -0.0 1.0
outer loop
vertex 74.83086570489101 35.325 3.5
vertex 74.83086570489101 4.674999999999998 3.5
vertex 75.04540584539816 4.954594154601837 3.5
endloop
endfacet
facet normal -0.0 -0.0 1.0
outer loop
vertex 74.83086570489101 35.325 3.5
vertex 75.04540584539816 4.954594154601837 3.5
vertex 75.04540584539816 35.045405845398165 3.5
endloop
endfacet
facet normal -0.0 -0.0 1.0
outer loop
vertex 75.04540584539816 35.045405845398165 3.5
vertex 75.04540584539816 4.954594154601837 3.5
vertex 75.32499999999999 5.16913429510899 3.5
endloop
endfacet
facet normal -0.0 -0.0 1.0
outer loop
vertex 75.04540584539816 35.045405845398165 3.5
vertex 75.32499999999999 5.16913429510899 3.5
vertex 75.325 34.83086570489101 3.5
endloop
endfacet
facet normal -0.0 -0.0 1.0
outer loop
vertex 75.325 34.83086570489101 3.5
vertex 75.32499999999999 5.16913429510899 3.5
vertex 75.6505942891116 5.303999865490239 3.5
endloop
endfacet
facet normal -0.0 -0.0 1.0
outer loop
vertex 75.325 34.83086570489101 3.5
vertex 75.6505942891116 5.303999865490239 3.5
vertex 75.6505942891116 34.69600013450976 3.5
endloop
endfacet
facet normal -0.0 -0.0 1.0
outer loop
vertex 75.6505942891116 34.69600013450976 3.5
vertex 75.6505942891116 5.303999865490239 3.5
vertex 76.0 5.349999999999997 3.5
endloop
endfacet
facet normal -0.0 -0.0 1.0
outer loop
vertex 75.6505942891116 34.69600013450976 3.5
vertex 76.0 5.349999999999997 3.5
vertex 76.0 34.650000000000006 3.5
endloop
endfacet
facet normal -0.0 -0.0 1.0
outer loop
vertex 76.0 34.650000000000006 3.5
vertex 76.0 5.349999999999997 3.5
vertex 76.34940571088839 5.30399986549024 3.5
endloop
endfacet
facet normal -0.0 -0.0 1.0
outer loop
vertex 76.0 34.650000000000006 3.5
vertex 76.34940571088839 5.30399986549024 3.5
vertex 76.34940571088839 34.69600013450976 3.5
endloop
endfacet
facet normal -0.0 -0.0 1.0
outer loop
vertex 76.34940571088839 34.69600013450976 3.5
vertex 76.34940571088839 5.30399986549024 3.5
vertex 76.67499999999998 5.16913429510899 3.5
endloop
endfacet
facet normal -0.0 -0.0 1.0
outer loop
vertex 76.34940571088839 34.69600013450976 3.5
vertex 76.67499999999998 5.16913429510899 3.5
vertex 76.675 34.83086570489102 3.5
endloop
endfacet
facet normal -0.0 -0.0 1.0
outer loop
vertex 76.675 34.83086570489102 3.5
vertex 76.67499999999998 5.16913429510899 3.5
vertex 76.95459415460184 4.954594154601837 3.5
endloop
endfacet
facet normal -0.0 -0.0 1.0
outer loop
vertex 76.675 34.83086570489102 3.5
vertex 76.95459415460184 4.954594154601837 3.5
vertex 76.95459415460184 35.045405845398165 3.5
endloop
endfacet
facet normal -0.0 -0.0 1.0
outer loop
vertex 76.95459415460184 35.045405845398165 3.5
vertex 76.95459415460184 4.954594154601837 3.5
vertex 77.16913429510899 4.674999999999999 3.5
endloop
endfacet
facet normal -0.0 -0.0 1.0
outer loop
vertex 76.95459415460184 35.045405845398165 3.5
vertex 77.16913429510899 4.674999999999999 3.5
vertex 77.16913429510899 35.325 3.5
endloop
endfacet
facet normal -0.0 -0.0 1.0
outer loop
vertex 77.16913429510899 35.325 3.5
vertex 77.16913429510899 4.674999999999999 3.5
vertex 77.30399986549024 4.349405710888402 3.5
endloop
endfacet
facet normal -0.0 -0.0 1.0
outer loop
vertex 77.16913429510899 35.325 3.5
vertex 77.30399986549024 4.349405710888402 3.5
vertex 77.30399986549024 35.650594289111595 3.5
endloop
endfacet
facet normal -0.0 -0.0 1.0
outer loop
vertex 77.30399986549024 35.650594289111595 3.5
vertex 77.30399986549024 4.349405710888402 3.5
vertex 77.35 3.9999999999999996 3.5
endloop
endfacet
facet normal -0.0 -0.0 1.0
outer loop
vertex 77.30399986549024 35.650594289111595 3.5
vertex 77.35 3.9999999999999996 3.5
vertex 77.35 36.0 3.5
endloop
endfacet
facet normal 0.0 0.0 -1.0
outer loop
vertex 0.0 40.0 0.0
vertex 31.953795241570145 30.236247071640392 1.621480727465041e-14
vertex 0.0 0.0 0.0
endloop
endfacet
facet normal 0.0 0.0 -1.0
outer loop
vertex 31.953795241570145 30.236247071640392 1.621480727465041e-14
vertex 0.0 40.0 0.0
vertex 81.5 40.0 0.0
endloop
endfacet
facet normal 0.0 0.0 -1.0
outer loop
vertex 0.0 0.0 0.0
vertex 31.953795241570145 30.236247071640392 1.621480727465041e-14
vertex 14.030865704891005 4.175 0.0
endloop
endfacet
facet normal 0.0 0.0 -1.0
outer loop
vertex 0.0 0.0 0.0
vertex 14.030865704891005 4.175 0.0
vertex 13.896000134509755 3.849405710888402 0.0
endloop
endfacet
facet normal 0.0 0.0 -1.0
outer loop
vertex 0.0 0.0 0.0
vertex 13.896000134509755 3.849405710888402 0.0
vertex 13.849999999999998 3.499999999999999 0.0
endloop
endfacet
facet normal 0.0 0.0 -1.0
outer loop
vertex 14.030865704891005 4.175 0.0
vertex 31.953795241570145 30.236247071640392 1.621480727465041e-14
vertex 14.24540584539816 4.454594154601839 0.0
endloop
endfacet
facet normal 0.0 0.0 -1.0
outer loop
vertex 14.24540584539816 4.454594154601839 0.0
vertex 31.953795241570145 30.236247071640392 1.621480727465041e-14
vertex 14.524999999999997 4.669134295108992 0.0
endloop
endfacet
facet normal 0.0 0.0 -1.0
outer loop
vertex 14.524999999999997 4.669134295108992 0.0
vertex 31.953795241570145 30.236247071640392 1.621480727465041e-14
vertex 14.850594289111594 4.803999865490241 0.0
endloop
endfacet
facet normal 0.0 0.0 -1.0
outer loop
vertex 14.850594289111594 4.803999865490241 0.0
vertex 31.953795241570145 30.236247071640392 1.621480727465041e-14
vertex 15.199999999999998 4.85 0.0
endloop
endfacet
facet normal 0.0 0.0 -1.0
outer loop
vertex 15.199999999999998 4.85 0.0
vertex 31.953795241570145 30.236247071640392 1.621480727465041e-14
vertex 15.549405710888399 4.803999865490242 0.0
endloop
endfacet
facet normal 0.0 0.0 -1.0
outer loop
vertex 15.549405710888399 4.803999865490242 0.0
vertex 31.953795241570145 30.236247071640392 1.621480727465041e-14
vertex 15.874999999999996 4.669134295108992 0.0
endloop
endfacet
facet normal 0.0 0.0 -1.0
outer loop
vertex 15.874999999999996 4.669134295108992 0.0
vertex 31.953795241570145 30.236247071640392 1.621480727465041e-14
vertex 16.154594154601835 4.454594154601839 0.0
endloop
endfacet
facet normal 0.0 0.0 -1.0
outer loop
vertex 16.154594154601835 4.454594154601839 0.0
vertex 31.953795241570145 30.236247071640392 1.621480727465041e-14
vertex 16.369134295108992 4.175 0.0
endloop
endfacet
facet normal 0.0 0.0 -1.0
outer loop
vertex 16.369134295108992 4.175 0.0
vertex 31.953795241570145 30.236247071640392 1.621480727465041e-14
vertex 16.50399986549024 3.849405710888403 0.0
endloop
endfacet
facet normal 0.0 0.0 -1.0
outer loop
vertex 16.50399986549024 3.849405710888403 0.0
vertex 31.953795241570145 30.236247071640392 1.621480727465041e-14
vertex 16.549999999999997 3.499999999999999 0.0
endloop
endfacet
facet normal 0.0 0.0 -1.0
outer loop
vertex 31.953795241570145 30.236247071640392 1.621480727465041e-14
vertex 81.5 40.0 0.0
vertex 58.153795241570144 30.236247071640392 1.621480727465041e-14
endloop
endfacet
facet normal 0.0 0.0 -1.0
outer loop
vertex 58.153795241570144 30.236247071640392 1.621480727465041e-14
vertex 81.5 40.0 0.0
vertex 75.32499999999999 37.16913429510899 0.0
endloop
endfacet
facet normal 0.0 0.0 -1.0
outer loop
vertex 58.153795241570144 30.236247071640392 1.621480727465041e-14
vertex 75.32499999999999 37.16913429510899 0.0
vertex 75.04540584539816 36.95459415460184 0.0
endloop
endfacet
facet normal 0.0 0.0 -1.0
outer loop
vertex 58.153795241570144 30.236247071640392 1.621480727465041e-14
vertex 75.04540584539816 36.95459415460184 0.0
vertex 74.83086570489101 36.675 0.0
endloop
endfacet
facet normal 0.0 0.0 -1.0
outer loop
vertex 58.153795241570144 30.236247071640392 1.621480727465041e-14
vertex 74.83086570489101 36.675 0.0
vertex 58.153795241570144 9.336247071640365 1.621480727465041e-14
endloop
endfacet
facet normal 0.0 0.0 -1.0
outer loop
vertex 58.153795241570144 9.336247071640365 1.621480727465041e-14
vertex 74.83086570489101 36.675 0.0
vertex 74.69600013450976 36.349405710888405 0.0
endloop
endfacet
facet normal 0.0 0.0 -1.0
outer loop
vertex 58.153795241570144 9.336247071640365 1.621480727465041e-14
vertex 74.69600013450976 36.349405710888405 0.0
vertex 74.64999999999999 36.0 0.0
endloop
endfacet
facet normal 0.0 0.0 -1.0
outer loop
vertex 75.32499999999999 37.16913429510899 0.0
vertex 81.5 40.0 0.0
vertex 75.6505942891116 37.30399986549024 0.0
endloop
endfacet
facet normal 0.0 0.0 -1.0
outer loop
vertex 75.6505942891116 37.30399986549024 0.0
vertex 81.5 40.0 0.0
vertex 76.0 37.35 0.0
endloop
endfacet
facet normal 0.0 0.0 -1.0
outer loop
vertex 76.0 37.35 0.0
vertex 81.5 40.0 0.0
vertex 76.34940571088839 37.30399986549024 0.0
endloop
endfacet
facet normal 0.0 0.0 -1.0
outer loop
vertex 76.34940571088839 37.30399986549024 0.0
vertex 81.5 40.0 0.0
vertex 76.67499999999998 37.16913429510899 0.0
endloop
endfacet
facet normal 0.0 0.0 -1.0
outer loop
vertex 76.67499999999998 37.16913429510899 0.0
vertex 81.5 40.0 0.0
vertex 76.95459415460184 36.95459415460184 0.0
endloop
endfacet
facet normal 0.0 0.0 -1.0
outer loop
vertex 76.95459415460184 36.95459415460184 0.0
vertex 81.5 40.0 0.0
vertex 77.16913429510899 36.675 0.0
endloop
endfacet
facet normal 0.0 0.0 -1.0
outer loop
vertex 77.16913429510899 36.675 0.0
vertex 81.5 40.0 0.0
vertex 77.30399986549024 36.349405710888405 0.0
endloop
endfacet
facet normal 0.0 0.0 -1.0
outer loop
vertex 77.30399986549024 36.349405710888405 0.0
vertex 81.5 40.0 0.0
vertex 77.35 36.0 0.0
endloop
endfacet
facet normal 0.0 0.0 -1.0
outer loop
vertex 77.35 36.0 0.0
vertex 81.5 40.0 0.0
vertex 77.35 3.9999999999999996 0.0
endloop
endfacet
facet normal 0.0 0.0 -1.0
outer loop
vertex 0.0 0.0 0.0
vertex 15.199999999999998 2.149999999999999 0.0
vertex 81.5 0.0 0.0
endloop
endfacet
facet normal 0.0 0.0 -1.0
outer loop
vertex 15.199999999999998 2.149999999999999 0.0
vertex 0.0 0.0 0.0
vertex 14.850594289111594 2.196000134509757 0.0
endloop
endfacet
facet normal 0.0 0.0 -1.0
outer loop
vertex 14.850594289111594 2.196000134509757 0.0
vertex 0.0 0.0 0.0
vertex 14.524999999999999 2.3308657048910066 0.0
endloop
endfacet
facet normal 0.0 0.0 -1.0
outer loop
vertex 14.524999999999999 2.3308657048910066 0.0
vertex 0.0 0.0 0.0
vertex 14.24540584539816 2.5454058453981596 0.0
endloop
endfacet
facet normal 0.0 0.0 -1.0
outer loop
vertex 14.24540584539816 2.5454058453981596 0.0
vertex 0.0 0.0 0.0
vertex 14.030865704891005 2.824999999999999 0.0
endloop
endfacet
facet normal 0.0 0.0 -1.0
outer loop
vertex 14.030865704891005 2.824999999999999 0.0
vertex 0.0 0.0 0.0
vertex 13.896000134509755 3.150594289111596 0.0
endloop
endfacet
facet normal 0.0 0.0 -1.0
outer loop
vertex 13.896000134509755 3.150594289111596 0.0
vertex 0.0 0.0 0.0
vertex 13.849999999999998 3.499999999999999 0.0
endloop
endfacet
facet normal 0.0 0.0 -1.0
outer loop
vertex 81.5 0.0 0.0
vertex 15.199999999999998 2.149999999999999 0.0
vertex 15.5494057108884 2.196000134509757 0.0
endloop
endfacet
facet normal 0.0 0.0 -1.0
outer loop
vertex 81.5 0.0 0.0
vertex 15.5494057108884 2.196000134509757 0.0
vertex 15.875 2.330865704891007 0.0
endloop
endfacet
facet normal 0.0 0.0 -1.0
outer loop
vertex 81.5 0.0 0.0
vertex 15.875 2.330865704891007 0.0
vertex 16.15459415460184 2.54540584539816 0.0
endloop
endfacet
facet normal 0.0 0.0 -1.0
outer loop
vertex 81.5 0.0 0.0
vertex 16.15459415460184 2.54540584539816 0.0
vertex 16.369134295108992 2.8249999999999997 0.0
endloop
endfacet
facet normal 0.0 0.0 -1.0
outer loop
vertex 81.5 0.0 0.0
vertex 16.369134295108992 2.8249999999999997 0.0
vertex 16.50399986549024 3.150594289111597 0.0
endloop
endfacet
facet normal 0.0 0.0 -1.0
outer loop
vertex 81.5 0.0 0.0
vertex 16.50399986549024 3.150594289111597 0.0
vertex 16.549999999999997 3.499999999999999 0.0
endloop
endfacet
facet normal 0.0 0.0 -1.0
outer loop
vertex 81.5 0.0 0.0
vertex 16.549999999999997 3.499999999999999 0.0
vertex 31.953795241570145 9.336247071640365 1.621480727465041e-14
endloop
endfacet
facet normal 0.0 0.0 -1.0
outer loop
vertex 31.953795241570145 9.336247071640365 1.621480727465041e-14
vertex 16.549999999999997 3.499999999999999 0.0
vertex 31.953795241570145 30.236247071640392 1.621480727465041e-14
endloop
endfacet
facet normal 0.0 0.0 -1.0
outer loop
vertex 81.5 0.0 0.0
vertex 31.953795241570145 9.336247071640365 1.621480727465041e-14
vertex 58.153795241570144 9.336247071640365 1.621480727465041e-14
endloop
endfacet
facet normal 0.0 0.0 -1.0
outer loop
vertex 81.5 0.0 0.0
vertex 58.153795241570144 9.336247071640365 1.621480727465041e-14
vertex 75.325 2.8308657048910093 0.0
endloop
endfacet
facet normal 0.0 0.0 -1.0
outer loop
vertex 75.325 2.8308657048910093 0.0
vertex 58.153795241570144 9.336247071640365 1.621480727465041e-14
vertex 75.04540584539816 3.0454058453981623 0.0
endloop
endfacet
facet normal 0.0 0.0 -1.0
outer loop
vertex 75.04540584539816 3.0454058453981623 0.0
vertex 58.153795241570144 9.336247071640365 1.621480727465041e-14
vertex 74.83086570489101 3.325 0.0
endloop
endfacet
facet normal 0.0 0.0 -1.0
outer loop
vertex 74.83086570489101 3.325 0.0
vertex 58.153795241570144 9.336247071640365 1.621480727465041e-14
vertex 74.69600013450976 3.6505942891115963 0.0
endloop
endfacet
facet normal 0.0 0.0 -1.0
outer loop
vertex 74.69600013450976 3.6505942891115963 0.0
vertex 58.153795241570144 9.336247071640365 1.621480727465041e-14
vertex 74.64999999999999 3.9999999999999996 0.0
endloop
endfacet
facet normal 0.0 0.0 -1.0
outer loop
vertex 74.64999999999999 3.9999999999999996 0.0
vertex 58.153795241570144 9.336247071640365 1.621480727465041e-14
vertex 74.64999999999999 36.0 0.0
endloop
endfacet
facet normal 0.0 0.0 -1.0
outer loop
vertex 81.5 0.0 0.0
vertex 75.325 2.8308657048910093 0.0
vertex 75.6505942891116 2.6960001345097595 0.0
endloop
endfacet
facet normal 0.0 0.0 -1.0
outer loop
vertex 81.5 0.0 0.0
vertex 75.6505942891116 2.6960001345097595 0.0
vertex 76.0 2.650000000000002 0.0
endloop
endfacet
facet normal 0.0 0.0 -1.0
outer loop
vertex 81.5 0.0 0.0
vertex 76.0 2.650000000000002 0.0
vertex 76.34940571088839 2.6960001345097604 0.0
endloop
endfacet
facet normal 0.0 0.0 -1.0
outer loop
vertex 81.5 0.0 0.0
vertex 76.34940571088839 2.6960001345097604 0.0
vertex 76.675 2.83086570489101 0.0
endloop
endfacet
facet normal 0.0 0.0 -1.0
outer loop
vertex 81.5 0.0 0.0
vertex 76.675 2.83086570489101 0.0
vertex 76.95459415460184 3.045405845398163 0.0
endloop
endfacet
facet normal 0.0 0.0 -1.0
outer loop
vertex 81.5 0.0 0.0
vertex 76.95459415460184 3.045405845398163 0.0
vertex 77.16913429510899 3.325000000000001 0.0
endloop
endfacet
facet normal 0.0 0.0 -1.0
outer loop
vertex 81.5 0.0 0.0
vertex 77.16913429510899 3.325000000000001 0.0
vertex 77.30399986549024 3.6505942891115977 0.0
endloop
endfacet
facet normal 0.0 0.0 -1.0
outer loop
vertex 81.5 0.0 0.0
vertex 77.30399986549024 3.6505942891115977 0.0
vertex 77.35 3.9999999999999996 0.0
endloop
endfacet
facet normal 0.0 0.0 -1.0
outer loop
vertex 81.5 0.0 0.0
vertex 77.35 3.9999999999999996 0.0
vertex 81.5 40.0 0.0
endloop
endfacet
facet normal 0.0 0.0 -1.0
outer loop
vertex 74.69600013450976 35.650594289111595 0.0
vertex 74.64999999999999 3.9999999999999996 0.0
vertex 74.64999999999999 36.0 0.0
endloop
endfacet
facet normal 0.0 0.0 -1.0
outer loop
vertex 74.64999999999999 3.9999999999999996 0.0
vertex 74.69600013450976 35.650594289111595 0.0
vertex 74.69600013450976 4.349405710888402 0.0
endloop
endfacet
facet normal 0.0 0.0 -1.0
outer loop
vertex 74.69600013450976 4.349405710888402 0.0
vertex 74.69600013450976 35.650594289111595 0.0
vertex 74.83086570489101 35.325 0.0
endloop
endfacet
facet normal 0.0 0.0 -1.0
outer loop
vertex 74.69600013450976 4.349405710888402 0.0
vertex 74.83086570489101 35.325 0.0
vertex 74.83086570489101 4.674999999999998 0.0
endloop
endfacet
facet normal 0.0 0.0 -1.0
outer loop
vertex 74.83086570489101 4.674999999999998 0.0
vertex 74.83086570489101 35.325 0.0
vertex 75.04540584539816 35.045405845398165 0.0
endloop
endfacet
facet normal 0.0 0.0 -1.0
outer loop
vertex 74.83086570489101 4.674999999999998 0.0
vertex 75.04540584539816 35.045405845398165 0.0
vertex 75.04540584539816 4.954594154601837 0.0
endloop
endfacet
facet normal 0.0 0.0 -1.0
outer loop
vertex 75.04540584539816 4.954594154601837 0.0
vertex 75.04540584539816 35.045405845398165 0.0
vertex 75.325 34.83086570489101 0.0
endloop
endfacet
facet normal 0.0 0.0 -1.0
outer loop
vertex 75.04540584539816 4.954594154601837 0.0
vertex 75.325 34.83086570489101 0.0
vertex 75.32499999999999 5.16913429510899 0.0
endloop
endfacet
facet normal 0.0 0.0 -1.0
outer loop
vertex 75.32499999999999 5.16913429510899 0.0
vertex 75.325 34.83086570489101 0.0
vertex 75.6505942891116 5.303999865490239 0.0
endloop
endfacet
facet normal 0.0 0.0 -1.0
outer loop
vertex 75.6505942891116 5.303999865490239 0.0
vertex 75.325 34.83086570489101 0.0
vertex 75.6505942891116 34.69600013450976 0.0
endloop
endfacet
facet normal 0.0 0.0 -1.0
outer loop
vertex 75.6505942891116 5.303999865490239 0.0
vertex 75.6505942891116 34.69600013450976 0.0
vertex 76.0 34.650000000000006 0.0
endloop
endfacet
facet normal 0.0 0.0 -1.0
outer loop
vertex 75.6505942891116 5.303999865490239 0.0
vertex 76.0 34.650000000000006 0.0
vertex 76.0 5.349999999999997 0.0
endloop
endfacet
facet normal 0.0 0.0 -1.0
outer loop
vertex 76.0 5.349999999999997 0.0
vertex 76.0 34.650000000000006 0.0
vertex 76.34940571088839 34.69600013450976 0.0
endloop
endfacet
facet normal 0.0 0.0 -1.0
outer loop
vertex 76.0 5.349999999999997 0.0
vertex 76.34940571088839 34.69600013450976 0.0
vertex 76.34940571088839 5.30399986549024 0.0
endloop
endfacet
facet normal 0.0 0.0 -1.0
outer loop
vertex 76.34940571088839 5.30399986549024 0.0
vertex 76.34940571088839 34.69600013450976 0.0
vertex 76.675 34.83086570489102 0.0
endloop
endfacet
facet normal 0.0 0.0 -1.0
outer loop
vertex 76.34940571088839 5.30399986549024 0.0
vertex 76.675 34.83086570489102 0.0
vertex 76.67499999999998 5.16913429510899 0.0
endloop
endfacet
facet normal 0.0 0.0 -1.0
outer loop
vertex 76.67499999999998 5.16913429510899 0.0
vertex 76.675 34.83086570489102 0.0
vertex 76.95459415460184 4.954594154601837 0.0
endloop
endfacet
facet normal 0.0 0.0 -1.0
outer loop
vertex 76.95459415460184 4.954594154601837 0.0
vertex 76.675 34.83086570489102 0.0
vertex 76.95459415460184 35.045405845398165 0.0
endloop
endfacet
facet normal 0.0 0.0 -1.0
outer loop
vertex 76.95459415460184 4.954594154601837 0.0
vertex 76.95459415460184 35.045405845398165 0.0
vertex 77.16913429510899 35.325 0.0
endloop
endfacet
facet normal 0.0 0.0 -1.0
outer loop
vertex 76.95459415460184 4.954594154601837 0.0
vertex 77.16913429510899 35.325 0.0
vertex 77.16913429510899 4.674999999999999 0.0
endloop
endfacet
facet normal 0.0 0.0 -1.0
outer loop
vertex 77.16913429510899 4.674999999999999 0.0
vertex 77.16913429510899 35.325 0.0
vertex 77.30399986549024 35.650594289111595 0.0
endloop
endfacet
facet normal 0.0 0.0 -1.0
outer loop
vertex 77.16913429510899 4.674999999999999 0.0
vertex 77.30399986549024 35.650594289111595 0.0
vertex 77.30399986549024 4.349405710888402 0.0
endloop
endfacet
facet normal 0.0 0.0 -1.0
outer loop
vertex 77.30399986549024 4.349405710888402 0.0
vertex 77.30399986549024 35.650594289111595 0.0
vertex 77.35 36.0 0.0
endloop
endfacet
facet normal 0.0 0.0 -1.0
outer loop
vertex 77.30399986549024 4.349405710888402 0.0
vertex 77.35 36.0 0.0
vertex 77.35 3.9999999999999996 0.0
endloop
endfacet
facet normal 0.8660254037844384 -0.5000000000000003 0.0
outer loop
vertex 14.030865704891005 4.175 0.0
vertex 13.896000134509755 3.849405710888402 3.5
vertex 13.896000134509755 3.849405710888402 0.0
endloop
endfacet
facet normal 0.9659258262890686 -0.2588190451025198 0.0
outer loop
vertex 13.896000134509755 3.849405710888402 3.5
vertex 14.030865704891005 4.175 0.0
vertex 14.030865704891005 4.175 3.5
endloop
endfacet
facet normal 0.5000000000000013 -0.8660254037844379 0.0
outer loop
vertex 14.524999999999997 4.669134295108992 3.5
vertex 14.24540584539816 4.454594154601839 0.0
vertex 14.524999999999997 4.669134295108992 0.0
endloop
endfacet
facet normal 0.7071067811865476 -0.7071067811865474 0.0
outer loop
vertex 14.24540584539816 4.454594154601839 0.0
vertex 14.524999999999997 4.669134295108992 3.5
vertex 14.24540584539816 4.454594154601839 3.5
endloop
endfacet
facet normal 4.633777145736391e-16 -1.0 0.0
outer loop
vertex 15.199999999999998 4.85 3.5
vertex 14.850594289111594 4.803999865490241 0.0
vertex 15.199999999999998 4.85 0.0
endloop
endfacet
facet normal 0.25881904510252035 -0.9659258262890683 0.0
outer loop
vertex 14.850594289111594 4.803999865490241 0.0
vertex 15.199999999999998 4.85 3.5
vertex 14.850594289111594 4.803999865490241 3.5
endloop
endfacet
facet normal -0.2588190451025208 -0.9659258262890682 0.0
outer loop
vertex 15.549405710888399 4.803999865490242 3.5
vertex 15.199999999999998 4.85 0.0
vertex 15.549405710888399 4.803999865490242 0.0
endloop
endfacet
facet normal 4.633777145736391e-16 -1.0 0.0
outer loop
vertex 15.199999999999998 4.85 0.0
vertex 15.549405710888399 4.803999865490242 3.5
vertex 15.199999999999998 4.85 3.5
endloop
endfacet
facet normal 0.25881904510252035 -0.9659258262890683 0.0
outer loop
vertex 14.850594289111594 4.803999865490241 3.5
vertex 14.524999999999997 4.669134295108992 0.0
vertex 14.850594289111594 4.803999865490241 0.0
endloop
endfacet
facet normal 0.5000000000000013 -0.8660254037844379 0.0
outer loop
vertex 14.524999999999997 4.669134295108992 0.0
vertex 14.850594289111594 4.803999865490241 3.5
vertex 14.524999999999997 4.669134295108992 3.5
endloop
endfacet
facet normal 0.7071067811865476 -0.7071067811865474 0.0
outer loop
vertex 14.24540584539816 4.454594154601839 0.0
vertex 14.030865704891005 4.175 3.5
vertex 14.030865704891005 4.175 0.0
endloop
endfacet
facet normal 0.8660254037844384 -0.5000000000000003 0.0
outer loop
vertex 14.030865704891005 4.175 3.5
vertex 14.24540584539816 4.454594154601839 0.0
vertex 14.24540584539816 4.454594154601839 3.5
endloop
endfacet
facet normal 0.5000000000000028 -0.8660254037844372 0.0
outer loop
vertex 75.32499999999999 5.16913429510899 3.5
vertex 75.04540584539816 4.954594154601837 0.0
vertex 75.32499999999999 5.16913429510899 0.0
endloop
endfacet
facet normal 0.7071067811865523 -0.7071067811865428 0.0
outer loop
vertex 75.04540584539816 4.954594154601837 0.0
vertex 75.32499999999999 5.16913429510899 3.5
vertex 75.04540584539816 4.954594154601837 3.5
endloop
endfacet
facet normal 0.7071067811865523 -0.7071067811865428 0.0
outer loop
vertex 75.04540584539816 4.954594154601837 0.0
vertex 74.83086570489101 4.674999999999998 3.5
vertex 74.83086570489101 4.674999999999998 0.0
endloop
endfacet
facet normal 0.8660254037844342 -0.500000000000008 0.0
outer loop
vertex 74.83086570489101 4.674999999999998 3.5
vertex 75.04540584539816 4.954594154601837 0.0
vertex 75.04540584539816 4.954594154601837 3.5
endloop
endfacet
facet normal 0.8660254037844342 -0.500000000000008 0.0
outer loop
vertex 74.83086570489101 4.674999999999998 0.0
vertex 74.69600013450976 4.349405710888402 3.5
vertex 74.69600013450976 4.349405710888402 0.0
endloop
endfacet
facet normal 0.9659258262890674 -0.2588190451025238 0.0
outer loop
vertex 74.69600013450976 4.349405710888402 3.5
vertex 74.83086570489101 4.674999999999998 0.0
vertex 74.83086570489101 4.674999999999998 3.5
endloop
endfacet
facet normal 0.9659258262890674 -0.2588190451025238 0.0
outer loop
vertex 74.69600013450976 4.349405710888402 0.0
vertex 74.64999999999999 3.9999999999999996 3.5
vertex 74.64999999999999 3.9999999999999996 0.0
endloop
endfacet
facet normal 1.0 -1.2475553853905654e-16 0.0
outer loop
vertex 74.64999999999999 3.9999999999999996 3.5
vertex 74.69600013450976 4.349405710888402 0.0
vertex 74.69600013450976 4.349405710888402 3.5
endloop
endfacet
facet normal -1.0 1.4257775833035033e-16 0.0
outer loop
vertex 77.35 3.9999999999999996 3.5
vertex 77.30399986549024 3.6505942891115977 0.0
vertex 77.30399986549024 3.6505942891115977 3.5
endloop
endfacet
facet normal -0.9659258262890674 0.25881904510252357 0.0
outer loop
vertex 77.30399986549024 3.6505942891115977 0.0
vertex 77.35 3.9999999999999996 3.5
vertex 77.35 3.9999999999999996 0.0
endloop
endfacet
facet normal -0.9659258262890676 -0.2588190451025235 0.0
outer loop
vertex 77.30399986549024 4.349405710888402 3.5
vertex 77.35 3.9999999999999996 0.0
vertex 77.35 3.9999999999999996 3.5
endloop
endfacet
facet normal -1.0 1.4257775833035033e-16 0.0
outer loop
vertex 77.35 3.9999999999999996 0.0
vertex 77.30399986549024 4.349405710888402 3.5
vertex 77.30399986549024 4.349405710888402 0.0
endloop
endfacet
facet normal -0.8660254037844339 -0.5000000000000082 0.0
outer loop
vertex 77.16913429510899 4.674999999999999 3.5
vertex 77.30399986549024 4.349405710888402 0.0
vertex 77.30399986549024 4.349405710888402 3.5
endloop
endfacet
facet normal -0.9659258262890676 -0.2588190451025235 0.0
outer loop
vertex 77.30399986549024 4.349405710888402 0.0
vertex 77.16913429510899 4.674999999999999 3.5
vertex 77.16913429510899 4.674999999999999 0.0
endloop
endfacet
facet normal -0.707106781186545 -0.7071067811865499 0.0
outer loop
vertex 76.95459415460184 4.954594154601837 3.5
vertex 77.16913429510899 4.674999999999999 0.0
vertex 77.16913429510899 4.674999999999999 3.5
endloop
endfacet
facet normal -0.8660254037844339 -0.5000000000000082 0.0
outer loop
vertex 77.16913429510899 4.674999999999999 0.0
vertex 76.95459415460184 4.954594154601837 3.5
vertex 76.95459415460184 4.954594154601837 0.0
endloop
endfacet
facet normal -0.707106781186545 -0.7071067811865499 0.0
outer loop
vertex 76.95459415460184 4.954594154601837 3.5
vertex 76.67499999999998 5.16913429510899 0.0
vertex 76.95459415460184 4.954594154601837 0.0
endloop
endfacet
facet normal -0.5000000000000003 -0.8660254037844384 0.0
outer loop
vertex 76.67499999999998 5.16913429510899 0.0
vertex 76.95459415460184 4.954594154601837 3.5
vertex 76.67499999999998 5.16913429510899 3.5
endloop
endfacet
facet normal -0.5000000000000003 -0.8660254037844384 0.0
outer loop
vertex 76.67499999999998 5.16913429510899 3.5
vertex 76.34940571088839 5.30399986549024 0.0
vertex 76.67499999999998 5.16913429510899 0.0
endloop
endfacet
facet normal -0.25881904510252196 -0.965925826289068 0.0
outer loop
vertex 76.34940571088839 5.30399986549024 0.0
vertex 76.67499999999998 5.16913429510899 3.5
vertex 76.34940571088839 5.30399986549024 3.5
endloop
endfacet
facet normal -0.25881904510252196 -0.965925826289068 0.0
outer loop
vertex 76.34940571088839 5.30399986549024 3.5
vertex 76.0 5.349999999999997 0.0
vertex 76.34940571088839 5.30399986549024 0.0
endloop
endfacet
facet normal 1.0069554182081006e-15 -1.0 0.0
outer loop
vertex 76.0 5.349999999999997 0.0
vertex 76.34940571088839 5.30399986549024 3.5
vertex 76.0 5.349999999999997 3.5
endloop
endfacet
facet normal 1.0069554182081006e-15 -1.0 0.0
outer loop
vertex 76.0 5.349999999999997 3.5
vertex 75.6505942891116 5.303999865490239 0.0
vertex 76.0 5.349999999999997 0.0
endloop
endfacet
facet normal 0.25881904510251613 -0.9659258262890696 0.0
outer loop
vertex 75.6505942891116 5.303999865490239 0.0
vertex 76.0 5.349999999999997 3.5
vertex 75.6505942891116 5.303999865490239 3.5
endloop
endfacet
facet normal 0.25881904510251613 -0.9659258262890696 0.0
outer loop
vertex 75.6505942891116 5.303999865490239 3.5
vertex 75.32499999999999 5.16913429510899 0.0
vertex 75.6505942891116 5.303999865490239 0.0
endloop
endfacet
facet normal 0.5000000000000028 -0.8660254037844372 0.0
outer loop
vertex 75.32499999999999 5.16913429510899 0.0
vertex 75.6505942891116 5.303999865490239 3.5
vertex 75.32499999999999 5.16913429510899 3.5
endloop
endfacet
endsolid Flex-ATX plate for FILSHU IEC320
